<?xml version="1.0" encoding="UTF-8"?>
<!DOCTYPE svg PUBLIC "-//W3C//DTD SVG 1.1//EN" "http://www.w3.org/Graphics/SVG/1.1/DTD/svg11.dtd">
<svg xmlns="http://www.w3.org/2000/svg" xml:space="preserve" width="3377px" height="3782px" version="1.1"
    shape-rendering="geometricPrecision" text-rendering="geometricPrecision" image-rendering="optimizeQuality"
    fill-rule="evenodd" clip-rule="evenodd" viewBox="0 0 3376.87 3781.36" xmlns:xlink="http://www.w3.org/1999/xlink">
    <g id="ffmt">
        <g id="flower_of_life">
            <circle id="f1" fill="none" stroke="black" stroke-width="2.08" stroke-miterlimit="2.61313"
                stroke-dasharray="4.170000 10.420000" cx="1688.44" cy="1890.68" r="377.93" />
            <circle id="f2" fill="none" stroke="black" stroke-width="2.08" stroke-miterlimit="2.61313"
                stroke-dasharray="4.170000 10.420000" cx="1688.44" cy="1512.75" r="377.93" />
            <circle id="f3" fill="none" stroke="black" stroke-width="2.08" stroke-miterlimit="2.61313"
                stroke-dasharray="4.170000 10.420000" cx="2015.8" cy="1701.72" r="377.93" />
            <circle id="f4" fill="none" stroke="black" stroke-width="2.08" stroke-miterlimit="2.61313"
                stroke-dasharray="4.170000 10.420000" cx="2015.8" cy="2079.65" r="377.93" />
            <circle id="f5" fill="none" stroke="black" stroke-width="2.08" stroke-miterlimit="2.61313"
                stroke-dasharray="4.170000 10.420000" cx="1688.44" cy="2268.61" r="377.93" />
            <circle id="f6" fill="none" stroke="black" stroke-width="2.08" stroke-miterlimit="2.61313"
                stroke-dasharray="4.170000 10.420000" cx="1361.07" cy="2079.64" r="377.93" />
            <circle id="f7" fill="none" stroke="black" stroke-width="2.08" stroke-miterlimit="2.61313"
                stroke-dasharray="4.170000 10.420000" cx="1361.07" cy="1701.72" r="377.93" />
            <circle id="f8" fill="none" stroke="black" stroke-width="2.08" stroke-miterlimit="2.61313"
                stroke-dasharray="4.170000 10.420000" cx="2015.8" cy="1323.79" r="377.93" />
            <circle id="f9" fill="none" stroke="black" stroke-width="2.08" stroke-miterlimit="2.61313"
                stroke-dasharray="4.170000 10.420000" cx="2343.17" cy="1512.76" r="377.93" />
            <circle id="f10" fill="none" stroke="black" stroke-width="2.08" stroke-miterlimit="2.61313"
                stroke-dasharray="4.170000 10.420000" cx="2343.17" cy="1890.68" r="377.93" />
            <circle id="f11" fill="none" stroke="black" stroke-width="2.08" stroke-miterlimit="2.61313"
                stroke-dasharray="4.170000 10.420000" cx="2343.17" cy="2268.61" r="377.93" />
            <circle id="f12" fill="none" stroke="black" stroke-width="2.08" stroke-miterlimit="2.61313"
                stroke-dasharray="4.170000 10.420000" cx="2015.8" cy="2457.57" r="377.93" />
            <circle id="f13" fill="none" stroke="black" stroke-width="2.08" stroke-miterlimit="2.61313"
                stroke-dasharray="4.170000 10.420000" cx="1688.44" cy="2646.54" r="377.93" />
            <circle id="f14" fill="none" stroke="black" stroke-width="2.08" stroke-miterlimit="2.61313"
                stroke-dasharray="4.170000 10.420000" cx="1361.07" cy="2457.57" r="377.93" />
            <circle id="f15" fill="none" stroke="black" stroke-width="2.08" stroke-miterlimit="2.61313"
                stroke-dasharray="4.170000 10.420000" cx="1033.7" cy="2268.61" r="377.93" />
            <circle id="f16" fill="none" stroke="black" stroke-width="2.08" stroke-miterlimit="2.61313"
                stroke-dasharray="4.170000 10.420000" cx="1033.7" cy="1890.68" r="377.93" />
            <circle id="f17" fill="none" stroke="black" stroke-width="2.08" stroke-miterlimit="2.61313"
                stroke-dasharray="4.170000 10.420000" cx="1033.7" cy="1512.75" r="377.93" />
            <circle id="f18" fill="none" stroke="black" stroke-width="2.08" stroke-miterlimit="2.61313"
                stroke-dasharray="4.170000 10.420000" cx="1361.07" cy="1323.79" r="377.93" />
            <circle id="f19" fill="none" stroke="black" stroke-width="2.08" stroke-miterlimit="2.61313"
                stroke-dasharray="4.170000 10.420000" cx="1688.44" cy="1134.83" r="377.93" />
            <circle id="f20" fill="none" stroke="black" stroke-width="2.08" stroke-miterlimit="2.61313"
                stroke-dasharray="4.170000 10.420000" cx="2343.17" cy="1134.83" r="377.93" />
            <circle id="f21" fill="none" stroke="black" stroke-width="2.08" stroke-miterlimit="2.61313"
                stroke-dasharray="4.170000 10.420000" cx="2670.54" cy="1323.79" r="377.93" />
            <circle id="f22" fill="none" stroke="black" stroke-width="2.08" stroke-miterlimit="2.61313"
                stroke-dasharray="4.170000 10.420000" cx="2670.54" cy="1701.72" r="377.93" />
            <circle id="f23" fill="none" stroke="black" stroke-width="2.08" stroke-miterlimit="2.61313"
                stroke-dasharray="4.170000 10.420000" cx="2670.54" cy="2079.65" r="377.93" />
            <circle id="f24" fill="none" stroke="black" stroke-width="2.08" stroke-miterlimit="2.61313"
                stroke-dasharray="4.170000 10.420000" cx="2670.54" cy="2457.58" r="377.93" />
            <circle id="f25" fill="none" stroke="black" stroke-width="2.08" stroke-miterlimit="2.61313"
                stroke-dasharray="4.170000 10.420000" cx="2343.17" cy="2646.54" r="377.93" />
            <circle id="f26" fill="none" stroke="black" stroke-width="2.08" stroke-miterlimit="2.61313"
                stroke-dasharray="4.170000 10.420000" cx="2015.8" cy="2835.5" r="377.93" />
            <circle id="f27" fill="none" stroke="black" stroke-width="2.08" stroke-miterlimit="2.61313"
                stroke-dasharray="4.170000 10.420000" cx="1688.44" cy="3024.46" r="377.93" />
            <circle id="f28" fill="none" stroke="black" stroke-width="2.08" stroke-miterlimit="2.61313"
                stroke-dasharray="4.170000 10.420000" cx="1361.07" cy="2835.5" r="377.93" />
            <circle id="f29" fill="none" stroke="black" stroke-width="2.08" stroke-miterlimit="2.61313"
                stroke-dasharray="4.170000 10.420000" cx="1033.7" cy="2646.53" r="377.93" />
            <circle id="f30" fill="none" stroke="black" stroke-width="2.08" stroke-miterlimit="2.61313"
                stroke-dasharray="4.170000 10.420000" cx="706.34" cy="2457.57" r="377.93" />
            <circle id="f31" fill="none" stroke="black" stroke-width="2.08" stroke-miterlimit="2.61313"
                stroke-dasharray="4.170000 10.420000" cx="706.34" cy="2079.64" r="377.93" />
            <circle id="f32" fill="none" stroke="black" stroke-width="2.08" stroke-miterlimit="2.61313"
                stroke-dasharray="4.170000 10.420000" cx="706.34" cy="1701.71" r="377.93" />
            <circle id="f33" fill="none" stroke="black" stroke-width="2.08" stroke-miterlimit="2.61313"
                stroke-dasharray="4.170000 10.420000" cx="706.34" cy="1323.79" r="377.93" />
            <circle id="f34" fill="none" stroke="black" stroke-width="2.08" stroke-miterlimit="2.61313"
                stroke-dasharray="4.170000 10.420000" cx="1033.7" cy="1134.82" r="377.93" />
            <circle id="f35" fill="none" stroke="black" stroke-width="2.08" stroke-miterlimit="2.61313"
                stroke-dasharray="4.170000 10.420000" cx="1361.07" cy="945.86" r="377.93" />
            <circle id="f36" fill="none" stroke="black" stroke-width="2.08" stroke-miterlimit="2.61313"
                stroke-dasharray="4.170000 10.420000" cx="1688.44" cy="756.9" r="377.93" />
            <circle id="f37" fill="none" stroke="black" stroke-width="2.08" stroke-miterlimit="2.61313"
                stroke-dasharray="4.170000 10.420000" cx="2015.8" cy="945.86" r="377.93" />
            <circle id="f38" fill="none" stroke="black" stroke-width="2.08" stroke-miterlimit="2.61313"
                stroke-dasharray="4.170000 10.420000" cx="2343.17" cy="756.9" r="377.93" />
            <circle id="f39" fill="none" stroke="black" stroke-width="2.08" stroke-miterlimit="2.61313"
                stroke-dasharray="4.170000 10.420000" cx="2670.54" cy="945.86" r="377.93" />
            <circle id="f40" fill="none" stroke="black" stroke-width="2.08" stroke-miterlimit="2.61313"
                stroke-dasharray="4.170000 10.420000" cx="2997.91" cy="1134.83" r="377.93" />
            <circle id="f41" fill="none" stroke="black" stroke-width="2.08" stroke-miterlimit="2.61313"
                stroke-dasharray="4.170000 10.420000" cx="2997.91" cy="1512.76" r="377.93" />
            <circle id="f42" fill="none" stroke="black" stroke-width="2.08" stroke-miterlimit="2.61313"
                stroke-dasharray="4.170000 10.420000" cx="2997.91" cy="1890.69" r="377.93" />
            <circle id="f43" fill="none" stroke="black" stroke-width="2.08" stroke-miterlimit="2.61313"
                stroke-dasharray="4.170000 10.420000" cx="2997.91" cy="2268.61" r="377.93" />
            <circle id="f44" fill="none" stroke="black" stroke-width="2.08" stroke-miterlimit="2.61313"
                stroke-dasharray="4.170000 10.420000" cx="2997.91" cy="2646.54" r="377.93" />
            <circle id="f45" fill="none" stroke="black" stroke-width="2.08" stroke-miterlimit="2.61313"
                stroke-dasharray="4.170000 10.420000" cx="2670.54" cy="2835.5" r="377.93" />
            <circle id="f46" fill="none" stroke="black" stroke-width="2.08" stroke-miterlimit="2.61313"
                stroke-dasharray="4.170000 10.420000" cx="2343.17" cy="3024.47" r="377.93" />
            <circle id="f47" fill="none" stroke="black" stroke-width="2.08" stroke-miterlimit="2.61313"
                stroke-dasharray="4.170000 10.420000" cx="2015.8" cy="3213.43" r="377.93" />
            <circle id="f48" fill="none" stroke="black" stroke-width="2.08" stroke-miterlimit="2.61313"
                stroke-dasharray="4.170000 10.420000" cx="1688.44" cy="3402.39" r="377.93" />
            <circle id="f49" fill="none" stroke="black" stroke-width="2.08" stroke-miterlimit="2.61313"
                stroke-dasharray="4.170000 10.420000" cx="1361.07" cy="3213.43" r="377.93" />
            <circle id="f50" fill="none" stroke="black" stroke-width="2.08" stroke-miterlimit="2.61313"
                stroke-dasharray="4.170000 10.420000" cx="1033.7" cy="3024.46" r="377.93" />
            <circle id="f51" fill="none" stroke="black" stroke-width="2.08" stroke-miterlimit="2.61313"
                stroke-dasharray="4.170000 10.420000" cx="706.34" cy="2835.5" r="377.93" />
            <circle id="f52" fill="none" stroke="black" stroke-width="2.08" stroke-miterlimit="2.61313"
                stroke-dasharray="4.170000 10.420000" cx="378.97" cy="2646.53" r="377.93" />
            <circle id="f53" fill="none" stroke="black" stroke-width="2.08" stroke-miterlimit="2.61313"
                stroke-dasharray="4.170000 10.420000" cx="378.97" cy="2268.6" r="377.93" />
            <circle id="f54" fill="none" stroke="black" stroke-width="2.08" stroke-miterlimit="2.61313"
                stroke-dasharray="4.170000 10.420000" cx="378.97" cy="1890.68" r="377.93" />
            <circle id="f55" fill="none" stroke="black" stroke-width="2.08" stroke-miterlimit="2.61313"
                stroke-dasharray="4.170000 10.420000" cx="378.97" cy="1512.75" r="377.93" />
            <circle id="f56" fill="none" stroke="black" stroke-width="2.08" stroke-miterlimit="2.61313"
                stroke-dasharray="4.170000 10.420000" cx="378.97" cy="1134.82" r="377.93" />
            <circle id="f57" fill="none" stroke="black" stroke-width="2.08" stroke-miterlimit="2.61313"
                stroke-dasharray="4.170000 10.420000" cx="706.34" cy="945.86" r="377.93" />
            <circle id="f58" fill="none" stroke="black" stroke-width="2.08" stroke-miterlimit="2.61313"
                stroke-dasharray="4.170000 10.420000" cx="1033.7" cy="756.89" r="377.93" />
            <circle id="f59" fill="none" stroke="black" stroke-width="2.08" stroke-miterlimit="2.61313"
                stroke-dasharray="4.170000 10.420000" cx="1361.07" cy="567.93" r="377.93" />
            <circle id="f60" fill="none" stroke="black" stroke-width="2.08" stroke-miterlimit="2.61313"
                stroke-dasharray="4.170000 10.420000" cx="1688.44" cy="378.97" r="377.93" />
            <circle id="f61" fill="none" stroke="black" stroke-width="2.08" stroke-miterlimit="2.61313"
                stroke-dasharray="4.170000 10.420000" cx="2015.8" cy="567.93" r="377.93" />
        </g>
        <g id="metatron_cube">
            <circle id="m1" fill="none" stroke="black" stroke-width="2.08" stroke-miterlimit="2.61313" cx="1688.44"
                cy="1890.68" r="377.93" />
            <circle id="m2" fill="none" stroke="black" stroke-width="2.08" stroke-miterlimit="2.61313" cx="1688.44"
                cy="1134.83" r="377.93" />
            <circle id="m3" fill="none" stroke="black" stroke-width="2.08" stroke-miterlimit="2.61313" cx="2343.17"
                cy="1512.76" r="377.93" />
            <circle id="m4" fill="none" stroke="black" stroke-width="2.08" stroke-miterlimit="2.61313" cx="2343.17"
                cy="2268.61" r="377.93" />
            <circle id="m5" fill="none" stroke="black" stroke-width="2.08" stroke-miterlimit="2.61313" cx="1688.44"
                cy="2646.54" r="377.93" />
            <circle id="m6" fill="none" stroke="black" stroke-width="2.08" stroke-miterlimit="2.61313" cx="1033.7"
                cy="2268.61" r="377.93" />
            <circle id="m7" fill="none" stroke="black" stroke-width="2.08" stroke-miterlimit="2.61313" cx="1033.7"
                cy="1512.75" r="377.93" />
            <circle id="m8" fill="none" stroke="black" stroke-width="2.08" stroke-miterlimit="2.61313" cx="1688.44"
                cy="378.97" r="377.93" />
            <circle id="m9" fill="none" stroke="black" stroke-width="2.08" stroke-miterlimit="2.61313" cx="2997.91"
                cy="1134.83" r="377.93" />
            <circle id="m10" fill="none" stroke="black" stroke-width="2.08" stroke-miterlimit="2.61313" cx="2997.91"
                cy="2646.54" r="377.93" />
            <circle id="m11" fill="none" stroke="black" stroke-width="2.08" stroke-miterlimit="2.61313" cx="1688.44"
                cy="3402.39" r="377.93" />
            <circle id="m12" fill="none" stroke="black" stroke-width="2.08" stroke-miterlimit="2.61313" cx="378.97"
                cy="2646.53" r="377.93" />
            <circle id="m13" fill="none" stroke="black" stroke-width="2.08" stroke-miterlimit="2.61313" cx="378.97"
                cy="1134.82" r="377.93" />
        </g>
        <g id="fruit_of_life">
            <path id="fll" fill="none" stroke="black" stroke-width="0.9" stroke-miterlimit="2.61313"
                d="M1739 1701.72c0,-68.49 -18.22,-132.73 -50.08,-188.13 -0.16,-0.28 -0.32,-0.56 -0.48,-0.84 -0.04,0.07 -0.08,0.13 -0.11,0.19 -32.09,55.55 -50.45,120.02 -50.45,188.78 0,68.49 18.22,132.72 50.07,188.12 0.16,0.28 0.33,0.56 0.49,0.84 0.03,-0.06 0.07,-0.13 0.11,-0.19 32.09,-55.54 50.45,-120.02 50.45,-188.77z" />
            <path id="fl2" fill="none" stroke="black" stroke-width="0.9" stroke-miterlimit="2.61313"
                d="M1688.55 1890.49c-0.04,0.06 -0.08,0.13 -0.11,0.19 0.03,-0.06 0.07,-0.13 0.11,-0.19zm327.25 -188.77c-139.71,0 -261.72,75.82 -327.13,188.56 -0.04,0.07 -0.08,0.14 -0.12,0.21 -0.04,0.07 -0.08,0.13 -0.11,0.19 139.8,0 261.88,-75.91 327.25,-188.77 0.04,-0.07 0.08,-0.13 0.11,-0.19z" />
            <path id="fl3" fill="none" stroke="black" stroke-width="0.9" stroke-miterlimit="2.61313"
                d="M2015.69 1701.91c-65.37,112.86 -187.45,188.77 -327.25,188.77 139.81,0 261.88,-75.92 327.25,-188.77zm-0.37 376.9c-65.47,-112.5 -187.34,-188.13 -326.88,-188.13 0.16,0.28 0.32,0.56 0.48,0.84 65.47,112.5 187.34,188.13 326.88,188.13 -0.16,-0.28 -0.32,-0.56 -0.48,-0.84z" />
            <path id="fl4" fill="none" stroke="black" stroke-width="0.9" stroke-miterlimit="2.61313"
                d="M1688.92 1891.52c-0.16,-0.28 -0.32,-0.56 -0.48,-0.84 0.16,0.28 0.32,0.56 0.48,0.84zm50.08 188.12c0,-68.47 -18.21,-132.68 -50.05,-188.07 -0.01,-0.02 -0.02,-0.03 -0.03,-0.05 -0.16,-0.28 -0.32,-0.56 -0.48,-0.84 -0.04,0.06 -0.08,0.13 -0.11,0.19 -32.09,55.55 -50.45,120.02 -50.45,188.78 0,68.49 18.22,132.72 50.07,188.12 0.16,0.28 0.33,0.56 0.49,0.84 0.03,-0.06 0.07,-0.13 0.11,-0.19 32.09,-55.55 50.45,-120.02 50.45,-188.78z" />
            <path id="fl5" fill="none" stroke="black" stroke-width="0.9" stroke-miterlimit="2.61313"
                d="M1965.24 1512.76c0,68.49 18.22,132.72 50.08,188.12 0.16,0.28 0.32,0.56 0.48,0.84 0.04,-0.06 0.08,-0.13 0.11,-0.19 32.09,-55.55 50.46,-120.02 50.46,-188.78 0,-68.49 -18.22,-132.72 -50.08,-188.12 -0.16,-0.28 -0.32,-0.56 -0.48,-0.84 -0.04,0.06 -0.08,0.13 -0.12,0.19 -32.08,55.55 -50.45,120.02 -50.45,188.78z" />
            <path id="fl6" fill="none" stroke="black" stroke-width="0.9" stroke-miterlimit="2.61313"
                d="M1688.44 1512.75c0.16,0.28 0.32,0.56 0.48,0.84 -0.16,-0.28 -0.32,-0.56 -0.48,-0.84zm326.88 188.13c-65.47,-112.5 -187.34,-188.13 -326.88,-188.13 0.16,0.28 0.32,0.56 0.48,0.84 65.47,112.5 187.34,188.13 326.88,188.13 -0.16,-0.28 -0.32,-0.56 -0.48,-0.84z" />
            <path id="fl7" fill="none" stroke="black" stroke-width="0.9" stroke-miterlimit="2.61313"
                d="M2015.91 1701.53c-0.03,0.06 -0.07,0.13 -0.1,0.19 0.03,-0.07 0.07,-0.13 0.1,-0.19zm327.26 -188.77c-139.72,0 -261.73,75.81 -327.13,188.55 -0.04,0.07 -0.08,0.15 -0.13,0.22 -0.03,0.06 -0.07,0.13 -0.11,0.19 139.81,0 261.89,-75.92 327.26,-188.78 0.04,-0.06 0.07,-0.12 0.11,-0.18z" />
            <path id="fl8" fill="none" stroke="black" stroke-width="0.9" stroke-miterlimit="2.61313"
                d="M2343.06 1512.94c-65.37,112.86 -187.45,188.78 -327.26,188.78 139.81,0 261.89,-75.92 327.26,-188.78zm-0.37 376.9c-65.47,-112.5 -187.35,-188.12 -326.88,-188.12 0.16,0.28 0.32,0.56 0.48,0.84 65.46,112.5 187.34,188.12 326.88,188.12 -0.16,-0.28 -0.32,-0.56 -0.48,-0.84z" />
            <path id="fl9" fill="none" stroke="black" stroke-width="0.9" stroke-miterlimit="2.61313"
                d="M2016.29 1702.56c-0.16,-0.28 -0.32,-0.56 -0.49,-0.84 0.17,0.28 0.33,0.56 0.49,0.84zm-0.97 376.25c0.16,0.28 0.32,0.56 0.49,0.83 -0.17,-0.28 -0.33,-0.55 -0.49,-0.83zm0.59 0.65c32.09,-55.55 50.46,-120.02 50.46,-188.78 0,-68.47 -18.21,-132.69 -50.05,-188.07 -0.01,-0.02 -0.02,-0.04 -0.03,-0.05 -0.16,-0.28 -0.32,-0.56 -0.48,-0.84 -0.04,0.06 -0.08,0.12 -0.12,0.19 -32.08,55.54 -50.45,120.01 -50.45,188.77 0,68.47 18.21,132.69 50.05,188.08 0.01,0.01 0.02,0.03 0.03,0.05 0.16,0.28 0.32,0.56 0.48,0.84 0.04,-0.07 0.08,-0.13 0.11,-0.19z" />
            <path id="fl10" fill="none" stroke="black" stroke-width="0.9" stroke-miterlimit="2.61313"
                d="M2066.37 2268.61c0,-68.49 -18.22,-132.73 -50.08,-188.12 -0.16,-0.28 -0.32,-0.56 -0.48,-0.85 -0.04,0.07 -0.08,0.13 -0.12,0.19 -32.08,55.55 -50.45,120.02 -50.45,188.78 0,68.49 18.22,132.73 50.08,188.12 0.16,0.28 0.32,0.56 0.48,0.84 0.04,-0.06 0.08,-0.12 0.11,-0.19 32.09,-55.54 50.46,-120.01 50.46,-188.77z" />
            <path id="fl11" fill="none" stroke="black" stroke-width="0.9" stroke-miterlimit="2.61313"
                d="M2015.69 2079.83c0.04,-0.06 0.08,-0.12 0.11,-0.18 -0.03,0.06 -0.07,0.12 -0.11,0.18zm-327.25 188.78c139.72,0 261.73,-75.82 327.13,-188.56 0.04,-0.07 0.08,-0.14 0.12,-0.22 0.04,-0.06 0.08,-0.12 0.11,-0.18 -0.22,0 -0.45,0 -0.67,0 -139.44,0.24 -261.16,76 -326.46,188.55 -0.04,0.08 -0.08,0.15 -0.12,0.22 -0.04,0.06 -0.08,0.13 -0.11,0.19zm327.13 -188.56c0.04,-0.07 0.08,-0.14 0.12,-0.22 -0.04,0.08 -0.08,0.15 -0.12,0.22z" />
            <path id="fl12" fill="none" stroke="black" stroke-width="0.9" stroke-miterlimit="2.61313"
                d="M2015.8 2079.65c0.17,0.28 0.33,0.56 0.49,0.84 -0.16,-0.29 -0.32,-0.57 -0.49,-0.84zm0.49 0.84c65.46,112.5 187.34,188.12 326.88,188.12 -0.16,-0.28 -0.32,-0.56 -0.48,-0.84 -65.47,-112.5 -187.35,-188.12 -326.88,-188.13 0.16,0.29 0.32,0.57 0.48,0.85z" />
            <path id="fl13" fill="none" stroke="black" stroke-width="0.9" stroke-miterlimit="2.61313"
                d="M2015.91 2079.46c-0.03,0.06 -0.07,0.12 -0.1,0.18 0.03,-0.06 0.07,-0.12 0.1,-0.18zm0.57 0.19c139.52,-0.25 261.31,-76.1 326.58,-188.78 0.04,-0.06 0.07,-0.12 0.11,-0.19 -0.22,0 -0.45,0 -0.67,0 -139.44,0.25 -261.16,76 -326.46,188.56 -0.04,0.07 -0.08,0.14 -0.13,0.22 -0.03,0.06 -0.07,0.12 -0.1,0.18 0.22,0 0.44,0 0.67,0.01z" />
            <path id="fl14" fill="none" stroke="black" stroke-width="0.9" stroke-miterlimit="2.61313"
                d="M2342.69 1889.84c0.16,0.28 0.32,0.56 0.48,0.84 -0.16,-0.28 -0.32,-0.56 -0.48,-0.84zm-50.08 -188.12c0,68.47 18.21,132.69 50.05,188.07 0.01,0.02 0.02,0.04 0.03,0.05 0.16,0.28 0.32,0.56 0.48,0.84 0.04,-0.06 0.07,-0.12 0.11,-0.19 32.09,-55.54 50.45,-120.01 50.45,-188.77 0,-68.49 -18.22,-132.73 -50.07,-188.12 -0.17,-0.28 -0.33,-0.56 -0.49,-0.85 -0.03,0.07 -0.07,0.13 -0.11,0.19 -32.09,55.55 -50.45,120.02 -50.45,188.78z" />
            <path id="fl15" fill="none" stroke="black" stroke-width="0.9" stroke-miterlimit="2.61313"
                d="M2342.69 2267.77c0.16,0.28 0.32,0.56 0.48,0.84 -0.16,-0.28 -0.32,-0.56 -0.48,-0.84zm0.37 -376.9c-32.09,55.55 -50.45,120.02 -50.45,188.78 0,68.47 18.21,132.69 50.05,188.07 0.01,0.02 0.02,0.03 0.03,0.05 0.16,0.28 0.32,0.56 0.48,0.84 0.04,-0.06 0.07,-0.12 0.11,-0.19 32.09,-55.54 50.45,-120.01 50.45,-188.77 0,-68.49 -18.22,-132.73 -50.07,-188.13 -0.17,-0.28 -0.33,-0.56 -0.49,-0.84 -0.03,0.07 -0.07,0.13 -0.11,0.19z" />
            <path id="fl16" fill="none" stroke="black" stroke-width="0.9" stroke-miterlimit="2.61313"
                d="M2343.06 2268.8c-32.09,55.55 -50.45,120.02 -50.45,188.78 0,68.49 18.22,132.72 50.08,188.12 0.16,0.28 0.32,0.56 0.48,0.84 0.04,-0.06 0.07,-0.13 0.11,-0.19 32.09,-55.55 50.45,-120.02 50.45,-188.78 0,-68.49 -18.22,-132.72 -50.07,-188.12 -0.17,-0.28 -0.33,-0.56 -0.49,-0.84 -0.03,0.06 -0.07,0.13 -0.11,0.19z" />
            <path id="fl17" fill="none" stroke="black" stroke-width="0.9" stroke-miterlimit="2.61313"
                d="M2343.06 2268.8c0.04,-0.06 0.08,-0.13 0.11,-0.19 -0.04,0.06 -0.07,0.13 -0.11,0.19zm-327.26 188.77c139.72,0 261.73,-75.82 327.14,-188.55 0.04,-0.08 0.08,-0.15 0.12,-0.22 0.04,-0.06 0.08,-0.13 0.11,-0.19 -0.22,0 -0.45,0 -0.67,0 -139.44,0.25 -261.16,76 -326.46,188.56 -0.04,0.07 -0.08,0.14 -0.13,0.21 -0.03,0.07 -0.07,0.13 -0.11,0.19zm327.14 -188.55c0.04,-0.08 0.08,-0.15 0.12,-0.22 -0.04,0.07 -0.08,0.14 -0.12,0.22z" />
            <path id="fl18" fill="none" stroke="black" stroke-width="0.9" stroke-miterlimit="2.61313"
                d="M2343.17 2268.61c0.16,0.28 0.32,0.56 0.49,0.84 -0.16,-0.28 -0.33,-0.56 -0.49,-0.84zm0.49 0.84c65.46,112.5 187.34,188.13 326.88,188.13 -0.16,-0.28 -0.33,-0.56 -0.49,-0.84 -65.46,-112.5 -187.34,-188.13 -326.88,-188.13 0.16,0.28 0.32,0.56 0.49,0.84z" />
            <path id="fl19" fill="none" stroke="black" stroke-width="0.9" stroke-miterlimit="2.61313"
                d="M2670.05 2456.74c0.16,0.28 0.33,0.56 0.49,0.83 -0.16,-0.28 -0.33,-0.55 -0.49,-0.83zm-50.07 -188.13c0,68.47 18.21,132.69 50.04,188.08 0.01,0.01 0.02,0.03 0.03,0.05 0.16,0.28 0.33,0.56 0.49,0.84 0.03,-0.07 0.07,-0.13 0.11,-0.19 32.09,-55.55 50.45,-120.02 50.45,-188.78 0,-68.49 -18.22,-132.72 -50.08,-188.12 -0.16,-0.28 -0.32,-0.56 -0.48,-0.84 -0.04,0.06 -0.07,0.12 -0.11,0.19 -32.09,55.54 -50.45,120.01 -50.45,188.77z" />
            <path id="fl20" fill="none" stroke="black" stroke-width="0.9" stroke-miterlimit="2.61313"
                d="M2671.02 2080.49c65.47,112.5 187.34,188.12 326.89,188.12 -65.35,-112.96 -187.49,-188.96 -327.37,-188.96 0.16,0.28 0.32,0.56 0.48,0.84z" />
            <path id="fl21" fill="none" stroke="black" stroke-width="0.9" stroke-miterlimit="2.61313"
                d="M2671.21 2079.65c139.61,-0.25 261.46,-76.18 326.7,-188.96 -139.81,0 -261.89,75.91 -327.26,188.77 -0.04,0.06 -0.08,0.12 -0.11,0.19 0.22,0 0.45,0 0.67,0z" />
            <path id="fl22" fill="none" stroke="black" stroke-width="0.9" stroke-miterlimit="2.61313"
                d="M2670.65 2079.46c32.09,-55.55 50.45,-120.02 50.45,-188.78 0,-68.49 -18.22,-132.72 -50.08,-188.12 -0.16,-0.28 -0.32,-0.56 -0.48,-0.84 -0.04,0.06 -0.07,0.13 -0.11,0.19 -32.09,55.55 -50.45,120.02 -50.45,188.78 0,68.49 18.22,132.72 50.07,188.12 0.16,0.28 0.33,0.56 0.49,0.84 0.03,-0.06 0.07,-0.13 0.11,-0.19z" />
            <path id="fl23" fill="none" stroke="black" stroke-width="0.9" stroke-miterlimit="2.61313"
                d="M2671.02 1702.56c65.47,112.5 187.34,188.13 326.89,188.12 -65.35,-112.96 -187.49,-188.96 -327.37,-188.96 0.16,0.28 0.32,0.56 0.48,0.84z" />
            <path id="fl24" fill="none" stroke="black" stroke-width="0.9" stroke-miterlimit="2.61313"
                d="M2671.21 1701.72c139.61,-0.24 261.46,-76.18 326.7,-188.96 -139.81,0 -261.89,75.91 -327.26,188.77 -0.04,0.06 -0.08,0.13 -0.11,0.19 0.22,0 0.45,0 0.67,0z" />
            <path id="fl25" fill="none" stroke="black" stroke-width="0.9" stroke-miterlimit="2.61313"
                d="M2670.65 1701.53c32.09,-55.54 50.45,-120.02 50.45,-188.77 0,-68.49 -18.22,-132.73 -50.08,-188.13 -0.16,-0.28 -0.32,-0.56 -0.48,-0.84 -0.04,0.07 -0.07,0.13 -0.11,0.19 -32.09,55.55 -50.45,120.02 -50.45,188.78 0,68.49 18.22,132.72 50.07,188.12 0.16,0.28 0.33,0.56 0.49,0.84 0.03,-0.06 0.07,-0.12 0.11,-0.19z" />
            <path id="fl26" fill="none" stroke="black" stroke-width="0.9" stroke-miterlimit="2.61313"
                d="M2671.02 1324.63c65.47,112.5 187.34,188.13 326.89,188.13 -65.35,-112.97 -187.49,-188.97 -327.37,-188.97 0.16,0.28 0.32,0.56 0.48,0.84z" />
            <path id="fl27" fill="none" stroke="black" stroke-width="0.9" stroke-miterlimit="2.61313"
                d="M2671.21 1323.79c139.61,-0.24 261.46,-76.18 326.7,-188.96 -139.81,0 -261.89,75.91 -327.26,188.77 -0.04,0.07 -0.08,0.13 -0.11,0.19 0.22,0 0.45,0 0.67,0z" />
            <path id="fl28" fill="none" stroke="black" stroke-width="0.9" stroke-miterlimit="2.61313"
                d="M2670.65 1323.6c32.09,-55.54 50.45,-120.01 50.45,-188.77 0,-68.84 -18.4,-133.38 -50.56,-188.97 -0.04,0.07 -0.07,0.13 -0.11,0.19 -32.09,55.55 -50.45,120.02 -50.45,188.78 0,68.49 18.22,132.73 50.07,188.12 0.16,0.28 0.33,0.56 0.49,0.84 0.03,-0.06 0.07,-0.12 0.11,-0.19z" />
            <path id="fl29" fill="none" stroke="black" stroke-width="0.9" stroke-miterlimit="2.61313"
                d="M2670.05 1322.95c-65.46,-112.5 -187.34,-188.12 -326.88,-188.12 0.16,0.28 0.33,0.56 0.49,0.84 65.46,112.5 187.34,188.12 326.88,188.12 -0.16,-0.28 -0.33,-0.56 -0.49,-0.84z" />
            <path id="fl30" fill="none" stroke="black" stroke-width="0.9" stroke-miterlimit="2.61313"
                d="M2670.43 1323.98c0.04,-0.06 0.07,-0.12 0.11,-0.19 -0.04,0.07 -0.07,0.13 -0.11,0.19zm-0.57 -0.19c-139.52,0.25 -261.31,76.1 -326.58,188.78 -0.04,0.06 -0.07,0.12 -0.11,0.19 139.72,0 261.73,-75.82 327.13,-188.56 0.05,-0.07 0.09,-0.15 0.13,-0.22 0.04,-0.06 0.07,-0.12 0.11,-0.19 -0.23,0 -0.45,0 -0.68,0z" />
            <path id="fl31" fill="none" stroke="black" stroke-width="0.9" stroke-miterlimit="2.61313"
                d="M2343.17 1512.75c0.16,0.29 0.32,0.57 0.49,0.85 -0.17,-0.28 -0.33,-0.56 -0.49,-0.85zm326.88 188.13c-65.46,-112.5 -187.34,-188.12 -326.88,-188.13 0.16,0.28 0.33,0.56 0.49,0.85 65.46,112.49 187.34,188.12 326.88,188.12 -0.16,-0.28 -0.33,-0.56 -0.49,-0.84z" />
            <path id="fl32" fill="none" stroke="black" stroke-width="0.9" stroke-miterlimit="2.61313"
                d="M2343.28 1890.49c-0.04,0.07 -0.07,0.13 -0.11,0.19 0.04,-0.06 0.07,-0.12 0.11,-0.19zm327.15 -188.58c0.04,-0.06 0.07,-0.13 0.11,-0.19 -0.04,0.06 -0.07,0.13 -0.11,0.19zm-0.57 -0.19c-139.43,0.24 -261.16,76 -326.45,188.56 -0.05,0.07 -0.09,0.14 -0.13,0.21 -0.04,0.07 -0.07,0.13 -0.11,0.19 139.72,0 261.73,-75.82 327.13,-188.55 0.05,-0.08 0.09,-0.15 0.13,-0.22 0.04,-0.06 0.07,-0.13 0.11,-0.19 -0.23,0 -0.45,0 -0.68,0z" />
            <path id="fl33" fill="none" stroke="black" stroke-width="0.9" stroke-miterlimit="2.61313"
                d="M2670.2 1702.31c-65.43,112.64 -187.39,188.37 -327.03,188.37 139.64,0 261.6,-75.73 327.03,-188.37zm-0.15 376.5c-65.46,-112.5 -187.34,-188.13 -326.88,-188.13 0.16,0.28 0.32,0.56 0.49,0.84 65.46,112.5 187.34,188.13 326.88,188.13 -0.16,-0.28 -0.33,-0.56 -0.49,-0.84z" />
            <path id="fl34" fill="none" stroke="black" stroke-width="0.9" stroke-miterlimit="2.61313"
                d="M2343.28 2268.42c-0.04,0.07 -0.07,0.13 -0.11,0.19 0.04,-0.06 0.07,-0.13 0.11,-0.19zm327.15 -188.58c0.04,-0.07 0.07,-0.13 0.11,-0.19 -0.04,0.06 -0.07,0.12 -0.11,0.19zm-0.57 -0.19c-139.43,0.24 -261.16,76 -326.45,188.56 -0.05,0.07 -0.09,0.14 -0.13,0.21 -0.04,0.07 -0.07,0.13 -0.11,0.19 0.23,0 0.45,0 0.68,0 139.43,-0.24 261.16,-76 326.45,-188.56 0.05,-0.07 0.09,-0.14 0.13,-0.21 0.04,-0.07 0.07,-0.13 0.11,-0.19 -0.23,0 -0.45,0 -0.68,0zm0.44 0.4c0.05,-0.07 0.09,-0.14 0.13,-0.21 -0.04,0.07 -0.08,0.14 -0.13,0.21z" />
            <path id="fl35" fill="none" stroke="black" stroke-width="0.9" stroke-miterlimit="2.61313"
                d="M2343.66 1135.67c-0.16,-0.28 -0.33,-0.56 -0.49,-0.84 0.16,0.28 0.32,0.56 0.49,0.84zm-0.38 376.9c32.09,-55.55 50.45,-120.02 50.45,-188.78 0,-68.47 -18.21,-132.69 -50.04,-188.07 -0.01,-0.02 -0.02,-0.04 -0.03,-0.05 -0.16,-0.28 -0.33,-0.56 -0.49,-0.84 -0.03,0.06 -0.07,0.12 -0.11,0.19 -32.09,55.54 -50.45,120.01 -50.45,188.77 0,68.49 18.22,132.73 50.08,188.13 0.16,0.27 0.32,0.55 0.48,0.84 0.04,-0.07 0.07,-0.13 0.11,-0.19z" />
            <path id="fl36" fill="none" stroke="black" stroke-width="0.9" stroke-miterlimit="2.61313"
                d="M2670.43 946.05c0.04,-0.06 0.07,-0.12 0.11,-0.19 -0.04,0.07 -0.07,0.13 -0.11,0.19zm-326.58 188.78c139.43,-0.25 261.16,-76 326.45,-188.56 0.05,-0.07 0.09,-0.14 0.13,-0.22 0.04,-0.06 0.07,-0.12 0.11,-0.19 -139.81,0 -261.89,75.92 -327.26,188.78 -0.04,0.06 -0.07,0.12 -0.11,0.19 0.23,0 0.45,0 0.68,0z" />
            <path id="fl37" fill="none" stroke="black" stroke-width="0.9" stroke-miterlimit="2.61313"
                d="M2393.73 945.86c0,-68.83 -18.4,-133.37 -50.56,-188.96 -0.03,0.06 -0.07,0.13 -0.11,0.19 -32.09,55.54 -50.45,120.02 -50.45,188.77 0,68.49 18.22,132.73 50.08,188.13 0.16,0.28 0.32,0.56 0.48,0.84 0.04,-0.07 0.07,-0.13 0.11,-0.19 32.09,-55.55 50.45,-120.02 50.45,-188.78z" />
            <path id="fl38" fill="none" stroke="black" stroke-width="0.9" stroke-miterlimit="2.61313"
                d="M2342.69 1133.99c-65.47,-112.5 -187.35,-188.13 -326.88,-188.13 0.16,0.28 0.32,0.56 0.48,0.84 65.46,112.5 187.34,188.13 326.88,188.13 -0.16,-0.28 -0.32,-0.56 -0.48,-0.84z" />
            <path id="fl39" fill="none" stroke="black" stroke-width="0.9" stroke-miterlimit="2.61313"
                d="M2343.06 1135.02c0.04,-0.07 0.08,-0.13 0.11,-0.19 -0.04,0.06 -0.07,0.12 -0.11,0.19zm-0.56 -0.19c-139.53,0.24 -261.32,76.09 -326.59,188.77 -0.03,0.06 -0.07,0.13 -0.11,0.19 139.72,0 261.73,-75.82 327.14,-188.56 0.04,-0.07 0.08,-0.14 0.12,-0.21 0.04,-0.07 0.08,-0.13 0.11,-0.19 -0.22,0 -0.45,0 -0.67,0z" />
            <path id="fl40" fill="none" stroke="black" stroke-width="0.9" stroke-miterlimit="2.61313"
                d="M2015.81 1323.79c0.16,0.28 0.32,0.56 0.48,0.84 -0.16,-0.28 -0.32,-0.56 -0.48,-0.84zm326.88 188.13c-65.47,-112.5 -187.35,-188.13 -326.88,-188.13 0.16,0.28 0.32,0.56 0.48,0.84 65.46,112.5 187.34,188.13 326.88,188.13 -0.16,-0.29 -0.32,-0.57 -0.48,-0.84z" />
            <path id="fl41" fill="none" stroke="black" stroke-width="0.9" stroke-miterlimit="2.61313"
                d="M2016.29 946.7c-0.16,-0.28 -0.32,-0.56 -0.49,-0.84 0.17,0.28 0.33,0.56 0.49,0.84zm-0.38 376.9c32.09,-55.54 50.46,-120.02 50.46,-188.77 0,-68.47 -18.21,-132.69 -50.05,-188.08 -0.01,-0.02 -0.02,-0.03 -0.03,-0.05 -0.16,-0.28 -0.32,-0.56 -0.48,-0.84 -0.04,0.06 -0.08,0.13 -0.12,0.19 -32.08,55.55 -50.45,120.02 -50.45,188.78 0,68.49 18.22,132.72 50.08,188.12 0.16,0.28 0.32,0.56 0.48,0.84 0.04,-0.06 0.08,-0.12 0.11,-0.19z" />
            <path id="fl42" fill="none" stroke="black" stroke-width="0.9" stroke-miterlimit="2.61313"
                d="M2343.06 757.09c0.04,-0.06 0.08,-0.13 0.11,-0.19 -0.04,0.06 -0.07,0.13 -0.11,0.19zm-326.58 188.77c139.44,-0.24 261.16,-76 326.46,-188.56 0.04,-0.07 0.08,-0.14 0.12,-0.21 0.04,-0.07 0.08,-0.13 0.11,-0.19 -139.81,0 -261.88,75.91 -327.26,188.77 -0.03,0.07 -0.07,0.13 -0.1,0.19 0.22,0 0.44,0 0.67,0z" />
            <path id="fl43" fill="none" stroke="black" stroke-width="0.9" stroke-miterlimit="2.61313"
                d="M2015.91 945.67c32.09,-55.54 50.46,-120.01 50.46,-188.77 0,-68.84 -18.41,-133.38 -50.56,-188.97 -0.04,0.07 -0.08,0.13 -0.12,0.19 -32.08,55.55 -50.45,120.02 -50.45,188.78 0,68.49 18.22,132.73 50.08,188.12 0.16,0.28 0.32,0.56 0.48,0.84 0.04,-0.06 0.08,-0.12 0.11,-0.19z" />
            <path id="fl44" fill="none" stroke="black" stroke-width="0.9" stroke-miterlimit="2.61313"
                d="M2015.32 945.02c-65.47,-112.5 -187.34,-188.12 -326.88,-188.12 0.16,0.28 0.32,0.56 0.48,0.84 65.47,112.5 187.34,188.12 326.88,188.12 -0.16,-0.28 -0.32,-0.56 -0.48,-0.84z" />
            <path id="fl45" fill="none" stroke="black" stroke-width="0.9" stroke-miterlimit="2.61313"
                d="M2015.69 946.05c0.04,-0.06 0.08,-0.13 0.11,-0.19 -0.03,0.07 -0.07,0.13 -0.11,0.19zm-0.56 -0.19c-139.53,0.25 -261.32,76.1 -326.58,188.78 -0.04,0.06 -0.08,0.12 -0.11,0.19 139.72,0 261.73,-75.82 327.13,-188.56 0.04,-0.07 0.08,-0.15 0.12,-0.22 0.04,-0.06 0.08,-0.13 0.11,-0.19 -0.22,0 -0.45,0 -0.67,0z" />
            <path id="fl46" fill="none" stroke="black" stroke-width="0.9" stroke-miterlimit="2.61313"
                d="M2015.32 1322.95c-65.47,-112.5 -187.34,-188.12 -326.88,-188.13 0.16,0.28 0.32,0.56 0.48,0.84 65.47,112.5 187.34,188.13 326.88,188.13 -0.16,-0.28 -0.32,-0.56 -0.48,-0.84z" />
            <path id="fl47" fill="none" stroke="black" stroke-width="0.9" stroke-miterlimit="2.61313"
                d="M2015.69 1323.98c0.04,-0.06 0.08,-0.13 0.11,-0.19 -0.03,0.06 -0.07,0.13 -0.11,0.19zm-0.56 -0.19c-139.53,0.24 -261.32,76.1 -326.58,188.77 -0.04,0.07 -0.08,0.13 -0.11,0.19 0.22,0 0.45,0 0.67,0 139.44,-0.24 261.16,-76 326.46,-188.55 0.04,-0.08 0.08,-0.15 0.12,-0.22 0.04,-0.06 0.08,-0.13 0.11,-0.19 -0.22,0 -0.45,0 -0.67,0z" />
            <path id="fl48" fill="none" stroke="black" stroke-width="0.9" stroke-miterlimit="2.61313"
                d="M1688.92 1135.66c-0.16,-0.28 -0.32,-0.56 -0.48,-0.83 0.16,0.28 0.32,0.55 0.48,0.83zm50.08 188.13c0,-68.47 -18.21,-132.69 -50.05,-188.08 -0.01,-0.01 -0.02,-0.03 -0.03,-0.05 -0.16,-0.28 -0.32,-0.56 -0.48,-0.84 -0.04,0.07 -0.08,0.13 -0.11,0.19 -32.09,55.55 -50.45,120.02 -50.45,188.78 0,68.49 18.22,132.73 50.07,188.12 0.16,0.28 0.33,0.56 0.49,0.84 0.03,-0.06 0.07,-0.12 0.11,-0.19 32.09,-55.54 50.45,-120.01 50.45,-188.77z" />
            <path id="fl49" fill="none" stroke="black" stroke-width="0.9" stroke-miterlimit="2.61313"
                d="M1688.92 757.74c-0.16,-0.28 -0.32,-0.56 -0.48,-0.84 0.16,0.28 0.32,0.56 0.48,0.84zm-0.37 376.9c32.09,-55.55 50.45,-120.02 50.45,-188.78 0,-68.47 -18.21,-132.69 -50.05,-188.07 -0.01,-0.02 -0.02,-0.04 -0.03,-0.05 -0.16,-0.28 -0.32,-0.56 -0.48,-0.84 -0.04,0.06 -0.08,0.12 -0.11,0.19 -32.09,55.54 -50.45,120.01 -50.45,188.77 0,68.49 18.22,132.73 50.07,188.13 0.16,0.27 0.33,0.55 0.49,0.84 0.03,-0.07 0.07,-0.13 0.11,-0.19z" />
            <path id="fl50" fill="none" stroke="black" stroke-width="0.9" stroke-miterlimit="2.61313"
                d="M1688.55 756.71c32.09,-55.55 50.45,-120.02 50.45,-188.78 0,-68.83 -18.41,-133.37 -50.56,-188.96 -32.16,55.59 -50.56,120.13 -50.56,188.96 0,68.49 18.22,132.73 50.07,188.13 0.16,0.28 0.33,0.56 0.49,0.84 0.03,-0.07 0.07,-0.13 0.11,-0.19z" />
            <path id="fl51" fill="none" stroke="black" stroke-width="0.9" stroke-miterlimit="2.61313"
                d="M1688.55 756.71c-0.04,0.06 -0.08,0.12 -0.11,0.19 0.03,-0.07 0.07,-0.13 0.11,-0.19zm327.25 -188.78c-139.71,0 -261.72,75.82 -327.13,188.56 -0.04,0.07 -0.08,0.15 -0.12,0.22 -0.04,0.06 -0.08,0.12 -0.11,0.19 0.22,0 0.45,0 0.67,0 139.44,-0.25 261.16,-76 326.46,-188.56 0.04,-0.07 0.08,-0.14 0.12,-0.22 0.04,-0.06 0.08,-0.12 0.11,-0.19z" />
            <path id="fl52" fill="none" stroke="black" stroke-width="0.9" stroke-miterlimit="2.61313"
                d="M1688.44 756.9c-0.16,-0.28 -0.33,-0.56 -0.49,-0.84 0.16,0.28 0.32,0.56 0.49,0.84zm-0.49 -0.84c-65.46,-112.5 -187.34,-188.13 -326.88,-188.13 0.16,0.28 0.33,0.56 0.49,0.84 65.46,112.5 187.34,188.13 326.88,188.13 -0.16,-0.28 -0.33,-0.56 -0.49,-0.84z" />
            <path id="fl53" fill="none" stroke="black" stroke-width="0.9" stroke-miterlimit="2.61313"
                d="M1361.56 568.77c-0.16,-0.28 -0.33,-0.56 -0.49,-0.84 0.16,0.28 0.32,0.56 0.49,0.84zm50.07 188.12c0,-68.46 -18.21,-132.68 -50.05,-188.07 -0.01,-0.02 -0.01,-0.03 -0.02,-0.05 -0.16,-0.28 -0.33,-0.56 -0.49,-0.84 -32.16,55.59 -50.56,120.13 -50.56,188.97 0,68.49 18.22,132.72 50.08,188.12 0.16,0.28 0.32,0.56 0.48,0.84 0.04,-0.06 0.07,-0.13 0.11,-0.19 32.09,-55.54 50.45,-120.02 50.45,-188.78z" />
            <path id="fl54" fill="none" stroke="black" stroke-width="0.9" stroke-miterlimit="2.61313"
                d="M1361.18 945.67c-0.04,0.06 -0.07,0.13 -0.11,0.19 0.04,-0.06 0.07,-0.13 0.11,-0.19zm327.15 -188.58c0.03,-0.07 0.07,-0.13 0.11,-0.19 -0.04,0.06 -0.08,0.12 -0.11,0.19zm-0.57 -0.19c-139.43,0.24 -261.16,76 -326.46,188.55 -0.04,0.08 -0.08,0.15 -0.12,0.22 -0.04,0.06 -0.07,0.13 -0.11,0.19 139.72,0 261.73,-75.82 327.13,-188.56 0.04,-0.07 0.09,-0.14 0.13,-0.21 0.03,-0.07 0.07,-0.13 0.11,-0.19 -0.23,0 -0.45,0 -0.68,0zm-326.46 188.55c-0.04,0.08 -0.08,0.15 -0.12,0.22 0.04,-0.07 0.08,-0.14 0.12,-0.22z" />
            <path id="fl55" fill="none" stroke="black" stroke-width="0.9" stroke-miterlimit="2.61313"
                d="M1688.1 757.49c-65.43,112.63 -187.39,188.37 -327.03,188.37 139.64,0 261.6,-75.74 327.03,-188.37zm-0.15 376.5c-65.46,-112.5 -187.34,-188.13 -326.88,-188.13 0.16,0.28 0.33,0.56 0.49,0.84 65.46,112.5 187.34,188.13 326.88,188.13 -0.16,-0.29 -0.33,-0.57 -0.49,-0.84z" />
            <path id="fl56" fill="none" stroke="black" stroke-width="0.9" stroke-miterlimit="2.61313"
                d="M1360.59 945.02c-65.47,-112.5 -187.35,-188.13 -326.89,-188.13 0.17,0.28 0.33,0.56 0.49,0.84 65.46,112.5 187.34,188.13 326.88,188.13 -0.16,-0.28 -0.32,-0.56 -0.48,-0.84z" />
            <path id="fl57" fill="none" stroke="black" stroke-width="0.9" stroke-miterlimit="2.61313"
                d="M1360.4 945.86c-139.53,0.24 -261.32,76.1 -326.59,188.77 -0.03,0.07 -0.07,0.13 -0.11,0.19 139.81,0 261.89,-75.91 327.26,-188.77 0.04,-0.06 0.07,-0.13 0.11,-0.19 -0.23,0 -0.45,0 -0.67,0z" />
            <path id="fl58" fill="none" stroke="black" stroke-width="0.9" stroke-miterlimit="2.61313"
                d="M1361.56 946.7c-0.16,-0.28 -0.33,-0.56 -0.49,-0.84 0.16,0.28 0.32,0.56 0.49,0.84zm-0.6 -0.65c-32.09,55.54 -50.45,120.02 -50.45,188.78 0,68.49 18.22,132.72 50.08,188.12 0.16,0.28 0.32,0.56 0.48,0.84 0.04,-0.06 0.07,-0.13 0.11,-0.19 32.09,-55.55 50.45,-120.02 50.45,-188.78 0,-68.47 -18.21,-132.69 -50.05,-188.07 -0.01,-0.02 -0.01,-0.03 -0.02,-0.05 -0.16,-0.28 -0.33,-0.56 -0.49,-0.84 -0.04,0.06 -0.07,0.13 -0.11,0.19z" />
            <path id="fl59" fill="none" stroke="black" stroke-width="0.9" stroke-miterlimit="2.61313"
                d="M1034.19 757.73c-0.16,-0.28 -0.32,-0.56 -0.49,-0.83 0.16,0.28 0.33,0.55 0.49,0.83zm-0.38 376.9c32.09,-55.54 50.45,-120.01 50.45,-188.77 0,-68.47 -18.2,-132.69 -50.04,-188.08 -0.01,-0.01 -0.02,-0.03 -0.03,-0.05 -0.16,-0.28 -0.32,-0.56 -0.49,-0.83 -32.15,55.58 -50.56,120.12 -50.56,188.96 0,68.49 18.22,132.73 50.08,188.12 0.16,0.28 0.32,0.56 0.48,0.84 0.04,-0.06 0.08,-0.12 0.11,-0.19z" />
            <path id="fl60" fill="none" stroke="black" stroke-width="0.9" stroke-miterlimit="2.61313"
                d="M1033.22 1133.98c-65.47,-112.5 -187.34,-188.12 -326.88,-188.12 0.16,0.28 0.32,0.56 0.48,0.84 65.47,112.5 187.34,188.12 326.88,188.12 -0.16,-0.28 -0.32,-0.56 -0.48,-0.84z" />
            <path id="fl61" fill="none" stroke="black" stroke-width="0.9" stroke-miterlimit="2.61313"
                d="M706.82 946.7c-0.16,-0.28 -0.32,-0.56 -0.48,-0.84 0.16,0.28 0.32,0.56 0.48,0.84zm50.08 188.12c0,-68.47 -18.21,-132.69 -50.05,-188.07 -0.01,-0.02 -0.02,-0.04 -0.03,-0.05 -0.16,-0.28 -0.32,-0.56 -0.48,-0.84 -32.16,55.59 -50.56,120.13 -50.56,188.96 0,68.49 18.21,132.73 50.07,188.13 0.16,0.27 0.33,0.55 0.49,0.84 0.03,-0.07 0.07,-0.13 0.11,-0.19 32.08,-55.55 50.45,-120.02 50.45,-188.78z" />
            <path id="fl62" fill="none" stroke="black" stroke-width="0.9" stroke-miterlimit="2.61313"
                d="M705.85 1322.95c-65.46,-112.5 -187.34,-188.13 -326.88,-188.13 65.34,112.96 187.48,188.97 327.37,188.97 -0.16,-0.29 -0.33,-0.57 -0.49,-0.84z" />
            <path id="fl63" fill="none" stroke="black" stroke-width="0.9" stroke-miterlimit="2.61313"
                d="M705.66 1323.79c-139.6,0.24 -261.45,76.18 -326.69,188.96 139.81,0 261.88,-75.92 327.26,-188.78 0.03,-0.06 0.07,-0.12 0.11,-0.18 -0.23,0 -0.45,0 -0.68,0z" />
            <path id="fl64" fill="none" stroke="black" stroke-width="0.9" stroke-miterlimit="2.61313"
                d="M705.85 1700.87c-65.46,-112.5 -187.34,-188.12 -326.88,-188.12 65.34,112.96 187.48,188.96 327.37,188.96 -0.17,-0.28 -0.33,-0.56 -0.49,-0.84z" />
            <path id="fl65" fill="none" stroke="black" stroke-width="0.9" stroke-miterlimit="2.61313"
                d="M705.66 1701.71c-139.6,0.25 -261.45,76.19 -326.69,188.97 139.81,0 261.88,-75.92 327.26,-188.78 0.03,-0.06 0.07,-0.12 0.11,-0.19 -0.23,0 -0.45,0 -0.68,0z" />
            <path id="fl66" fill="none" stroke="black" stroke-width="0.9" stroke-miterlimit="2.61313"
                d="M705.85 2078.8c-65.46,-112.5 -187.34,-188.12 -326.88,-188.12 65.34,112.96 187.48,188.96 327.37,188.96 -0.17,-0.28 -0.33,-0.56 -0.49,-0.84z" />
            <path id="fl67" fill="none" stroke="black" stroke-width="0.9" stroke-miterlimit="2.61313"
                d="M705.66 2079.64c-139.6,0.25 -261.45,76.18 -326.69,188.96 139.81,0 261.88,-75.91 327.26,-188.77 0.03,-0.06 0.07,-0.13 0.11,-0.19 -0.23,0 -0.45,0 -0.68,0z" />
            <path id="fl68" fill="none" stroke="black" stroke-width="0.9" stroke-miterlimit="2.61313"
                d="M705.85 2456.73c-65.46,-112.5 -187.34,-188.13 -326.88,-188.12 65.34,112.96 187.48,188.96 327.37,188.96 -0.17,-0.28 -0.33,-0.56 -0.49,-0.84z" />
            <path id="fl69" fill="none" stroke="black" stroke-width="0.9" stroke-miterlimit="2.61313"
                d="M705.66 2457.57c-139.6,0.24 -261.45,76.18 -326.69,188.96 139.81,0 261.88,-75.91 327.26,-188.77 0.03,-0.06 0.07,-0.13 0.11,-0.19 -0.23,0 -0.45,0 -0.68,0z" />
            <path id="fl70" fill="none" stroke="black" stroke-width="0.9" stroke-miterlimit="2.61313"
                d="M706.23 2457.76c-32.09,55.54 -50.45,120.01 -50.45,188.77 0,68.84 18.4,133.38 50.56,188.97 0.03,-0.07 0.07,-0.13 0.11,-0.19 32.08,-55.55 50.45,-120.02 50.45,-188.78 0,-68.49 -18.22,-132.72 -50.08,-188.12 -0.16,-0.28 -0.32,-0.56 -0.48,-0.84 -0.04,0.06 -0.08,0.12 -0.11,0.19z" />
            <path id="fl71" fill="none" stroke="black" stroke-width="0.9" stroke-miterlimit="2.61313"
                d="M706.45 2835.31c-0.04,0.06 -0.08,0.12 -0.11,0.19 0.03,-0.07 0.07,-0.13 0.11,-0.19zm327.25 -188.78c-139.72,0 -261.73,75.82 -327.13,188.56 -0.04,0.07 -0.08,0.15 -0.12,0.22 -0.04,0.06 -0.08,0.12 -0.11,0.19 139.8,0 261.88,-75.92 327.25,-188.78 0.04,-0.06 0.08,-0.12 0.11,-0.19z" />
            <path id="fl72" fill="none" stroke="black" stroke-width="0.9" stroke-miterlimit="2.61313"
                d="M983.14 2835.5c0,68.84 18.41,133.37 50.56,188.96 0.04,-0.06 0.08,-0.12 0.11,-0.19 32.09,-55.54 50.45,-120.01 50.45,-188.77 0,-68.49 -18.21,-132.73 -50.07,-188.13 -0.16,-0.27 -0.33,-0.55 -0.49,-0.84 -0.03,0.07 -0.07,0.13 -0.11,0.19 -32.08,55.55 -50.45,120.02 -50.45,188.78z" />
            <path id="fl73" fill="none" stroke="black" stroke-width="0.9" stroke-miterlimit="2.61313"
                d="M1033.81 3024.27c-0.03,0.07 -0.07,0.13 -0.11,0.19 0.04,-0.06 0.08,-0.12 0.11,-0.19zm327.26 -188.77c-139.72,0 -261.73,75.82 -327.13,188.56 -0.04,0.07 -0.09,0.14 -0.13,0.21 -0.03,0.07 -0.07,0.13 -0.11,0.19 139.81,0 261.89,-75.91 327.26,-188.77 0.04,-0.06 0.07,-0.13 0.11,-0.19z" />
            <path id="fl74" fill="none" stroke="black" stroke-width="0.9" stroke-miterlimit="2.61313"
                d="M706.82 2458.41c65.47,112.5 187.34,188.12 326.88,188.13 -0.16,-0.28 -0.32,-0.56 -0.48,-0.85 -65.47,-112.5 -187.34,-188.12 -326.88,-188.12 0.16,0.28 0.32,0.56 0.48,0.84z" />
            <path id="fl75" fill="none" stroke="black" stroke-width="0.9" stroke-miterlimit="2.61313"
                d="M707.01 2457.57c139.53,-0.25 261.32,-76.1 326.58,-188.77 0.04,-0.07 0.08,-0.13 0.11,-0.19 -139.8,0 -261.88,75.91 -327.25,188.77 -0.04,0.06 -0.08,0.13 -0.11,0.19 0.22,0 0.45,0 0.67,0z" />
            <path id="fl76" fill="none" stroke="black" stroke-width="0.9" stroke-miterlimit="2.61313"
                d="M705.85 2456.73c0.16,0.28 0.32,0.56 0.49,0.84 -0.16,-0.28 -0.33,-0.56 -0.49,-0.84zm0.6 0.65c32.08,-55.55 50.45,-120.02 50.45,-188.78 0,-68.49 -18.22,-132.72 -50.08,-188.12 -0.16,-0.28 -0.32,-0.56 -0.48,-0.84 -0.04,0.06 -0.08,0.13 -0.11,0.19 -32.09,55.55 -50.45,120.02 -50.45,188.78 0,68.47 18.2,132.68 50.04,188.07 0.01,0.02 0.02,0.03 0.03,0.05 0.16,0.28 0.32,0.56 0.49,0.84 0.03,-0.06 0.07,-0.13 0.11,-0.19z" />
            <path id="fl77" fill="none" stroke="black" stroke-width="0.9" stroke-miterlimit="2.61313"
                d="M706.82 2080.48c65.47,112.5 187.34,188.13 326.88,188.13 -0.16,-0.28 -0.32,-0.56 -0.48,-0.84 -65.47,-112.5 -187.34,-188.13 -326.88,-188.13 0.16,0.28 0.32,0.56 0.48,0.84z" />
            <path id="fl78" fill="none" stroke="black" stroke-width="0.9" stroke-miterlimit="2.61313"
                d="M705.85 2078.8c0.16,0.28 0.32,0.56 0.49,0.84 -0.16,-0.28 -0.33,-0.56 -0.49,-0.84zm0.6 0.65c32.08,-55.54 50.45,-120.01 50.45,-188.77 0,-68.49 -18.22,-132.73 -50.08,-188.13 -0.16,-0.28 -0.32,-0.56 -0.48,-0.84 -0.04,0.07 -0.08,0.13 -0.11,0.19 -32.09,55.55 -50.45,120.02 -50.45,188.78 0,68.47 18.2,132.69 50.04,188.07 0.01,0.02 0.02,0.03 0.03,0.05 0.16,0.28 0.32,0.56 0.49,0.84 0.03,-0.06 0.07,-0.12 0.11,-0.19z" />
            <path id="fl79" fill="none" stroke="black" stroke-width="0.9" stroke-miterlimit="2.61313"
                d="M705.85 1700.87c0.16,0.28 0.32,0.56 0.49,0.84 -0.16,-0.28 -0.33,-0.56 -0.49,-0.84zm-50.07 -188.12c0,68.47 18.2,132.69 50.04,188.08 0.01,0.01 0.02,0.03 0.03,0.04 0.16,0.28 0.32,0.56 0.49,0.84 0.03,-0.06 0.07,-0.12 0.11,-0.19 32.08,-55.54 50.45,-120.01 50.45,-188.77 0,-68.49 -18.22,-132.73 -50.08,-188.12 -0.16,-0.28 -0.32,-0.56 -0.48,-0.85 -0.04,0.07 -0.08,0.13 -0.11,0.19 -32.09,55.55 -50.45,120.02 -50.45,188.78z" />
            <path id="fl80" fill="none" stroke="black" stroke-width="0.9" stroke-miterlimit="2.61313"
                d="M706.82 1324.63c65.47,112.49 187.34,188.12 326.88,188.12 -0.16,-0.28 -0.32,-0.56 -0.48,-0.84 -65.47,-112.5 -187.34,-188.12 -326.88,-188.13 0.16,0.29 0.32,0.57 0.48,0.85z" />
            <path id="fl81" fill="none" stroke="black" stroke-width="0.9" stroke-miterlimit="2.61313"
                d="M706.45 1323.6c-0.04,0.06 -0.08,0.12 -0.11,0.18 0.03,-0.06 0.07,-0.12 0.11,-0.18zm0.56 0.19c139.53,-0.25 261.32,-76.1 326.58,-188.78 0.04,-0.06 0.08,-0.12 0.11,-0.19 -0.22,0 -0.45,0 -0.67,0 -139.44,0.25 -261.16,76 -326.46,188.56 -0.04,0.07 -0.08,0.14 -0.12,0.22 -0.04,0.06 -0.08,0.12 -0.11,0.18 0.22,0 0.45,0 0.67,0.01zm-0.44 -0.41c-0.04,0.07 -0.08,0.14 -0.12,0.22 0.04,-0.08 0.08,-0.15 0.12,-0.22z" />
            <path id="fl82" fill="none" stroke="black" stroke-width="0.9" stroke-miterlimit="2.61313"
                d="M1033.22 1511.91c0.16,0.28 0.32,0.56 0.48,0.84 -0.16,-0.28 -0.32,-0.56 -0.48,-0.84zm0.37 -376.9c-32.08,55.55 -50.45,120.02 -50.45,188.78 0,68.47 18.21,132.69 50.05,188.07 0.01,0.02 0.02,0.03 0.03,0.05 0.16,0.28 0.32,0.56 0.48,0.84 0.04,-0.06 0.08,-0.12 0.11,-0.19 32.09,-55.54 50.45,-120.02 50.45,-188.77 0,-68.49 -18.21,-132.73 -50.07,-188.13 -0.16,-0.28 -0.33,-0.56 -0.49,-0.84 -0.03,0.07 -0.07,0.13 -0.11,0.19z" />
            <path id="fl83" fill="none" stroke="black" stroke-width="0.9" stroke-miterlimit="2.61313"
                d="M1361.07 1323.79c-0.16,-0.28 -0.32,-0.56 -0.48,-0.84 0.16,0.28 0.32,0.56 0.48,0.84zm-326.88 -188.13c65.46,112.5 187.34,188.13 326.88,188.13 -0.16,-0.28 -0.32,-0.56 -0.48,-0.84 -65.47,-112.5 -187.35,-188.13 -326.89,-188.13 0.16,0.28 0.33,0.56 0.49,0.84z" />
            <path id="fl84" fill="none" stroke="black" stroke-width="0.9" stroke-miterlimit="2.61313"
                d="M1411.63 1134.82c0,68.67 -18.31,133.07 -50.33,188.56 65.3,-112.55 187.03,-188.31 326.46,-188.55 -139.23,-0.25 -260.79,-75.78 -326.16,-188.06 31.83,55.38 50.03,119.59 50.03,188.05zm0 0c0,68.67 -18.31,133.07 -50.33,188.56 -0.04,0.07 -0.08,0.15 -0.12,0.22 -0.04,0.06 -0.07,0.13 -0.11,0.19 139.72,0 261.73,-75.82 327.13,-188.56 0.04,-0.07 0.09,-0.14 0.13,-0.22 0.03,-0.06 0.07,-0.12 0.11,-0.18 -0.23,0 -0.45,0 -0.68,0 -139.23,-0.25 -260.79,-75.78 -326.16,-188.06 31.83,55.38 50.03,119.59 50.03,188.05zm-50.33 188.56c-0.04,0.07 -0.08,0.15 -0.12,0.22 0.04,-0.07 0.08,-0.15 0.12,-0.22z" />
            <path id="fl85" fill="none" stroke="black" stroke-width="0.9" stroke-miterlimit="2.61313"
                d="M1687.95 1511.91c-65.46,-112.5 -187.34,-188.12 -326.88,-188.12 0.16,0.28 0.33,0.56 0.49,0.84 65.46,112.5 187.34,188.12 326.88,188.12 -0.16,-0.28 -0.33,-0.56 -0.49,-0.84z" />
            <path id="fl86" fill="none" stroke="black" stroke-width="0.9" stroke-miterlimit="2.61313"
                d="M1361.56 1324.63c-0.16,-0.28 -0.33,-0.56 -0.49,-0.84 0.16,0.28 0.32,0.56 0.49,0.84zm50.07 188.12c0,-68.47 -18.21,-132.69 -50.05,-188.07 -0.01,-0.02 -0.01,-0.04 -0.02,-0.05 -0.16,-0.28 -0.33,-0.56 -0.49,-0.84 -0.04,0.06 -0.07,0.12 -0.11,0.19 -32.09,55.54 -50.45,120.01 -50.45,188.77 0,68.49 18.22,132.73 50.08,188.13 0.16,0.27 0.32,0.55 0.48,0.84 0.04,-0.07 0.07,-0.13 0.11,-0.19 32.09,-55.55 50.45,-120.02 50.45,-188.78z" />
            <path id="fl87" fill="none" stroke="black" stroke-width="0.9" stroke-miterlimit="2.61313"
                d="M706.34 1701.71c139.8,0 261.88,-75.91 327.25,-188.77 0.04,-0.06 0.08,-0.13 0.11,-0.19 -0.22,0 -0.45,0 -0.67,0 -139.44,0.25 -261.16,76 -326.46,188.56 -0.04,0.07 -0.08,0.14 -0.12,0.21 -0.04,0.07 -0.08,0.13 -0.11,0.19zm0.23 -0.4c-0.04,0.07 -0.08,0.14 -0.12,0.21 0.04,-0.07 0.08,-0.14 0.12,-0.21z" />
            <path id="fl88" fill="none" stroke="black" stroke-width="0.9" stroke-miterlimit="2.61313"
                d="M983.14 1701.72c0,68.49 18.22,132.72 50.08,188.12 0.16,0.28 0.32,0.56 0.48,0.84 0.04,-0.06 0.08,-0.13 0.11,-0.19 32.09,-55.55 50.45,-120.02 50.45,-188.78 0,-68.49 -18.21,-132.72 -50.07,-188.12 -0.16,-0.28 -0.33,-0.56 -0.49,-0.84 -0.03,0.06 -0.07,0.13 -0.11,0.19 -32.08,55.55 -50.45,120.02 -50.45,188.78z" />
            <path id="fl89" fill="none" stroke="black" stroke-width="0.9" stroke-miterlimit="2.61313"
                d="M1033.81 1890.49c-0.03,0.06 -0.07,0.13 -0.11,0.19 0.04,-0.07 0.08,-0.13 0.11,-0.19zm327.26 -188.77c-139.72,0 -261.73,75.82 -327.13,188.55 -0.04,0.08 -0.09,0.15 -0.13,0.22 -0.03,0.06 -0.07,0.13 -0.11,0.19 139.81,0 261.89,-75.92 327.26,-188.78 0.04,-0.06 0.07,-0.12 0.11,-0.18z" />
            <path id="fl90" fill="none" stroke="black" stroke-width="0.9" stroke-miterlimit="2.61313"
                d="M1361.07 1701.72c-0.16,-0.29 -0.32,-0.57 -0.48,-0.84 0.16,0.27 0.32,0.55 0.48,0.84zm-326.88 -188.13c65.46,112.5 187.34,188.13 326.88,188.13 -0.16,-0.28 -0.32,-0.56 -0.48,-0.84 -65.47,-112.5 -187.35,-188.13 -326.89,-188.13 0.16,0.28 0.33,0.56 0.49,0.84z" />
            <path id="fl91" fill="none" stroke="black" stroke-width="0.9" stroke-miterlimit="2.61313"
                d="M1360.96 1323.98c0.04,-0.07 0.07,-0.13 0.11,-0.19 -0.04,0.06 -0.07,0.12 -0.11,0.19zm-327.15 188.58c-0.03,0.07 -0.07,0.13 -0.11,0.19 0.04,-0.06 0.08,-0.13 0.11,-0.19zm0.57 0.19c139.44,-0.24 261.16,-76 326.46,-188.56 0.04,-0.07 0.08,-0.14 0.12,-0.21 0.04,-0.07 0.07,-0.13 0.11,-0.19 -0.23,0 -0.45,0 -0.67,0 -139.44,0.24 -261.16,76 -326.46,188.56 -0.04,0.07 -0.09,0.14 -0.13,0.21 -0.03,0.07 -0.07,0.13 -0.11,0.19 0.23,0 0.45,0 0.68,0zm-0.44 -0.4c-0.04,0.07 -0.09,0.14 -0.13,0.21 0.04,-0.07 0.09,-0.14 0.13,-0.21z" />
            <path id="fl92" fill="none" stroke="black" stroke-width="0.9" stroke-miterlimit="2.61313"
                d="M1361.18 1701.53c-0.04,0.06 -0.07,0.12 -0.11,0.18 0.04,-0.06 0.07,-0.12 0.11,-0.18zm327.15 -188.59c0.03,-0.06 0.07,-0.12 0.11,-0.19 -0.04,0.07 -0.08,0.13 -0.11,0.19zm-0.57 -0.19c-139.43,0.25 -261.16,76 -326.46,188.56 -0.04,0.07 -0.08,0.14 -0.12,0.22 -0.04,0.06 -0.07,0.12 -0.11,0.19 139.72,0 261.73,-75.82 327.13,-188.56 0.04,-0.07 0.09,-0.15 0.13,-0.22 0.03,-0.06 0.07,-0.12 0.11,-0.19 -0.23,0 -0.45,0 -0.68,0zm-326.46 188.56c-0.04,0.07 -0.08,0.14 -0.12,0.22 0.04,-0.08 0.08,-0.15 0.12,-0.22z" />
            <path id="fl93" fill="none" stroke="black" stroke-width="0.9" stroke-miterlimit="2.61313"
                d="M1688.1 1513.34c-65.43,112.64 -187.39,188.38 -327.03,188.38 139.64,0 261.6,-75.74 327.03,-188.38zm-0.15 376.5c-65.46,-112.5 -187.34,-188.12 -326.88,-188.13 0.16,0.28 0.33,0.56 0.49,0.85 65.46,112.5 187.34,188.12 326.88,188.12 -0.16,-0.28 -0.33,-0.56 -0.49,-0.84z" />
            <path id="fl94" fill="none" stroke="black" stroke-width="0.9" stroke-miterlimit="2.61313"
                d="M1361.56 1702.56c-0.16,-0.29 -0.33,-0.57 -0.49,-0.84 0.16,0.28 0.32,0.56 0.49,0.84zm50.07 188.12c0,-68.47 -18.21,-132.69 -50.05,-188.08 -0.01,-0.01 -0.01,-0.03 -0.02,-0.04 -0.16,-0.29 -0.33,-0.57 -0.49,-0.85 -0.04,0.07 -0.07,0.13 -0.11,0.19 -32.09,55.55 -50.45,120.02 -50.45,188.78 0,68.49 18.22,132.73 50.08,188.12 0.16,0.28 0.32,0.56 0.48,0.84 0.04,-0.06 0.07,-0.12 0.11,-0.19 32.09,-55.54 50.45,-120.01 50.45,-188.77z" />
            <path id="fl95" fill="none" stroke="black" stroke-width="0.9" stroke-miterlimit="2.61313"
                d="M1361.18 2079.45c-0.04,0.07 -0.07,0.13 -0.11,0.19 0.04,-0.06 0.07,-0.12 0.11,-0.19zm327.15 -188.58c0.03,-0.06 0.07,-0.13 0.11,-0.19 -0.04,0.06 -0.08,0.13 -0.11,0.19zm-0.57 -0.19c-139.43,0.25 -261.16,76 -326.46,188.56 -0.04,0.07 -0.08,0.14 -0.12,0.21 -0.04,0.07 -0.07,0.13 -0.11,0.19 139.72,0 261.73,-75.82 327.13,-188.55 0.04,-0.08 0.09,-0.15 0.13,-0.22 0.03,-0.06 0.07,-0.13 0.11,-0.19 -0.23,0 -0.45,0 -0.68,0z" />
            <path id="fl96" fill="none" stroke="black" stroke-width="0.9" stroke-miterlimit="2.61313"
                d="M1361.07 2079.64c-0.16,-0.28 -0.32,-0.56 -0.48,-0.84 0.16,0.28 0.32,0.56 0.48,0.84zm-0.48 -0.84c-65.47,-112.5 -187.35,-188.12 -326.89,-188.12 0.17,0.28 0.33,0.56 0.49,0.84 65.46,112.5 187.34,188.12 326.88,188.12 -0.16,-0.28 -0.32,-0.56 -0.48,-0.84z" />
            <path id="fl97" fill="none" stroke="black" stroke-width="0.9" stroke-miterlimit="2.61313"
                d="M1034.19 1891.52c-0.16,-0.28 -0.32,-0.56 -0.49,-0.84 0.16,0.28 0.33,0.56 0.49,0.84zm-0.97 376.25c0.16,0.28 0.32,0.56 0.48,0.84 -0.16,-0.28 -0.32,-0.56 -0.48,-0.84zm51.04 -188.13c0,-68.47 -18.2,-132.69 -50.04,-188.07 -0.01,-0.02 -0.02,-0.04 -0.03,-0.05 -0.16,-0.28 -0.32,-0.56 -0.49,-0.84 -0.03,0.06 -0.07,0.12 -0.11,0.19 -32.08,55.54 -50.45,120.01 -50.45,188.77 0,68.47 18.21,132.69 50.05,188.08 0.01,0.01 0.02,0.03 0.03,0.05 0.16,0.28 0.32,0.56 0.48,0.84 0.04,-0.07 0.08,-0.13 0.11,-0.19 32.09,-55.55 50.45,-120.02 50.45,-188.78z" />
            <path id="fl98" fill="none" stroke="black" stroke-width="0.9" stroke-miterlimit="2.61313"
                d="M983.14 2079.64c0,-68.67 18.32,-133.06 50.33,-188.56 -65.3,112.56 -187.02,188.32 -326.46,188.56 139.23,0.24 260.8,75.78 326.17,188.06 -31.83,-55.39 -50.04,-119.6 -50.04,-188.06zm0 0c0,-68.67 18.32,-133.06 50.33,-188.56 0.04,-0.07 0.08,-0.14 0.12,-0.21 0.04,-0.07 0.08,-0.13 0.11,-0.19 -139.72,0 -261.73,75.82 -327.13,188.56 -0.04,0.07 -0.08,0.14 -0.12,0.21 -0.04,0.07 -0.08,0.13 -0.11,0.19 0.22,0 0.45,0 0.67,0 139.23,0.24 260.8,75.78 326.17,188.06 -31.83,-55.39 -50.04,-119.59 -50.04,-188.06z" />
            <path id="fl99" fill="none" stroke="black" stroke-width="0.9" stroke-miterlimit="2.61313"
                d="M1033.7 1890.68c-0.16,-0.28 -0.32,-0.56 -0.48,-0.84 0.16,0.28 0.32,0.56 0.48,0.84zm-326.88 -188.13c65.47,112.5 187.34,188.13 326.88,188.13 -0.16,-0.28 -0.32,-0.56 -0.48,-0.84 -65.47,-112.5 -187.34,-188.13 -326.88,-188.13 0.16,0.28 0.32,0.56 0.48,0.84z" />
            <path id="fl100" fill="none" stroke="black" stroke-width="0.9" stroke-miterlimit="2.61313"
                d="M1033.81 2268.42c-0.03,0.06 -0.07,0.12 -0.11,0.19 0.04,-0.07 0.08,-0.13 0.11,-0.19zm326.59 -188.78c-139.44,0.25 -261.16,76 -326.46,188.56 -0.04,0.07 -0.09,0.15 -0.13,0.22 -0.03,0.06 -0.07,0.12 -0.11,0.19 139.81,0 261.89,-75.92 327.26,-188.78 0.04,-0.06 0.07,-0.12 0.11,-0.19 -0.23,0 -0.45,0 -0.67,0z" />
            <path id="fl101" fill="none" stroke="black" stroke-width="0.9" stroke-miterlimit="2.61313"
                d="M1033.22 2645.69c0.16,0.29 0.32,0.57 0.48,0.84 -0.16,-0.28 -0.32,-0.56 -0.48,-0.84zm0.97 -376.24c-0.16,-0.28 -0.33,-0.56 -0.49,-0.84 -0.03,0.06 -0.07,0.12 -0.11,0.19 -32.08,55.54 -50.45,120.01 -50.45,188.77 0,68.47 18.21,132.69 50.05,188.08 0.01,0.01 0.02,0.03 0.03,0.04 0.16,0.29 0.32,0.57 0.48,0.85 0.04,-0.07 0.08,-0.13 0.11,-0.19 32.09,-55.55 50.45,-120.02 50.45,-188.78 0,-68.49 -18.21,-132.73 -50.07,-188.12z" />
            <path id="fl102" fill="none" stroke="black" stroke-width="0.9" stroke-miterlimit="2.61313"
                d="M1034.19 2269.45c65.46,112.5 187.34,188.12 326.88,188.12 -0.16,-0.28 -0.32,-0.56 -0.48,-0.84 -65.47,-112.5 -187.35,-188.12 -326.89,-188.12 0.16,0.28 0.33,0.56 0.49,0.84z" />
            <path id="fl103" fill="none" stroke="black" stroke-width="0.9" stroke-miterlimit="2.61313"
                d="M1360.59 2456.73c0.16,0.28 0.32,0.56 0.48,0.84 -0.16,-0.28 -0.32,-0.56 -0.48,-0.84zm0.37 -376.9c-32.09,55.55 -50.45,120.02 -50.45,188.78 0,68.47 18.21,132.69 50.05,188.07 0.01,0.02 0.02,0.04 0.03,0.05 0.16,0.28 0.32,0.56 0.48,0.84 0.04,-0.06 0.07,-0.12 0.11,-0.19 32.09,-55.54 50.45,-120.01 50.45,-188.77 0,-68.49 -18.22,-132.73 -50.07,-188.13 -0.17,-0.28 -0.33,-0.56 -0.49,-0.84 -0.04,0.07 -0.07,0.13 -0.11,0.19z" />
            <path id="fl104" fill="none" stroke="black" stroke-width="0.9" stroke-miterlimit="2.61313"
                d="M1688.44 2268.61c-0.16,-0.28 -0.33,-0.56 -0.49,-0.84 0.16,0.28 0.33,0.56 0.49,0.84zm-326.88 -188.13c65.46,112.5 187.34,188.13 326.88,188.13 -0.17,-0.28 -0.33,-0.56 -0.49,-0.84 -65.46,-112.5 -187.34,-188.13 -326.88,-188.13 0.16,0.28 0.32,0.56 0.49,0.84z" />
            <path id="fl105" fill="none" stroke="black" stroke-width="0.9" stroke-miterlimit="2.61313"
                d="M1361.18 2457.38c-0.04,0.07 -0.07,0.13 -0.11,0.19 0.04,-0.06 0.07,-0.13 0.11,-0.19zm326.58 -188.77c-139.43,0.24 -261.16,76 -326.46,188.56 -0.04,0.07 -0.08,0.14 -0.12,0.21 -0.04,0.07 -0.07,0.13 -0.11,0.19 139.81,0 261.89,-75.91 327.26,-188.77 0.03,-0.07 0.07,-0.13 0.11,-0.19 -0.23,0 -0.45,0 -0.68,0z" />
            <path id="fl106" fill="none" stroke="black" stroke-width="0.9" stroke-miterlimit="2.61313"
                d="M1361.07 2457.57c-0.22,0 -0.45,0 -0.67,0 0.22,0 0.44,0 0.67,0zm-327.26 188.78c-0.03,0.06 -0.07,0.12 -0.11,0.18 0.04,-0.06 0.08,-0.12 0.11,-0.18zm326.59 -188.78c-139.44,0.25 -261.16,76 -326.46,188.56 -0.04,0.07 -0.09,0.14 -0.13,0.22 -0.03,0.06 -0.07,0.12 -0.11,0.18 139.81,0 261.89,-75.91 327.26,-188.77 0.04,-0.06 0.07,-0.12 0.11,-0.19 -0.22,0 -0.45,0 -0.67,0z" />
            <path id="fl107" fill="none" stroke="black" stroke-width="0.9" stroke-miterlimit="2.61313"
                d="M1033.7 2646.53c0.16,0.29 0.33,0.57 0.49,0.84 -0.16,-0.27 -0.33,-0.55 -0.49,-0.84zm326.89 188.13c-65.47,-112.5 -187.35,-188.13 -326.89,-188.13 0.17,0.28 0.33,0.56 0.49,0.84 65.46,112.5 187.34,188.13 326.88,188.13 -0.16,-0.28 -0.32,-0.56 -0.48,-0.84z" />
            <path id="fl108" fill="none" stroke="black" stroke-width="0.9" stroke-miterlimit="2.61313"
                d="M1360.96 2835.69c-32.09,55.54 -50.45,120.01 -50.45,188.77 0,68.84 18.4,133.38 50.56,188.97 0.04,-0.07 0.07,-0.13 0.11,-0.19 32.09,-55.55 50.45,-120.02 50.45,-188.78 0,-68.49 -18.22,-132.72 -50.07,-188.12 -0.17,-0.28 -0.33,-0.56 -0.49,-0.84 -0.04,0.06 -0.07,0.12 -0.11,0.19z" />
            <path id="fl109" fill="none" stroke="black" stroke-width="0.9" stroke-miterlimit="2.61313"
                d="M1361.18 3213.24c-0.04,0.06 -0.07,0.12 -0.11,0.19 0.04,-0.07 0.07,-0.13 0.11,-0.19zm327.26 -188.78c-139.72,0 -261.73,75.82 -327.14,188.56 -0.04,0.07 -0.08,0.15 -0.12,0.22 -0.04,0.06 -0.07,0.12 -0.11,0.19 139.81,0 261.89,-75.92 327.26,-188.78 0.03,-0.06 0.07,-0.12 0.11,-0.19z" />
            <path id="fl110" fill="none" stroke="black" stroke-width="0.9" stroke-miterlimit="2.61313"
                d="M1688.33 3024.65c-32.09,55.55 -50.45,120.02 -50.45,188.78 0,68.84 18.4,133.37 50.56,188.96 32.15,-55.59 50.56,-120.13 50.56,-188.96 0,-68.49 -18.22,-132.73 -50.08,-188.13 -0.16,-0.27 -0.32,-0.55 -0.48,-0.84 -0.04,0.07 -0.08,0.13 -0.11,0.19z" />
            <path id="fl111" fill="none" stroke="black" stroke-width="0.9" stroke-miterlimit="2.61313"
                d="M1688.92 3025.3c65.47,112.5 187.34,188.13 326.88,188.13 -0.16,-0.28 -0.32,-0.56 -0.48,-0.84 -65.47,-112.5 -187.34,-188.13 -326.88,-188.13 0.16,0.29 0.32,0.57 0.48,0.84z" />
            <path id="fl112" fill="none" stroke="black" stroke-width="0.9" stroke-miterlimit="2.61313"
                d="M2015.32 3212.59c0.16,0.28 0.32,0.56 0.49,0.84 -0.17,-0.28 -0.33,-0.56 -0.49,-0.84zm0.37 -376.9c-32.08,55.55 -50.45,120.02 -50.45,188.78 0,68.47 18.21,132.68 50.05,188.07 0.01,0.02 0.02,0.03 0.03,0.05 0.16,0.28 0.32,0.56 0.49,0.84 32.15,-55.59 50.56,-120.13 50.56,-188.97 0,-68.49 -18.22,-132.72 -50.08,-188.12 -0.16,-0.28 -0.32,-0.56 -0.48,-0.84 -0.04,0.06 -0.08,0.13 -0.12,0.19z" />
            <path id="fl113" fill="none" stroke="black" stroke-width="0.9" stroke-miterlimit="2.61313"
                d="M2016.29 2836.34c65.46,112.5 187.34,188.13 326.88,188.13 -0.16,-0.28 -0.32,-0.56 -0.48,-0.84 -65.47,-112.5 -187.35,-188.13 -326.88,-188.13 0.16,0.28 0.32,0.56 0.48,0.84z" />
            <path id="fl114" fill="none" stroke="black" stroke-width="0.9" stroke-miterlimit="2.61313"
                d="M2342.69 3023.63c0.16,0.28 0.32,0.56 0.48,0.84 -0.16,-0.28 -0.32,-0.56 -0.48,-0.84zm0.37 -376.9c-32.09,55.54 -50.45,120.01 -50.45,188.77 0,68.47 18.21,132.69 50.05,188.08 0.01,0.01 0.02,0.03 0.03,0.05 0.16,0.28 0.32,0.56 0.48,0.84 32.16,-55.59 50.56,-120.13 50.56,-188.97 0,-68.49 -18.22,-132.72 -50.07,-188.12 -0.17,-0.28 -0.33,-0.56 -0.49,-0.84 -0.03,0.06 -0.07,0.13 -0.11,0.19z" />
            <path id="fl115" fill="none" stroke="black" stroke-width="0.9" stroke-miterlimit="2.61313"
                d="M2343.66 2647.38c65.46,112.5 187.34,188.12 326.88,188.13 -0.16,-0.28 -0.33,-0.56 -0.49,-0.85 -65.46,-112.5 -187.34,-188.12 -326.88,-188.12 0.16,0.28 0.32,0.56 0.49,0.84z" />
            <path id="fl116" fill="none" stroke="black" stroke-width="0.9" stroke-miterlimit="2.61313"
                d="M2670.05 2834.66c0.16,0.29 0.33,0.57 0.49,0.84 -0.16,-0.28 -0.33,-0.56 -0.49,-0.84zm-50.07 -188.12c0,68.47 18.21,132.69 50.04,188.08 0.01,0.01 0.02,0.03 0.03,0.04 0.16,0.29 0.33,0.57 0.49,0.84 32.16,-55.59 50.56,-120.12 50.56,-188.96 0,-68.49 -18.22,-132.73 -50.08,-188.12 -0.16,-0.28 -0.32,-0.56 -0.48,-0.85 -0.04,0.07 -0.07,0.13 -0.11,0.19 -32.09,55.55 -50.45,120.02 -50.45,188.78z" />
            <path id="fl117" fill="none" stroke="black" stroke-width="0.9" stroke-miterlimit="2.61313"
                d="M2671.02 2458.42c65.47,112.5 187.34,188.12 326.89,188.12 -65.35,-112.96 -187.49,-188.96 -327.37,-188.97 0.16,0.29 0.32,0.57 0.48,0.85z" />
            <path id="fl118" fill="none" stroke="black" stroke-width="0.9" stroke-miterlimit="2.61313"
                d="M2670.65 2457.39c-0.04,0.06 -0.08,0.12 -0.11,0.18 0.03,-0.06 0.07,-0.12 0.11,-0.18zm0.56 0.19c139.61,-0.25 261.46,-76.19 326.7,-188.97 -139.72,0 -261.73,75.82 -327.14,188.56 -0.04,0.07 -0.08,0.15 -0.12,0.22 -0.04,0.06 -0.08,0.12 -0.11,0.18 0.22,0 0.45,0 0.67,0.01z" />
            <path id="fl119" fill="none" stroke="black" stroke-width="0.9" stroke-miterlimit="2.61313"
                d="M2670.54 2457.58c-0.23,0 -0.45,0 -0.68,0 0.23,0 0.45,0 0.68,0zm-327.26 188.77c-0.04,0.06 -0.07,0.13 -0.11,0.19 0.04,-0.07 0.07,-0.13 0.11,-0.19zm0.57 0.19c139.43,-0.25 261.16,-76 326.45,-188.56 0.05,-0.07 0.09,-0.14 0.13,-0.22 0.04,-0.06 0.07,-0.12 0.11,-0.18 -0.23,0 -0.45,0 -0.68,0 -139.43,0.24 -261.16,76 -326.45,188.55 -0.05,0.08 -0.09,0.15 -0.13,0.22 -0.04,0.06 -0.07,0.13 -0.11,0.19 0.23,0 0.45,0 0.68,0z" />
            <path id="fl120" fill="none" stroke="black" stroke-width="0.9" stroke-miterlimit="2.61313"
                d="M2343.06 2646.73c0.04,-0.06 0.08,-0.13 0.11,-0.19 -0.04,0.06 -0.07,0.13 -0.11,0.19zm-326.58 188.77c139.44,-0.24 261.16,-76 326.46,-188.56 0.04,-0.07 0.08,-0.14 0.12,-0.21 0.04,-0.07 0.08,-0.13 0.11,-0.19 -139.81,0 -261.88,75.91 -327.26,188.77 -0.03,0.07 -0.07,0.13 -0.1,0.19 0.22,0 0.44,0 0.67,0zm326.46 -188.56c0.04,-0.07 0.08,-0.14 0.12,-0.21 -0.04,0.07 -0.08,0.14 -0.12,0.21z" />
            <path id="fl121" fill="none" stroke="black" stroke-width="0.9" stroke-miterlimit="2.61313"
                d="M2015.91 2835.31c65.38,-112.86 187.45,-188.77 327.26,-188.77 -139.81,0 -261.88,75.92 -327.26,188.77zm0.38 -376.9c65.46,112.5 187.34,188.13 326.88,188.13 -0.16,-0.28 -0.32,-0.56 -0.48,-0.84 -65.47,-112.5 -187.35,-188.13 -326.88,-188.13 0.16,0.28 0.32,0.56 0.48,0.84z" />
            <path id="fl122" fill="none" stroke="black" stroke-width="0.9" stroke-miterlimit="2.61313"
                d="M2016.29 2458.41c-0.16,-0.28 -0.32,-0.56 -0.49,-0.84 0.17,0.28 0.33,0.56 0.49,0.84zm-0.38 376.9c32.09,-55.54 50.46,-120.01 50.46,-188.77 0,-68.47 -18.21,-132.69 -50.05,-188.08 -0.01,-0.01 -0.02,-0.03 -0.03,-0.05 -0.16,-0.28 -0.32,-0.56 -0.48,-0.84 -0.04,0.07 -0.08,0.13 -0.12,0.19 -32.08,55.55 -50.45,120.02 -50.45,188.78 0,68.49 18.22,132.72 50.08,188.12 0.16,0.28 0.32,0.56 0.48,0.84 0.04,-0.06 0.08,-0.12 0.11,-0.19z" />
            <path id="fl123" fill="none" stroke="black" stroke-width="0.9" stroke-miterlimit="2.61313"
                d="M2015.8 2835.5c-139.8,0 -261.88,75.92 -327.25,188.78 -0.04,0.06 -0.08,0.12 -0.11,0.18 0.22,0 0.45,0 0.67,0 139.44,-0.24 261.16,-76 326.46,-188.55 0.04,-0.08 0.08,-0.15 0.12,-0.22 0.04,-0.06 0.08,-0.13 0.11,-0.19zm-0.23 0.41c0.04,-0.08 0.08,-0.15 0.12,-0.22 -0.04,0.07 -0.08,0.14 -0.12,0.22z" />
            <path id="fl124" fill="none" stroke="black" stroke-width="0.9" stroke-miterlimit="2.61313"
                d="M1361.07 2835.5c0.16,0.28 0.32,0.56 0.49,0.84 -0.17,-0.28 -0.33,-0.56 -0.49,-0.84zm326.88 188.12c-65.46,-112.5 -187.34,-188.12 -326.88,-188.12 0.16,0.28 0.33,0.56 0.49,0.84 65.46,112.5 187.34,188.12 326.88,188.13 -0.17,-0.28 -0.33,-0.56 -0.49,-0.85z" />
            <path id="fl125" fill="none" stroke="black" stroke-width="0.9" stroke-miterlimit="2.61313"
                d="M1687.95 3023.62c0.16,0.29 0.32,0.57 0.49,0.84 -0.16,-0.28 -0.33,-0.56 -0.49,-0.84zm-50.07 -188.12c0,68.47 18.2,132.69 50.04,188.08 0.01,0.01 0.02,0.03 0.03,0.04 0.16,0.29 0.32,0.57 0.49,0.85 0.03,-0.07 0.07,-0.13 0.11,-0.19 32.09,-55.55 50.45,-120.02 50.45,-188.78 0,-68.49 -18.22,-132.73 -50.08,-188.12 -0.16,-0.28 -0.32,-0.56 -0.48,-0.84 -0.04,0.06 -0.08,0.12 -0.11,0.19 -32.09,55.54 -50.45,120.01 -50.45,188.77z" />
            <path id="fl126" fill="none" stroke="black" stroke-width="0.9" stroke-miterlimit="2.61313"
                d="M1360.59 2834.66c0.16,0.28 0.32,0.56 0.48,0.84 -0.16,-0.28 -0.32,-0.56 -0.48,-0.84zm0.59 0.65c32.09,-55.55 50.45,-120.02 50.45,-188.78 0,-68.49 -18.22,-132.72 -50.07,-188.12 -0.17,-0.28 -0.33,-0.56 -0.49,-0.84 -0.04,0.06 -0.07,0.13 -0.11,0.19 -32.09,55.55 -50.45,120.02 -50.45,188.78 0,68.47 18.21,132.68 50.05,188.07 0.01,0.02 0.02,0.03 0.03,0.05 0.16,0.28 0.32,0.56 0.48,0.84 0.04,-0.06 0.07,-0.13 0.11,-0.19z" />
            <path id="fl127" fill="none" stroke="black" stroke-width="0.9" stroke-miterlimit="2.61313"
                d="M2015.8 2835.5c-0.16,-0.28 -0.32,-0.56 -0.48,-0.84 0.16,0.28 0.32,0.56 0.48,0.84zm-326.88 -188.12c65.47,112.5 187.34,188.12 326.88,188.12 -0.16,-0.28 -0.32,-0.56 -0.48,-0.84 -65.47,-112.5 -187.34,-188.12 -326.88,-188.12 0.16,0.28 0.32,0.56 0.48,0.84z" />
            <path id="fl128" fill="none" stroke="black" stroke-width="0.9" stroke-miterlimit="2.61313"
                d="M2015.69 2457.76c0.04,-0.06 0.08,-0.12 0.11,-0.19 -0.03,0.07 -0.07,0.13 -0.11,0.19zm-326.58 188.78c139.44,-0.25 261.16,-76 326.46,-188.56 0.04,-0.07 0.08,-0.15 0.12,-0.22 0.04,-0.06 0.08,-0.12 0.11,-0.19 -139.8,0 -261.88,75.92 -327.25,188.78 -0.04,0.06 -0.08,0.12 -0.11,0.19 0.22,0 0.45,0 0.67,0zm326.46 -188.56c0.04,-0.07 0.08,-0.15 0.12,-0.22 -0.04,0.07 -0.08,0.15 -0.12,0.22z" />
            <path id="fl129" fill="none" stroke="black" stroke-width="0.9" stroke-miterlimit="2.61313"
                d="M1688.55 2646.35c65.37,-112.86 187.45,-188.78 327.25,-188.78 -139.8,0 -261.88,75.92 -327.25,188.78zm0.37 -376.9c65.47,112.5 187.34,188.12 326.88,188.12 -0.16,-0.28 -0.32,-0.56 -0.48,-0.84 -65.47,-112.5 -187.34,-188.12 -326.88,-188.12 0.16,0.28 0.32,0.56 0.48,0.84z" />
            <path id="fl130" fill="none" stroke="black" stroke-width="0.9" stroke-miterlimit="2.61313"
                d="M1688.92 2269.45c-0.16,-0.28 -0.32,-0.56 -0.48,-0.84 0.16,0.28 0.32,0.56 0.48,0.84zm-0.37 376.9c32.09,-55.55 50.45,-120.02 50.45,-188.78 0,-68.47 -18.21,-132.69 -50.05,-188.07 -0.01,-0.02 -0.02,-0.04 -0.03,-0.05 -0.16,-0.28 -0.32,-0.56 -0.48,-0.84 -0.04,0.06 -0.08,0.12 -0.11,0.19 -32.09,55.54 -50.45,120.01 -50.45,188.77 0,68.49 18.22,132.73 50.07,188.13 0.16,0.28 0.33,0.56 0.49,0.84 0.03,-0.07 0.07,-0.13 0.11,-0.19z" />
            <path id="fl131" fill="none" stroke="black" stroke-width="0.9" stroke-miterlimit="2.61313"
                d="M1361.07 2457.57c0.16,0.28 0.32,0.56 0.49,0.84 -0.17,-0.28 -0.33,-0.56 -0.49,-0.84zm326.88 188.13c-65.46,-112.5 -187.34,-188.13 -326.88,-188.13 0.16,0.28 0.33,0.56 0.49,0.84 65.46,112.5 187.34,188.13 326.88,188.13 -0.16,-0.28 -0.33,-0.56 -0.49,-0.84z" />
            <path id="fl132" fill="none" stroke="black" stroke-width="0.9" stroke-miterlimit="2.61313"
                d="M1361.18 2835.31c-0.04,0.06 -0.07,0.13 -0.11,0.19 0.04,-0.06 0.07,-0.13 0.11,-0.19zm327.15 -188.58c0.03,-0.07 0.07,-0.13 0.11,-0.19 -0.04,0.06 -0.08,0.12 -0.11,0.19zm-0.57 -0.19c-139.43,0.24 -261.16,76 -326.46,188.55 -0.04,0.08 -0.08,0.15 -0.12,0.22 -0.04,0.06 -0.07,0.13 -0.11,0.19 0.23,0 0.45,0 0.67,0 139.44,-0.25 261.16,-76 326.46,-188.56 0.04,-0.07 0.09,-0.14 0.13,-0.21 0.03,-0.07 0.07,-0.13 0.11,-0.19 -0.23,0 -0.45,0 -0.68,0z" />
        </g>
        <g id="tree_of_life">
            <circle id="tol1" fill="none" stroke="black" stroke-width="0.9" stroke-miterlimit="2.61313" cx="1670.65"
                cy="1100.04" r="94.48" />
            <circle id="tol2" fill="none" stroke="black" stroke-width="0.9" stroke-miterlimit="2.61313" cx="1361.07"
                cy="1323.79" r="94.48" />
            <circle id="tol3" fill="none" stroke="black" stroke-width="0.9" stroke-miterlimit="2.61313" cx="2015.8"
                cy="1323.79" r="94.48" />
            <circle id="tol4" fill="none" stroke="black" stroke-width="0.9" stroke-miterlimit="2.61313" cx="1361.07"
                cy="1701.72" r="94.48" />
            <circle id="tol5" fill="none" stroke="black" stroke-width="0.9" stroke-miterlimit="2.61313" cx="2015.8"
                cy="1701.72" r="94.48" />
            <circle id="tol6" fill="none" stroke="black" stroke-width="0.9" stroke-miterlimit="2.61313" cx="1688.44"
                cy="1890.68" r="94.48" />
            <circle id="tol7" fill="none" stroke="black" stroke-width="0.9" stroke-miterlimit="2.61313" cx="1361.56"
                cy="2080.48" r="94.48" />
            <circle id="tol8" fill="none" stroke="black" stroke-width="0.9" stroke-miterlimit="2.61313" cx="2015.8"
                cy="2079.65" r="94.48" />
            <circle id="tol9" fill="none" stroke="black" stroke-width="0.9" stroke-miterlimit="2.61313" cx="1688.44"
                cy="2268.61" r="94.48" />
            <circle id="tol10" fill="none" stroke="black" stroke-width="0.9" stroke-miterlimit="2.61313" cx="1688.44"
                cy="2646.54" r="94.48" />
            <circle id="tol11" fill="none" stroke="black" stroke-width="0.9" stroke-miterlimit="2.61313" cx="1688.44"
                cy="1512.75" r="94.48" />
        </g>
    </g>
</svg>