<?xml version="1.0" encoding="UTF-8"?>
<!DOCTYPE svg PUBLIC "-//W3C//DTD SVG 1.1//EN" "http://www.w3.org/Graphics/SVG/1.1/DTD/svg11.dtd">
<svg xmlns="http://www.w3.org/2000/svg" xml:space="preserve" width="1135px" height="1084px" version="1.1"
    shape-rendering="geometricPrecision" text-rendering="geometricPrecision" image-rendering="optimizeQuality"
    fill-rule="evenodd" clip-rule="evenodd" viewBox="0 0 1701.47 1625.66" xmlns:xlink="http://www.w3.org/1999/xlink">
    <g id="xyz-w">
        <circle id="f0" fill="none" stroke="black" stroke-width="1.5" stroke-miterlimit="2.61313" cx="567.41"
            cy="567.41" r="566.66" />
        <circle id="f1" fill="none" stroke="black" stroke-width="1.5" stroke-miterlimit="2.61313" cx="1134.06"
            cy="567.41" r="566.66" />
        <circle id="f2" fill="none" stroke="black" stroke-width="1.5" stroke-miterlimit="2.61313" cx="850.73"
            cy="1058.25" r="566.66" />
        <path id="x" fill="red"
            d="M567.41 567.41c0,-209.75 113.95,-392.87 283.32,-490.85 -83.34,-48.21 -180.11,-75.81 -283.32,-75.81 -312.96,0 -566.66,253.7 -566.66,566.66 0,209.74 113.95,392.86 283.33,490.84 0,-209.74 113.95,-392.87 283.33,-490.84z" />
        <path id="y" fill="green"
            d="M850.73 76.56c169.38,97.98 283.33,281.1 283.33,490.85 169.37,97.97 283.33,281.1 283.33,490.84 169.37,-97.97 283.33,-281.1 283.33,-490.84 0,-312.96 -253.7,-566.66 -566.66,-566.66 -103.21,0 -199.98,27.6 -283.33,75.81z" />
        <path id="z" fill="blue"
            d="M1134.06 1134.06c-103.21,0 -199.98,-27.59 -283.33,-75.81 -83.34,48.22 -180.11,75.81 -283.32,75.81 -103.22,0 -199.99,-27.59 -283.33,-75.81 0,312.96 253.7,566.66 566.65,566.66 312.96,0 566.66,-253.7 566.66,-566.66 -83.35,48.22 -180.12,75.81 -283.33,75.81z" />
        <path id="anti-x" fill="cyan"
            d="M850.73 1058.25c83.35,48.22 180.12,75.81 283.33,75.81 103.21,0 199.98,-27.59 283.33,-75.81 0,-209.74 -113.96,-392.87 -283.33,-490.84 0,209.74 -113.95,392.87 -283.33,490.84z" />
        <path id="anti-y" fill="magenta"
            d="M850.73 1058.25c-169.37,-97.97 -283.32,-281.1 -283.32,-490.84 -169.38,97.97 -283.33,281.1 -283.33,490.84 83.34,48.22 180.11,75.81 283.33,75.81 103.21,0 199.98,-27.59 283.32,-75.81z" />
        <path id="anti-z" fill="yellow"
            d="M567.4 567.4c83.35,-48.21 180.12,-75.8 283.33,-75.8 103.21,0 199.98,27.59 283.33,75.81 0,-209.75 -113.95,-392.87 -283.33,-490.85 -169.37,97.98 -283.32,281.1 -283.33,490.84z" />
        <path id="w" fill="black"
            d="M850.73 491.6c-103.21,0 -199.98,27.59 -283.32,75.81 0,209.74 113.95,392.87 283.32,490.84 169.38,-97.97 283.33,-281.1 283.33,-490.84 -83.35,-48.22 -180.12,-75.81 -283.33,-75.81z" />
    </g>
</svg>