<?xml version="1.0" standalone="no"?>
<svg xmlns="http://www.w3.org/2000/svg" xmlns:xlink="http://www.w3.org/1999/xlink" width="2985pt" height="929pt" viewBox="0.00 0.00 2984.57 929.41">
<g id="graph0" class="graph" transform="translate(3.9999999999972715,925.4099731445322) scale(1.0000000000000013)" data-name="Factor">

<polygon fill="white" stroke="none" points="-4,4 -4,-925.41 2980.57,-925.41 2980.57,4 -4,4" style=""/>
<text text-anchor="middle" x="1488.28" y="-8.2" font-family="Times,serif" font-size="14.00" style="">{{Name}}</text>
<!-- 0 -->
<!-- Abstract: {{description}} -->
<g id="node1" class="node" pointer-events="visible" data-name="0" data-comment="Abstract: {{description}}">

<ellipse fill="none" stroke="darkgray" cx="1335.08" cy="-799.85" rx="117.61" ry="117.61" style=""/>
<ellipse fill="none" stroke="darkgray" cx="1335.08" cy="-799.85" rx="121.61" ry="121.61" style=""/>
<text text-anchor="middle" x="1335.08" y="-795.65" font-family="Times,serif" font-size="14.00" style="">{{Name}}.meta({{meta}})</text>
</g>
<!-- 1 -->
<!-- Initiation: {{description}} -->
<g id="node2" class="node" pointer-events="visible" data-name="1" data-comment="Initiation: {{description}}">

<ellipse fill="none" stroke="darkgreen" cx="103.08" cy="-617.5" rx="103.17" ry="18" style=""/>
<text text-anchor="middle" x="103.08" y="-613.3" font-family="Times,serif" font-size="14.00" style="">{{Name}}.r1({{title}})</text>
</g>
<!-- 0&#45;&gt;1 -->
<g id="edge1" class="edge" data-name="0-&gt;1">

<path fill="none" stroke="red" d="M1202.69,-783.41C992.64,-758.23 570.38,-704.8 215.08,-642.3 202.24,-640.04 188.62,-637.37 175.46,-634.66" style=""/>
<polygon fill="red" stroke="red" points="1202.22,-786.88 1212.57,-784.6 1203.05,-779.93 1202.22,-786.88" style=""/>
<polygon fill="red" stroke="red" points="176.54,-631.31 166.03,-632.68 175.1,-638.16 176.54,-631.31" style=""/>
</g>
<!-- 2 -->
<!-- Response: {{description}} -->
<g id="node3" class="node" pointer-events="visible" data-name="2" data-comment="Response: {{description}}">

<ellipse fill="none" stroke="darkgreen" cx="327.08" cy="-617.5" rx="103.17" ry="18" style=""/>
<text text-anchor="middle" x="327.08" y="-613.3" font-family="Times,serif" font-size="14.00" style="">{{Name}}.r2({{title}})</text>
</g>
<!-- 0&#45;&gt;2 -->
<g id="edge2" class="edge" data-name="0-&gt;2">

<path fill="none" stroke="red" d="M1203.59,-777.42C1028.7,-748.55 710.07,-694.74 439.08,-642.3 426.63,-639.89 413.43,-637.2 400.62,-634.52" style=""/>
<polygon fill="red" stroke="red" points="1202.97,-780.86 1213.41,-779.04 1204.11,-773.95 1202.97,-780.86" style=""/>
<polygon fill="red" stroke="red" points="401.49,-631.13 390.98,-632.49 400.04,-637.98 401.49,-631.13" style=""/>
</g>
<!-- 4 -->
<!-- Integration: {{description}} -->
<g id="node4" class="node" pointer-events="visible" data-name="4" data-comment="Integration: {{description}}">

<ellipse fill="none" stroke="darkgreen" cx="551.08" cy="-617.5" rx="103.17" ry="18" style=""/>
<text text-anchor="middle" x="551.08" y="-613.3" font-family="Times,serif" font-size="14.00" style="">{{Name}}.r4({{title}})</text>
</g>
<!-- 0&#45;&gt;4 -->
<g id="edge3" class="edge" data-name="0-&gt;4">

<path fill="none" stroke="red" d="M1205.31,-769C1038.51,-730.63 754.7,-665.34 622.63,-634.96" style=""/>
<polygon fill="red" stroke="red" points="1204.43,-772.39 1214.96,-771.22 1206,-765.57 1204.43,-772.39" style=""/>
<polygon fill="red" stroke="red" points="623.48,-631.56 612.95,-632.73 621.91,-638.38 623.48,-631.56" style=""/>
</g>
<!-- 8 -->
<!-- Reflection: {{description}} -->
<g id="node5" class="node" pointer-events="visible" data-name="8" data-comment="Reflection: {{description}}">

<ellipse fill="none" stroke="darkgreen" cx="775.08" cy="-617.5" rx="103.17" ry="18" style=""/>
<text text-anchor="middle" x="775.08" y="-613.3" font-family="Times,serif" font-size="14.00" style="">{{Name}}.r8({{title}})</text>
</g>
<!-- 0&#45;&gt;8 -->
<g id="edge4" class="edge" data-name="0-&gt;8">

<path fill="none" stroke="red" d="M1208.48,-758.08C1091.19,-720.3 921.96,-665.8 833.68,-637.37" style=""/>
<polygon fill="red" stroke="red" points="1207.36,-761.39 1217.95,-761.13 1209.51,-754.73 1207.36,-761.39" style=""/>
<polygon fill="red" stroke="red" points="834.84,-634.06 824.25,-634.33 832.69,-640.73 834.84,-634.06" style=""/>
</g>
<!-- 7 -->
<!-- Consolidation: {{description}} -->
<g id="node6" class="node" pointer-events="visible" data-name="7" data-comment="Consolidation: {{description}}">

<ellipse fill="none" stroke="darkgreen" cx="999.08" cy="-617.5" rx="103.17" ry="18" style=""/>
<text text-anchor="middle" x="999.08" y="-613.3" font-family="Times,serif" font-size="14.00" style="">{{Name}}.r7({{title}})</text>
</g>
<!-- 0&#45;&gt;7 -->
<g id="edge5" class="edge" data-name="0-&gt;7">

<path fill="none" stroke="red" d="M1218.51,-736.28C1156.43,-702.95 1083.98,-664.06 1039.83,-640.37" style=""/>
<polygon fill="red" stroke="red" points="1216.51,-739.18 1226.98,-740.82 1219.82,-733.01 1216.51,-739.18" style=""/>
<polygon fill="red" stroke="red" points="1041.58,-637.33 1031.11,-635.69 1038.27,-643.5 1041.58,-637.33" style=""/>
</g>
<!-- 5 -->
<!-- Propagation: {{description}} -->
<g id="node7" class="node" pointer-events="visible" data-name="5" data-comment="Propagation: {{description}}">

<ellipse fill="none" stroke="darkgreen" cx="1223.08" cy="-617.5" rx="103.17" ry="18" style=""/>
<text text-anchor="middle" x="1223.08" y="-613.3" font-family="Times,serif" font-size="14.00" style="">{{Name}}.r5({{title}})</text>
</g>
<!-- 0&#45;&gt;5 -->
<g id="edge6" class="edge" data-name="0-&gt;5">

<path fill="none" stroke="red" d="M1265.32,-686.51C1255.89,-671.32 1247.01,-657.03 1239.85,-645.5" style=""/>
<polygon fill="red" stroke="red" points="1262.18,-688.1 1270.43,-694.74 1268.13,-684.4 1262.18,-688.1" style=""/>
<polygon fill="red" stroke="red" points="1242.84,-643.68 1234.6,-637.03 1236.9,-647.38 1242.84,-643.68" style=""/>
</g>
<!-- 3 -->
<!-- Thesis: {{description}} -->
<g id="node8" class="node" pointer-events="visible" data-name="3" data-comment="Thesis: {{description}}">

<ellipse fill="none" stroke="darkblue" cx="1447.08" cy="-617.5" rx="103.17" ry="18" style=""/>
<text text-anchor="middle" x="1447.08" y="-613.3" font-family="Times,serif" font-size="14.00" style="">{{Name}}.r3({{title}})</text>
</g>
<!-- 0&#45;&gt;3 -->
<g id="edge7" class="edge" data-name="0-&gt;3">

<path fill="none" stroke="red" d="M1404.85,-686.51C1414.28,-671.32 1423.16,-657.03 1430.31,-645.5" style=""/>
<polygon fill="red" stroke="red" points="1402.04,-684.4 1399.73,-694.74 1407.98,-688.1 1402.04,-684.4" style=""/>
<polygon fill="red" stroke="red" points="1433.27,-647.38 1435.57,-637.03 1427.32,-643.68 1433.27,-647.38" style=""/>
</g>
<!-- 6 -->
<!-- Antithesis: {{description}} -->
<g id="node9" class="node" pointer-events="visible" data-name="6" data-comment="Antithesis: {{description}}">

<ellipse fill="none" stroke="darkblue" cx="1671.08" cy="-617.5" rx="103.17" ry="18" style=""/>
<text text-anchor="middle" x="1671.08" y="-613.3" font-family="Times,serif" font-size="14.00" style="">{{Name}}.r6({{title}})</text>
</g>
<!-- 0&#45;&gt;6 -->
<g id="edge8" class="edge" data-name="0-&gt;6">

<path fill="none" stroke="red" d="M1451.66,-736.28C1513.74,-702.95 1586.19,-664.06 1630.34,-640.37" style=""/>
<polygon fill="red" stroke="red" points="1450.35,-733.01 1443.19,-740.82 1453.66,-739.18 1450.35,-733.01" style=""/>
<polygon fill="red" stroke="red" points="1631.9,-643.5 1639.06,-635.69 1628.59,-637.33 1631.9,-643.5" style=""/>
</g>
<!-- 9 -->
<!-- Synthesis: {{description}} -->
<g id="node10" class="node" pointer-events="visible" data-name="9" data-comment="Synthesis: {{description}}">

<ellipse fill="none" stroke="darkblue" cx="1895.08" cy="-617.5" rx="103.17" ry="18" style=""/>
<text text-anchor="middle" x="1895.08" y="-613.3" font-family="Times,serif" font-size="14.00" style="">{{Name}}.r9({{title}})</text>
</g>
<!-- 0&#45;&gt;9 -->
<g id="edge9" class="edge" data-name="0-&gt;9">

<path fill="none" stroke="red" d="M1461.69,-758.08C1578.98,-720.3 1748.21,-665.8 1836.49,-637.37" style=""/>
<polygon fill="red" stroke="red" points="1460.66,-754.73 1452.22,-761.13 1462.81,-761.39 1460.66,-754.73" style=""/>
<polygon fill="red" stroke="red" points="1837.47,-640.73 1845.92,-634.33 1835.33,-634.06 1837.47,-640.73" style=""/>
</g>
<!-- a -->
<!-- Potential: {{description}} -->
<g id="node11" class="node" pointer-events="visible" data-name="a" data-comment="Potential: {{description}}">

<polygon fill="none" stroke="darkred" points="2262.08,-592.9 2507.73,-629.8 2016.44,-629.8 2262.08,-592.9" style=""/>
<text text-anchor="middle" x="2262.08" y="-613.3" font-family="Times,serif" font-size="14.00" style="">{{Name}}.receive({{title}})</text>
</g>
<!-- 0&#45;&gt;a -->
<g id="edge10" class="edge" data-name="0-&gt;a">

<path fill="none" stroke="red" d="M1465.62,-772.5C1662.63,-733.63 2029.53,-662.32 2187.09,-632.35" style=""/>
<polygon fill="red" stroke="red" points="1464.98,-769.05 1455.85,-774.42 1466.34,-775.92 1464.98,-769.05" style=""/>
<polygon fill="red" stroke="red" points="2187.41,-635.85 2196.58,-630.54 2186.11,-628.97 2187.41,-635.85" style=""/>
</g>
<!-- b -->
<!-- Manifest: {{description}} -->
<g id="node12" class="node" pointer-events="visible" data-name="b" data-comment="Manifest: {{description}}">

<polygon fill="none" stroke="darkred" points="2751.08,-642.1 2525.62,-605.2 2976.55,-605.2 2751.08,-642.1" style=""/>
<text text-anchor="middle" x="2751.08" y="-613.3" font-family="Times,serif" font-size="14.00" style="">{{Name}}.send({{title}})</text>
</g>
<!-- 0&#45;&gt;b -->
<g id="edge11" class="edge" data-name="0-&gt;b">

<path fill="none" stroke="blue" d="M1467.14,-782.03C1750.55,-745.93 2411.27,-661.78 2656.91,-630.49" style=""/>
<polygon fill="blue" stroke="blue" points="1466.79,-778.55 1457.31,-783.28 1467.67,-785.49 1466.79,-778.55" style=""/>
<polygon fill="blue" stroke="blue" points="2657.31,-633.97 2666.78,-629.23 2656.42,-627.03 2657.31,-633.97" style=""/>
</g>
<!-- 1&#45;&gt;2 -->
<g id="edge32" class="edge" data-name="1-&gt;2">

<path fill="none" stroke="blue" d="M217.79,-617.5C217.91,-617.5 218.04,-617.5 218.16,-617.5" style=""/>
<polygon fill="blue" stroke="blue" points="217.85,-614 207.85,-617.5 217.85,-621 217.85,-614" style=""/>
<polygon fill="blue" stroke="blue" points="212.27,-621 222.27,-617.5 212.27,-614 212.27,-621" style=""/>
</g>
<!-- d -->
<!-- Process: {{description}} -->
<g id="node14" class="node" pointer-events="visible" data-name="d" data-comment="Process: {{description}}">

<ellipse fill="none" stroke="darkgreen" cx="775.08" cy="-425.48" rx="124.59" ry="124.59" style=""/>
<ellipse fill="none" stroke="darkgreen" cx="775.08" cy="-425.48" rx="128.59" ry="128.59" style=""/>
<text text-anchor="middle" x="775.08" y="-421.28" font-family="Times,serif" font-size="14.00" style="">{{Name}}.commit({{title}})</text>
</g>
<!-- 1&#45;&gt;d -->
<g id="edge14" class="edge" data-name="1-&gt;d">

<path fill="none" stroke="red" d="M166.81,-598.48C274.89,-567.91 496.4,-505.28 640.18,-464.62" style=""/>
<polygon fill="red" stroke="red" points="165.94,-595.09 157.27,-601.17 167.85,-601.82 165.94,-595.09" style=""/>
<polygon fill="red" stroke="red" points="641.13,-467.99 649.8,-461.9 639.22,-461.26 641.13,-467.99" style=""/>
</g>
<!-- 2&#45;&gt;4 -->
<g id="edge33" class="edge" data-name="2-&gt;4">

<path fill="none" stroke="blue" d="M441.79,-617.5C441.91,-617.5 442.04,-617.5 442.16,-617.5" style=""/>
<polygon fill="blue" stroke="blue" points="441.85,-614 431.85,-617.5 441.85,-621 441.85,-614" style=""/>
<polygon fill="blue" stroke="blue" points="436.27,-621 446.27,-617.5 436.27,-614 436.27,-621" style=""/>
</g>
<!-- 2&#45;&gt;d -->
<g id="edge15" class="edge" data-name="2-&gt;d">

<path fill="none" stroke="red" d="M375.11,-596.13C439.37,-568.87 555.74,-519.51 646.46,-481.03" style=""/>
<polygon fill="red" stroke="red" points="374.13,-592.74 366.29,-599.87 376.86,-599.19 374.13,-592.74" style=""/>
<polygon fill="red" stroke="red" points="647.59,-484.35 655.43,-477.23 644.86,-477.91 647.59,-484.35" style=""/>
</g>
<!-- 4&#45;&gt;8 -->
<g id="edge34" class="edge" data-name="4-&gt;8">

<path fill="none" stroke="blue" d="M665.79,-617.5C665.91,-617.5 666.04,-617.5 666.16,-617.5" style=""/>
<polygon fill="blue" stroke="blue" points="665.85,-614 655.85,-617.5 665.85,-621 665.85,-614" style=""/>
<polygon fill="blue" stroke="blue" points="660.27,-621 670.27,-617.5 660.27,-614 660.27,-621" style=""/>
</g>
<!-- 4&#45;&gt;d -->
<g id="edge16" class="edge" data-name="4-&gt;d">

<path fill="none" stroke="red" d="M579.5,-592.4C602.25,-573.09 635.69,-544.72 668.51,-516.88" style=""/>
<polygon fill="red" stroke="red" points="577.48,-589.52 572.12,-598.65 582.01,-594.85 577.48,-589.52" style=""/>
<polygon fill="red" stroke="red" points="670.77,-519.56 676.13,-510.42 666.24,-514.22 670.77,-519.56" style=""/>
</g>
<!-- 8&#45;&gt;7 -->
<g id="edge35" class="edge" data-name="8-&gt;7">

<path fill="none" stroke="blue" d="M889.79,-617.5C889.91,-617.5 890.04,-617.5 890.16,-617.5" style=""/>
<polygon fill="blue" stroke="blue" points="889.85,-614 879.85,-617.5 889.85,-621 889.85,-614" style=""/>
<polygon fill="blue" stroke="blue" points="884.27,-621 894.27,-617.5 884.27,-614 884.27,-621" style=""/>
</g>
<!-- 8&#45;&gt;d -->
<g id="edge17" class="edge" data-name="8-&gt;d">

<path fill="none" stroke="red" d="M775.08,-588.06C775.08,-581.37 775.08,-573.8 775.08,-565.67" style=""/>
<polygon fill="red" stroke="red" points="771.58,-587.78 775.08,-597.78 778.58,-587.78 771.58,-587.78" style=""/>
<polygon fill="red" stroke="red" points="778.58,-565.79 775.08,-555.79 771.58,-565.79 778.58,-565.79" style=""/>
</g>
<!-- 7&#45;&gt;5 -->
<g id="edge36" class="edge" data-name="7-&gt;5">

<path fill="none" stroke="blue" d="M1113.79,-617.5C1113.91,-617.5 1114.04,-617.5 1114.16,-617.5" style=""/>
<polygon fill="blue" stroke="blue" points="1113.85,-614 1103.85,-617.5 1113.85,-621 1113.85,-614" style=""/>
<polygon fill="blue" stroke="blue" points="1108.27,-621 1118.27,-617.5 1108.27,-614 1108.27,-621" style=""/>
</g>
<!-- 7&#45;&gt;d -->
<g id="edge18" class="edge" data-name="7-&gt;d">

<path fill="none" stroke="red" d="M970.67,-592.4C947.92,-573.09 914.48,-544.72 881.66,-516.88" style=""/>
<polygon fill="red" stroke="red" points="968.16,-594.85 978.05,-598.65 972.69,-589.52 968.16,-594.85" style=""/>
<polygon fill="red" stroke="red" points="883.93,-514.22 874.04,-510.42 879.4,-519.56 883.93,-514.22" style=""/>
</g>
<!-- 5&#45;&gt;1 -->
<g id="edge37" class="edge" data-name="5-&gt;1">

<path fill="none" stroke="blue" d="M1174.69,-638.87C1152.95,-647.34 1126.7,-656.07 1102.08,-660.3 1005.93,-676.8 320.23,-676.8 224.08,-660.3 199.47,-656.07 173.22,-647.34 151.48,-638.87" style=""/>
<polygon fill="blue" stroke="blue" points="1175.91,-642.15 1183.88,-635.18 1173.3,-635.65 1175.91,-642.15" style=""/>
<polygon fill="blue" stroke="blue" points="152.87,-635.65 142.28,-635.18 150.26,-642.15 152.87,-635.65" style=""/>
</g>
<!-- 5&#45;&gt;d -->
<g id="edge19" class="edge" data-name="5-&gt;d">

<path fill="none" stroke="red" d="M1175.06,-596.13C1110.8,-568.87 994.43,-519.51 903.71,-481.03" style=""/>
<polygon fill="red" stroke="red" points="1173.31,-599.19 1183.88,-599.87 1176.04,-592.74 1173.31,-599.19" style=""/>
<polygon fill="red" stroke="red" points="905.31,-477.91 894.74,-477.23 902.58,-484.35 905.31,-477.91" style=""/>
</g>
<!-- 3&#45;&gt;6 -->
<g id="edge29" class="edge" data-name="3-&gt;6">

<path fill="none" stroke="blue" d="M1561.79,-617.5C1561.91,-617.5 1562.04,-617.5 1562.16,-617.5" style=""/>
<polygon fill="blue" stroke="blue" points="1561.85,-614 1551.85,-617.5 1561.85,-621 1561.85,-614" style=""/>
<polygon fill="blue" stroke="blue" points="1556.27,-621 1566.27,-617.5 1556.27,-614 1556.27,-621" style=""/>
</g>
<!-- e -->
<!-- Logic: {{description}} -->
<g id="node15" class="node" pointer-events="visible" data-name="e" data-comment="Logic: {{description}}">

<ellipse fill="none" stroke="darkblue" cx="1671.08" cy="-425.48" rx="115.33" ry="115.33" style=""/>
<ellipse fill="none" stroke="darkblue" cx="1671.08" cy="-425.48" rx="119.33" ry="119.33" style=""/>
<text text-anchor="middle" x="1671.08" y="-421.28" font-family="Times,serif" font-size="14.00" style="">{{Name}}.serve({{title}})</text>
</g>
<!-- 3&#45;&gt;e -->
<g id="edge20" class="edge" data-name="3-&gt;e">

<path fill="none" stroke="red" d="M1475.7,-592.22C1500.2,-571.44 1536.98,-540.24 1572.04,-510.49" style=""/>
<polygon fill="red" stroke="red" points="1473.48,-589.52 1468.12,-598.65 1478.01,-594.85 1473.48,-589.52" style=""/>
<polygon fill="red" stroke="red" points="1573.92,-513.49 1579.28,-504.35 1569.39,-508.15 1573.92,-513.49" style=""/>
</g>
<!-- 6&#45;&gt;9 -->
<g id="edge30" class="edge" data-name="6-&gt;9">

<path fill="none" stroke="blue" d="M1785.79,-617.5C1785.91,-617.5 1786.04,-617.5 1786.16,-617.5" style=""/>
<polygon fill="blue" stroke="blue" points="1785.85,-614 1775.85,-617.5 1785.85,-621 1785.85,-614" style=""/>
<polygon fill="blue" stroke="blue" points="1780.27,-621 1790.27,-617.5 1780.27,-614 1780.27,-621" style=""/>
</g>
<!-- 6&#45;&gt;e -->
<g id="edge21" class="edge" data-name="6-&gt;e">

<path fill="none" stroke="red" d="M1671.08,-587.86C1671.08,-578.74 1671.08,-567.99 1671.08,-556.44" style=""/>
<polygon fill="red" stroke="red" points="1667.58,-587.78 1671.08,-597.78 1674.58,-587.78 1667.58,-587.78" style=""/>
<polygon fill="red" stroke="red" points="1674.58,-556.66 1671.08,-546.66 1667.58,-556.66 1674.58,-556.66" style=""/>
</g>
<!-- 9&#45;&gt;3 -->
<g id="edge31" class="edge" data-name="9-&gt;3">

<path fill="none" stroke="blue" d="M1846.69,-638.87C1824.95,-647.34 1798.7,-656.07 1774.08,-660.3 1683.85,-675.79 1658.32,-675.79 1568.08,-660.3 1543.47,-656.07 1517.22,-647.34 1495.48,-638.87" style=""/>
<polygon fill="blue" stroke="blue" points="1847.91,-642.15 1855.88,-635.18 1845.3,-635.65 1847.91,-642.15" style=""/>
<polygon fill="blue" stroke="blue" points="1496.87,-635.65 1486.28,-635.18 1494.26,-642.15 1496.87,-635.65" style=""/>
</g>
<!-- 9&#45;&gt;e -->
<g id="edge22" class="edge" data-name="9-&gt;e">

<path fill="none" stroke="red" d="M1866.47,-592.22C1841.97,-571.44 1805.19,-540.24 1770.13,-510.49" style=""/>
<polygon fill="red" stroke="red" points="1864.16,-594.85 1874.05,-598.65 1868.69,-589.52 1864.16,-594.85" style=""/>
<polygon fill="red" stroke="red" points="1772.78,-508.15 1762.89,-504.35 1768.25,-513.49 1772.78,-508.15" style=""/>
</g>
<!-- a&#45;&gt;0 -->
<g id="edge28" class="edge" data-name="a-&gt;0">

<path fill="none" stroke="blue" d="M2194.1,-632.47C2040.75,-662.99 1665.98,-735.97 1465.91,-774.33" style=""/>
<polygon fill="blue" stroke="blue" points="2194.59,-635.94 2203.71,-630.55 2193.22,-629.07 2194.59,-635.94" style=""/>
<polygon fill="blue" stroke="blue" points="1465.43,-770.86 1456.27,-776.18 1466.75,-777.74 1465.43,-770.86" style=""/>
</g>
<!-- a&#45;&gt;b -->
<g id="edge26" class="edge" data-name="a-&gt;b">

<path fill="none" stroke="blue" d="M2364.63,-605.17C2453.77,-597.29 2542.9,-596.84 2632.04,-603.79" style=""/>
<polygon fill="blue" stroke="blue" points="2364.44,-601.67 2354.8,-606.07 2365.08,-608.64 2364.44,-601.67" style=""/>
<polygon fill="blue" stroke="blue" points="2631.72,-607.28 2641.97,-604.6 2632.29,-600.3 2631.72,-607.28" style=""/>
</g>
<!-- c -->
<!-- Interface: {{description}} -->
<g id="node13" class="node" pointer-events="visible" data-name="c" data-comment="Interface: {{description}}">

<ellipse fill="none" stroke="darkred" cx="2262.08" cy="-425.48" rx="127.44" ry="127.44" style=""/>
<ellipse fill="none" stroke="darkred" cx="2262.08" cy="-425.48" rx="131.44" ry="131.44" style=""/>
<text text-anchor="middle" x="2262.08" y="-421.28" font-family="Times,serif" font-size="14.00" style="">{{Name}}.dispatch({{title}})</text>
</g>
<!-- a&#45;&gt;c -->
<g id="edge12" class="edge" data-name="a-&gt;c">

<path fill="none" stroke="red" d="M2262.08,-581.03C2262.08,-577.07 2262.08,-572.88 2262.08,-568.51" style=""/>
<polygon fill="red" stroke="red" points="2258.58,-580.92 2262.08,-590.92 2265.58,-580.92 2258.58,-580.92" style=""/>
<polygon fill="red" stroke="red" points="2265.58,-568.83 2262.08,-558.83 2258.58,-568.83 2265.58,-568.83" style=""/>
</g>
<!-- b&#45;&gt;a -->
<g id="edge27" class="edge" data-name="b-&gt;a">

<path fill="none" stroke="blue" d="M2653.04,-629.42C2562.43,-637.68 2471.83,-638.28 2381.22,-631.21" style=""/>
<polygon fill="blue" stroke="blue" points="2653.24,-632.92 2662.87,-628.49 2652.58,-625.95 2653.24,-632.92" style=""/>
<polygon fill="blue" stroke="blue" points="2381.77,-627.74 2371.52,-630.42 2381.2,-634.72 2381.77,-627.74" style=""/>
</g>
<!-- b&#45;&gt;c -->
<g id="edge13" class="edge" data-name="b-&gt;c">

<path fill="none" stroke="red" d="M2710.18,-600.6C2641.64,-573.97 2500.75,-519.22 2395.14,-478.18" style=""/>
<polygon fill="red" stroke="red" points="2708.86,-603.85 2719.45,-604.21 2711.4,-597.32 2708.86,-603.85" style=""/>
<polygon fill="red" stroke="red" points="2396.71,-475.04 2386.12,-474.68 2394.18,-481.56 2396.71,-475.04" style=""/>
</g>
<!-- f -->
<!-- Closure: {{description}} -->
<g id="node16" class="node" pointer-events="visible" data-name="f" data-comment="Closure: {{description}}">

<ellipse fill="none" stroke="lightgray" cx="1671.08" cy="-141.53" rx="112.95" ry="112.95" style=""/>
<ellipse fill="none" stroke="lightgray" cx="1671.08" cy="-141.53" rx="116.95" ry="116.95" style=""/>
<text text-anchor="middle" x="1671.08" y="-137.33" font-family="Times,serif" font-size="14.00" style="">{{Name}}.exec({{title}})</text>
</g>
<!-- c&#45;&gt;f -->
<g id="edge23" class="edge" data-name="c-&gt;f">

<path fill="none" stroke="red" d="M2133.35,-363.06C2030.04,-313.77 1886.3,-245.2 1786.65,-197.66" style=""/>
<polygon fill="red" stroke="red" points="2131.65,-366.13 2142.19,-367.28 2134.67,-359.81 2131.65,-366.13" style=""/>
<polygon fill="red" stroke="red" points="1788.44,-194.63 1777.9,-193.49 1785.42,-200.95 1788.44,-194.63" style=""/>
</g>
<!-- d&#45;&gt;f -->
<g id="edge24" class="edge" data-name="d-&gt;f">

<path fill="none" stroke="red" d="M908.72,-382.42C1081.8,-327.96 1381.06,-233.79 1548.53,-181.09" style=""/>
<polygon fill="red" stroke="red" points="907.72,-379.07 899.23,-385.41 909.82,-385.75 907.72,-379.07" style=""/>
<polygon fill="red" stroke="red" points="1549.44,-184.47 1557.93,-178.13 1547.34,-177.8 1549.44,-184.47" style=""/>
</g>
<!-- e&#45;&gt;f -->
<g id="edge25" class="edge" data-name="e-&gt;f">

<path fill="none" stroke="red" d="M1671.08,-294.4C1671.08,-286.35 1671.08,-278.25 1671.08,-270.21" style=""/>
<polygon fill="red" stroke="red" points="1667.58,-294.21 1671.08,-304.21 1674.58,-294.21 1667.58,-294.21" style=""/>
<polygon fill="red" stroke="red" points="1674.58,-270.4 1671.08,-260.4 1667.58,-270.4 1674.58,-270.4" style=""/>
</g>
</g>
</svg>