<?xml version="1.0" encoding="UTF-8"?>
<!DOCTYPE svg PUBLIC "-//W3C//DTD SVG 1.1//EN" "http://www.w3.org/Graphics/SVG/1.1/DTD/svg11.dtd">
<svg xmlns="http://www.w3.org/2000/svg" xml:space="preserve" width="2722px" height="3026px" version="1.1" shape-rendering="geometricPrecision" text-rendering="geometricPrecision" image-rendering="optimizeQuality" fill-rule="evenodd" clip-rule="evenodd"
viewBox="0 0 2721.87 3025.21"
 xmlns:xlink="http://www.w3.org/1999/xlink">
 <g id="sejatining_urip">
  <g id="flower_of_life">
   <circle id="_1" fill="none" stroke="black" stroke-width="2.08" stroke-miterlimit="2.61313" cx="1360.94" cy="1512.61" r="377.89"/>
   <g id="fol_g1">
    <circle id="_2" fill="none" stroke="black" stroke-width="2.08" stroke-miterlimit="2.61313" cx="1360.94" cy="1134.71" r="377.89"/>
    <circle id="_3" fill="none" stroke="black" stroke-width="2.08" stroke-miterlimit="2.61313" cx="1688.27" cy="1323.66" r="377.89"/>
    <circle id="_4" fill="none" stroke="black" stroke-width="2.08" stroke-miterlimit="2.61313" cx="1688.27" cy="1701.55" r="377.89"/>
    <circle id="_5" fill="none" stroke="black" stroke-width="2.08" stroke-miterlimit="2.61313" cx="1360.94" cy="1890.5" r="377.89"/>
    <circle id="_6" fill="none" stroke="black" stroke-width="2.08" stroke-miterlimit="2.61313" cx="1033.6" cy="1701.55" r="377.89"/>
    <circle id="_7" fill="none" stroke="black" stroke-width="2.08" stroke-miterlimit="2.61313" cx="1033.6" cy="1323.66" r="377.89"/>
   </g>
   <g id="fol_g2">
    <circle id="_8" fill="none" stroke="black" stroke-width="2.08" stroke-miterlimit="2.61313" cx="1688.27" cy="945.77" r="377.89"/>
    <circle id="_9" fill="none" stroke="black" stroke-width="2.08" stroke-miterlimit="2.61313" cx="2015.61" cy="1134.72" r="377.89"/>
    <circle id="_10" fill="none" stroke="black" stroke-width="2.08" stroke-miterlimit="2.61313" cx="2015.61" cy="1512.61" r="377.89"/>
    <circle id="_11" fill="none" stroke="black" stroke-width="2.08" stroke-miterlimit="2.61313" cx="2015.61" cy="1890.5" r="377.89"/>
    <circle id="_12" fill="none" stroke="black" stroke-width="2.08" stroke-miterlimit="2.61313" cx="1688.27" cy="2079.44" r="377.89"/>
    <circle id="_13" fill="none" stroke="black" stroke-width="2.08" stroke-miterlimit="2.61313" cx="1360.94" cy="2268.39" r="377.89"/>
    <circle id="_14" fill="none" stroke="black" stroke-width="2.08" stroke-miterlimit="2.61313" cx="1033.6" cy="2079.44" r="377.89"/>
    <circle id="_15" fill="none" stroke="black" stroke-width="2.08" stroke-miterlimit="2.61313" cx="706.27" cy="1890.49" r="377.89"/>
    <circle id="_16" fill="none" stroke="black" stroke-width="2.08" stroke-miterlimit="2.61313" cx="706.27" cy="1512.6" r="377.89"/>
    <circle id="_17" fill="none" stroke="black" stroke-width="2.08" stroke-miterlimit="2.61313" cx="706.27" cy="1134.71" r="377.89"/>
    <circle id="_18" fill="none" stroke="black" stroke-width="2.08" stroke-miterlimit="2.61313" cx="1033.6" cy="945.77" r="377.89"/>
    <circle id="_19" fill="none" stroke="black" stroke-width="2.08" stroke-miterlimit="2.61313" cx="1360.94" cy="756.82" r="377.89"/>
   </g>
   <g id="fol_g3_used">
    <circle id="_21" fill="none" stroke="black" stroke-width="2.08" stroke-miterlimit="2.61313" cx="2342.94" cy="945.77" r="377.89"/>
    <circle id="_27" fill="none" stroke="black" stroke-width="2.08" stroke-miterlimit="2.61313" cx="1360.94" cy="2646.28" r="377.89"/>
    <circle id="_30" fill="none" stroke="black" stroke-width="2.08" stroke-miterlimit="2.61313" cx="378.93" cy="2079.44" r="377.89"/>
    <circle id="_33" fill="none" stroke="black" stroke-width="2.08" stroke-miterlimit="2.61313" cx="378.93" cy="945.77" r="377.89"/>
    <circle id="_36" fill="none" stroke="black" stroke-width="2.08" stroke-miterlimit="2.61313" cx="1360.94" cy="378.93" r="377.89"/>
   </g>
   <g id="fol_g3_unused">
    <circle id="_20" fill="none" stroke="black" stroke-width="2.08" stroke-miterlimit="2.61313" stroke-dasharray="4.170000 10.420000" cx="2015.61" cy="756.83" r="377.89"/>
    <circle id="_22" fill="none" stroke="black" stroke-width="2.08" stroke-miterlimit="2.61313" stroke-dasharray="4.170000 10.420000" cx="2342.94" cy="1323.66" r="377.89"/>
    <circle id="_23" fill="none" stroke="black" stroke-width="2.08" stroke-miterlimit="2.61313" stroke-dasharray="4.170000 10.420000" cx="2342.94" cy="1701.55" r="377.89"/>
    <circle id="_24" fill="none" stroke="black" stroke-width="2.08" stroke-miterlimit="2.61313" stroke-dasharray="4.170000 10.420000" cx="2342.94" cy="2079.44" r="377.89"/>
    <circle id="_25" fill="none" stroke="black" stroke-width="2.08" stroke-miterlimit="2.61313" stroke-dasharray="4.170000 10.420000" cx="2015.61" cy="2268.39" r="377.89"/>
    <circle id="_26" fill="none" stroke="black" stroke-width="2.08" stroke-miterlimit="2.61313" stroke-dasharray="4.170000 10.420000" cx="1688.27" cy="2457.33" r="377.89"/>
    <circle id="_28" fill="none" stroke="black" stroke-width="2.08" stroke-miterlimit="2.61313" stroke-dasharray="4.170000 10.420000" cx="1033.6" cy="2457.33" r="377.89"/>
    <circle id="_29" fill="none" stroke="black" stroke-width="2.08" stroke-miterlimit="2.61313" stroke-dasharray="4.170000 10.420000" cx="706.27" cy="2268.38" r="377.89"/>
    <circle id="_31" fill="none" stroke="black" stroke-width="2.08" stroke-miterlimit="2.61313" stroke-dasharray="4.170000 10.420000" cx="378.93" cy="1701.55" r="377.89"/>
    <circle id="_32" fill="none" stroke="black" stroke-width="2.08" stroke-miterlimit="2.61313" stroke-dasharray="4.170000 10.420000" cx="378.93" cy="1323.66" r="377.89"/>
    <circle id="_34" fill="none" stroke="black" stroke-width="2.08" stroke-miterlimit="2.61313" stroke-dasharray="4.170000 10.420000" cx="706.27" cy="756.82" r="377.89"/>
    <circle id="_35" fill="none" stroke="black" stroke-width="2.08" stroke-miterlimit="2.61313" stroke-dasharray="4.170000 10.420000" cx="1033.6" cy="567.88" r="377.89"/>
    <circle id="_37" fill="none" stroke="black" stroke-width="2.08" stroke-miterlimit="2.61313" stroke-dasharray="4.170000 10.420000" cx="1688.27" cy="567.88" r="377.89"/>
   </g>
  </g>
  <g id="shadow_of_life">
   <g id="s2">
    <g id="shadow_of_1">
     <path fill="red" d="M1738.83 1134.71c0,-208.7 -169.19,-377.89 -377.89,-377.89 -208.71,0 -377.89,169.19 -377.89,377.89 0,68.83 18.4,133.37 50.55,188.95 65.34,-112.95 187.46,-188.95 327.34,-188.95 139.87,0 261.99,76 327.33,188.95 32.16,-55.58 50.56,-120.12 50.56,-188.95z"/>
     <path fill="red" d="M1688.27 1323.66c-65.34,112.95 -187.46,188.95 -327.33,188.95 -139.88,0 -262,-76 -327.34,-188.95 -32.15,55.58 -50.55,120.11 -50.55,188.95 0,208.7 169.18,377.89 377.89,377.89 208.7,0 377.89,-169.19 377.89,-377.89 0,-68.84 -18.4,-133.37 -50.56,-188.95z"/>
    </g>
    <path fill="blue" d="M1360.94 1512.61c139.87,0 261.99,-76 327.33,-188.95 -65.34,-112.95 -187.46,-188.95 -327.33,-188.95 -139.88,0 -262,76 -327.34,188.95 65.34,112.95 187.46,188.95 327.34,188.95z"/>
   </g>
   <g id="s3">
    <path fill="red" d="M2066.16 1323.66c0,-208.7 -169.18,-377.89 -377.89,-377.89 32.16,55.58 50.56,120.11 50.56,188.94 0,68.83 -18.4,133.37 -50.56,188.95 32.16,55.58 50.56,120.11 50.56,188.95 0,68.83 -18.4,133.36 -50.56,188.94 208.71,0 377.89,-169.19 377.89,-377.89z"/>
    <path fill="red" d="M1360.94 1134.71c65.34,-112.95 187.46,-188.94 327.33,-188.94 -65.34,-112.95 -187.46,-188.95 -327.33,-188.95 -208.71,0 -377.89,169.19 -377.89,377.89 0,68.83 18.4,133.37 50.55,188.95 65.34,-112.95 187.46,-188.95 327.34,-188.95z"/>
    <path fill="red" d="M1360.94 1512.61c-139.88,0 -262,-76 -327.34,-188.95 -32.15,55.58 -50.55,120.11 -50.55,188.95 0,208.7 169.18,377.89 377.89,377.89 139.87,0 261.99,-76 327.33,-188.95 -139.87,0 -261.99,-75.99 -327.33,-188.94z"/>
    <path fill="green" d="M1360.94 1134.71c139.87,0 261.99,76 327.33,188.95 32.16,-55.58 50.56,-120.12 50.56,-188.95 0,-68.83 -18.4,-133.36 -50.56,-188.94 -139.87,0 -261.99,75.99 -327.33,188.94z"/>
    <path fill="green" d="M1310.38 1323.66c0,-68.83 18.4,-133.36 50.56,-188.95 -139.88,0 -262,76 -327.34,188.95 65.34,112.95 187.46,188.95 327.34,188.95 -32.16,-55.59 -50.56,-120.12 -50.56,-188.95z"/>
    <path fill="green" d="M1688.27 1323.66c-65.34,112.95 -187.46,188.95 -327.33,188.95 65.34,112.95 187.46,188.94 327.33,188.94 32.16,-55.58 50.56,-120.11 50.56,-188.94 0,-68.84 -18.4,-133.37 -50.56,-188.95z"/>
    <path fill="blue" d="M1688.27 1323.66c-65.34,-112.95 -187.46,-188.95 -327.33,-188.95 -32.16,55.59 -50.56,120.12 -50.56,188.95 0,68.83 18.4,133.36 50.56,188.95 139.87,0 261.99,-76 327.33,-188.95z"/>
   </g>
   <g id="s7">
    <g id="s7g4_6">
     <path fill="red" d="M1360.94 1134.71c-32.16,55.59 -50.56,120.12 -50.56,188.95 0,68.48 18.22,132.71 50.07,188.11 0.16,0.27 0.33,0.55 0.49,0.84 0.03,-0.07 0.07,-0.13 0.11,-0.19 32.08,-55.54 50.44,-120.01 50.44,-188.76 0,-68.83 -18.4,-133.36 -50.55,-188.95z"/>
     <path fill="red" d="M1360.45 1511.77c-65.46,-112.49 -187.32,-188.11 -326.85,-188.11 65.34,112.95 187.46,188.95 327.34,188.95 -0.16,-0.29 -0.33,-0.57 -0.49,-0.84z"/>
     <path fill="red" d="M1360.26 1512.61c-139.59,0.24 -261.42,76.17 -326.66,188.94 139.8,0 261.86,-75.91 327.23,-188.76 0.03,-0.06 0.07,-0.12 0.11,-0.18 -0.23,0 -0.45,0 -0.68,0z"/>
     <path fill="red" d="M1360.83 1512.79c-32.09,55.54 -50.45,120.01 -50.45,188.76 0,68.83 18.4,133.36 50.56,188.95 32.15,-55.59 50.55,-120.12 50.55,-188.95 0,-68.48 -18.21,-132.71 -50.07,-188.11 -0.16,-0.27 -0.32,-0.55 -0.48,-0.84 -0.04,0.07 -0.08,0.13 -0.11,0.19z"/>
     <path fill="red" d="M1361.42 1513.44c65.46,112.49 187.33,188.11 326.85,188.11 -65.34,-112.95 -187.46,-188.94 -327.33,-188.95 0.16,0.29 0.32,0.57 0.48,0.84z"/>
     <path fill="red" d="M1361.05 1512.42c-0.04,0.06 -0.08,0.12 -0.11,0.18 0.03,-0.06 0.07,-0.12 0.11,-0.18zm0.56 0.19c139.59,-0.25 261.43,-76.18 326.66,-188.95 -139.7,0 -261.7,75.81 -327.1,188.54 -0.04,0.07 -0.08,0.14 -0.12,0.22 -0.04,0.06 -0.08,0.12 -0.11,0.18 0.22,0 0.45,0 0.67,0.01z"/>
    </g>
    <g id="s7g2_6">
     <path fill="green" d="M1360.94 1134.71c139.87,0 261.99,76 327.33,188.95 32.16,-55.58 50.56,-120.12 50.56,-188.95 0,-68.83 -18.4,-133.36 -50.56,-188.94 -139.87,0 -261.99,75.99 -327.33,188.94z"/>
     <path fill="green" d="M1360.94 1134.71c-65.34,-112.95 -187.46,-188.94 -327.34,-188.94 -32.15,55.58 -50.55,120.11 -50.55,188.94 0,68.83 18.4,133.37 50.55,188.95 65.34,-112.95 187.46,-188.95 327.34,-188.95z"/>
     <path fill="green" d="M1033.6 1323.66c-139.87,0 -261.99,75.99 -327.33,188.94 65.34,112.96 187.46,188.95 327.33,188.95 -32.15,-55.58 -50.55,-120.11 -50.55,-188.94 0,-68.84 18.4,-133.37 50.55,-188.95z"/>
     <path fill="green" d="M1360.94 1890.5c-139.88,0 -262,-76 -327.34,-188.95 -32.15,55.58 -50.55,120.12 -50.55,188.95 0,68.83 18.4,133.36 50.55,188.94 139.88,0 262,-75.99 327.34,-188.94z"/>
     <path fill="green" d="M1688.27 1701.55c-65.34,112.95 -187.46,188.95 -327.33,188.95 65.34,112.95 187.46,188.94 327.33,188.94 32.16,-55.58 50.56,-120.11 50.56,-188.94 0,-68.83 -18.4,-133.37 -50.56,-188.95z"/>
     <path fill="green" d="M1688.27 1701.55c139.88,0 262,-75.99 327.34,-188.94 -65.34,-112.96 -187.46,-188.95 -327.34,-188.95 32.16,55.58 50.56,120.11 50.56,188.95 0,68.83 -18.4,133.36 -50.56,188.94z"/>
    </g>
    <g id="s7g1_6">
     <path fill="blue" d="M1688.27 1323.66c139.88,0 262,75.99 327.34,188.95 32.15,-55.59 50.55,-120.12 50.55,-188.95 0,-208.7 -169.18,-377.89 -377.89,-377.89 32.16,55.58 50.56,120.11 50.56,188.94 0,68.83 -18.4,133.37 -50.56,188.95z"/>
     <path fill="blue" d="M1360.94 1134.71c65.34,-112.95 187.46,-188.94 327.33,-188.94 -65.34,-112.95 -187.46,-188.95 -327.33,-188.95 -139.88,0 -262,76 -327.34,188.95 139.88,0 262,75.99 327.34,188.94z"/>
     <path fill="blue" d="M1033.6 1701.55c-139.87,0 -261.99,-75.99 -327.33,-188.95 -32.16,55.59 -50.56,120.12 -50.56,188.95 0,208.7 169.19,377.89 377.89,377.89 -32.15,-55.58 -50.55,-120.11 -50.55,-188.94 0,-68.83 18.4,-133.37 50.55,-188.95z"/>
     <path fill="blue" d="M1360.94 1890.5c-65.34,112.95 -187.46,188.94 -327.34,188.94 65.34,112.95 187.46,188.95 327.34,188.95 139.87,0 261.99,-76 327.33,-188.95 -139.87,0 -261.99,-75.99 -327.33,-188.94z"/>
     <path fill="blue" d="M1688.27 1701.55c32.16,55.58 50.56,120.12 50.56,188.95 0,68.83 -18.4,133.36 -50.56,188.94 208.71,0 377.89,-169.19 377.89,-377.89 0,-68.83 -18.4,-133.36 -50.55,-188.94 -65.34,112.95 -187.46,188.94 -327.34,188.94z"/>
     <path fill="blue" d="M1033.6 1323.66c-32.15,-55.58 -50.55,-120.12 -50.55,-188.95 0,-68.83 18.4,-133.36 50.55,-188.94 -208.7,0 -377.89,169.19 -377.89,377.89 0,68.83 18.4,133.36 50.56,188.94 65.34,-112.95 187.46,-188.94 327.33,-188.94z"/>
    </g>
    <g id="s7g3_6">
     <path fill="cyan" d="M1688.27 1323.66c-65.34,-112.95 -187.46,-188.95 -327.33,-188.95 32.15,55.59 50.55,120.12 50.55,188.95 0,68.75 -18.36,133.22 -50.44,188.76 65.36,-112.85 187.43,-188.76 327.22,-188.76z"/>
     <path fill="cyan" d="M1310.38 1323.66c0,-68.83 18.4,-133.36 50.56,-188.95 -139.88,0 -262,76 -327.34,188.95 139.53,0 261.39,75.62 326.85,188.11 -31.85,-55.4 -50.07,-119.63 -50.07,-188.11z"/>
     <path fill="cyan" d="M1360.94 1512.61c-139.88,0 -262,-76 -327.34,-188.95 -32.15,55.58 -50.55,120.11 -50.55,188.95 0,68.83 18.4,133.36 50.55,188.94 65.34,-112.95 187.46,-188.94 327.34,-188.94z"/>
     <path fill="cyan" d="M1360.83 1512.79c-65.37,112.85 -187.43,188.76 -327.23,188.76 65.34,112.95 187.46,188.95 327.34,188.95 -32.16,-55.59 -50.56,-120.12 -50.56,-188.95 0,-68.75 18.36,-133.22 50.45,-188.76z"/>
     <path fill="cyan" d="M1411.49 1701.55c0,68.83 -18.4,133.36 -50.55,188.95 139.87,0 261.99,-76 327.33,-188.95 -139.52,0 -261.39,-75.62 -326.85,-188.11 31.86,55.4 50.07,119.63 50.07,188.11z"/>
     <path fill="cyan" d="M1360.94 1512.61c139.87,0 261.99,75.99 327.33,188.94 32.16,-55.58 50.56,-120.11 50.56,-188.94 0,-68.84 -18.4,-133.37 -50.56,-188.95 -65.34,112.95 -187.46,188.95 -327.33,188.95z"/>
    </g>
   </g>
   <g id="s24">
    <g id="s24g1_40">
     <g id="s24g1t2">
      <path fill="red" d="M1688.16 1701.74c-65.36,112.85 -187.43,188.76 -327.22,188.76 139.79,0 261.86,-75.91 327.22,-188.76zm-0.37 376.86c-65.46,-112.49 -187.33,-188.1 -326.85,-188.11 0.16,0.29 0.32,0.57 0.48,0.85 65.46,112.48 187.33,188.1 326.85,188.1 -0.16,-0.28 -0.32,-0.56 -0.48,-0.84z"/>
      <path fill="red" d="M1360.94 756.82c-65.34,-112.95 -187.46,-188.94 -327.34,-188.94 65.34,112.95 187.46,188.94 327.34,188.94z"/>
      <path fill="red" d="M1688.27 567.88c-139.87,0 -261.99,75.99 -327.33,188.94 139.87,0 261.99,-75.99 327.33,-188.94z"/>
      <path fill="red" d="M1411.49 945.77c0,-68.83 -18.4,-133.36 -50.55,-188.95 -32.16,55.59 -50.56,120.12 -50.56,188.95 0,68.48 18.22,132.71 50.07,188.1 0.16,0.28 0.33,0.56 0.49,0.85 0.03,-0.07 0.07,-0.13 0.11,-0.19 32.08,-55.55 50.44,-120.01 50.44,-188.76z"/>
      <path fill="red" d="M1411.49 1323.66c0,-68.48 -18.21,-132.71 -50.07,-188.11 -0.16,-0.27 -0.32,-0.55 -0.48,-0.84 -0.04,0.07 -0.08,0.13 -0.11,0.19 -32.09,55.54 -50.45,120.01 -50.45,188.76 0,68.48 18.22,132.71 50.07,188.11 0.16,0.27 0.33,0.55 0.49,0.84 0.03,-0.07 0.07,-0.13 0.11,-0.19 32.08,-55.54 50.44,-120.01 50.44,-188.76z"/>
      <path fill="red" d="M1411.49 1701.55c0,-68.48 -18.21,-132.71 -50.07,-188.11 -0.16,-0.27 -0.32,-0.55 -0.48,-0.84 -0.04,0.07 -0.08,0.13 -0.11,0.19 -32.09,55.54 -50.45,120.01 -50.45,188.76 0,68.48 18.22,132.71 50.07,188.11 0.16,0.28 0.33,0.55 0.49,0.84 0.03,-0.07 0.07,-0.13 0.11,-0.19 32.08,-55.54 50.44,-120.01 50.44,-188.76z"/>
      <path fill="red" d="M1411.49 2079.44c0,-68.48 -18.21,-132.71 -50.07,-188.1 -0.16,-0.28 -0.32,-0.56 -0.48,-0.85 -0.04,0.07 -0.08,0.13 -0.11,0.19 -32.09,55.55 -50.45,120.01 -50.45,188.76 0,68.83 18.4,133.37 50.56,188.95 32.15,-55.59 50.55,-120.12 50.55,-188.95z"/>
      <path fill="red" d="M1033.71 2079.25c32.09,-55.54 50.45,-120 50.45,-188.76 0,-68.48 -18.22,-132.71 -50.07,-188.1 -0.16,-0.28 -0.33,-0.56 -0.49,-0.84 -0.03,0.06 -0.07,0.13 -0.11,0.19 -32.08,55.54 -50.44,120 -50.44,188.76 0,68.83 18.4,133.36 50.55,188.94 0.04,-0.06 0.08,-0.13 0.11,-0.19z"/>
      <path fill="red" d="M1033.71 2079.25c-0.03,0.06 -0.07,0.13 -0.11,0.19 0.04,-0.06 0.08,-0.13 0.11,-0.19zm327.23 -188.75c-139.71,0 -261.71,75.81 -327.1,188.54 -0.05,0.07 -0.09,0.14 -0.13,0.21 -0.03,0.07 -0.07,0.13 -0.11,0.19 139.71,0 261.71,-75.81 327.1,-188.54 0.04,-0.07 0.09,-0.14 0.13,-0.22 0.03,-0.06 0.07,-0.12 0.11,-0.18z"/>
      <path fill="red" d="M1033.6 1701.55c-139.87,0 -261.99,75.99 -327.33,188.94 139.7,0 261.7,-75.81 327.1,-188.54 0.04,-0.07 0.08,-0.14 0.12,-0.21 0.04,-0.06 0.08,-0.13 0.11,-0.19z"/>
      <path fill="red" d="M706.27 1512.6c65.34,112.96 187.46,188.95 327.33,188.95 -0.16,-0.28 -0.32,-0.56 -0.48,-0.84 -65.46,-112.49 -187.33,-188.11 -326.85,-188.11z"/>
      <path fill="red" d="M1360.94 1890.5c-0.16,-0.29 -0.33,-0.56 -0.49,-0.84 0.16,0.28 0.33,0.55 0.49,0.84zm-326.85 -188.11c65.46,112.49 187.32,188.11 326.85,188.11 -0.17,-0.28 -0.33,-0.56 -0.49,-0.84 -65.46,-112.49 -187.32,-188.11 -326.85,-188.11 0.16,0.28 0.33,0.56 0.49,0.84z"/>
      <path fill="red" d="M1360.83 1512.79c0.03,-0.06 0.07,-0.12 0.11,-0.18 -0.04,0.06 -0.08,0.12 -0.11,0.18zm-326.55 188.76c139.42,-0.25 261.13,-75.99 326.42,-188.54 0.04,-0.07 0.09,-0.14 0.13,-0.22 0.03,-0.06 0.07,-0.12 0.11,-0.18 -139.8,0 -261.86,75.9 -327.23,188.75 -0.03,0.06 -0.07,0.13 -0.11,0.19 0.23,0 0.45,0 0.68,0z"/>
      <path fill="red" d="M1033.12 1700.71c0.16,0.28 0.32,0.56 0.48,0.84 -0.16,-0.28 -0.32,-0.56 -0.48,-0.84zm51.04 -188.11c0,-68.48 -18.22,-132.71 -50.07,-188.1 -0.16,-0.28 -0.33,-0.56 -0.49,-0.84 -0.03,0.06 -0.07,0.12 -0.11,0.19 -32.08,55.54 -50.44,120 -50.44,188.76 0,68.46 18.2,132.67 50.04,188.05 0.01,0.02 0.02,0.03 0.03,0.05 0.16,0.28 0.32,0.56 0.48,0.84 0.04,-0.06 0.08,-0.13 0.11,-0.19 32.09,-55.54 50.45,-120 50.45,-188.76z"/>
      <path fill="red" d="M1033.49 1323.85c0.04,-0.07 0.08,-0.13 0.11,-0.19 -0.03,0.06 -0.07,0.12 -0.11,0.19zm-327.22 188.75c139.7,0 261.7,-75.81 327.1,-188.54 0.04,-0.07 0.08,-0.14 0.12,-0.21 0.04,-0.07 0.08,-0.13 0.11,-0.19 -139.87,0 -261.99,75.99 -327.33,188.94z"/>
      <path fill="red" d="M706.27 1512.6c65.34,-112.95 187.46,-188.94 327.33,-188.94 -139.87,0 -261.99,75.99 -327.33,188.94zm0 -377.89c65.34,112.95 187.46,188.95 327.33,188.95 -0.16,-0.28 -0.32,-0.56 -0.48,-0.84 -65.46,-112.49 -187.33,-188.11 -326.85,-188.11z"/>
      <path fill="red" d="M2015.61 1512.61c-139.8,0 -261.86,75.91 -327.23,188.75 -0.03,0.07 -0.07,0.13 -0.11,0.19 139.88,0 262,-75.99 327.34,-188.94z"/>
      <path fill="red" d="M1033.12 1322.82c0.16,0.28 0.32,0.56 0.48,0.84 -0.16,-0.28 -0.32,-0.56 -0.48,-0.84zm0.48 -377.05c-32.15,55.58 -50.55,120.11 -50.55,188.94 0,68.47 18.2,132.68 50.04,188.06 0.01,0.02 0.02,0.03 0.03,0.05 0.16,0.28 0.32,0.56 0.48,0.84 0.04,-0.06 0.08,-0.13 0.11,-0.19 32.09,-55.54 50.45,-120.01 50.45,-188.76 0,-68.48 -18.22,-132.71 -50.07,-188.1 -0.16,-0.28 -0.33,-0.56 -0.49,-0.84z"/>
      <path fill="red" d="M1360.94 1134.72c-0.16,-0.29 -0.33,-0.57 -0.49,-0.85 0.16,0.28 0.33,0.56 0.49,0.85zm-326.85 -188.11c65.46,112.49 187.32,188.1 326.85,188.11 -0.17,-0.28 -0.33,-0.56 -0.49,-0.85 -65.46,-112.48 -187.32,-188.1 -326.85,-188.1 0.17,0.28 0.33,0.56 0.49,0.84z"/>
      <path fill="red" d="M1033.71 1323.47c-0.03,0.06 -0.07,0.13 -0.11,0.19 0.04,-0.07 0.08,-0.13 0.11,-0.19zm327.12 -188.57c0.03,-0.06 0.07,-0.12 0.11,-0.18 -0.04,0.06 -0.08,0.12 -0.11,0.18zm-0.57 -0.19c-139.42,0.25 -261.13,76 -326.42,188.54 -0.05,0.08 -0.09,0.15 -0.13,0.22 -0.03,0.06 -0.07,0.13 -0.11,0.19 139.71,0 261.71,-75.81 327.1,-188.54 0.04,-0.07 0.09,-0.14 0.13,-0.22 0.03,-0.06 0.07,-0.12 0.11,-0.18 -0.23,0 -0.45,0 -0.68,-0.01zm-326.42 188.54c-0.05,0.08 -0.09,0.15 -0.13,0.22 0.04,-0.07 0.08,-0.14 0.13,-0.22z"/>
      <path fill="red" d="M1361.42 1135.55c65.46,112.49 187.33,188.11 326.85,188.11 -0.16,-0.28 -0.32,-0.56 -0.48,-0.84 -65.46,-112.49 -187.33,-188.11 -326.85,-188.11 0.16,0.29 0.32,0.57 0.48,0.84z"/>
      <path fill="red" d="M1361.05 1134.53c-0.04,0.06 -0.08,0.12 -0.11,0.18 0.03,-0.06 0.07,-0.12 0.11,-0.18zm0.56 0.18c139.51,-0.24 261.29,-76.09 326.55,-188.75 0.04,-0.06 0.08,-0.13 0.11,-0.19 -139.7,0 -261.7,75.81 -327.1,188.54 -0.04,0.07 -0.08,0.14 -0.12,0.22 -0.04,0.06 -0.08,0.12 -0.11,0.18 0.22,0 0.45,0 0.67,0z"/>
      <path fill="red" d="M1687.79 1322.82c0.16,0.28 0.32,0.56 0.48,0.84 -0.16,-0.28 -0.32,-0.56 -0.48,-0.84zm0.37 -376.86c-32.08,55.54 -50.44,120 -50.44,188.76 0,68.46 18.2,132.67 50.04,188.05 0.01,0.02 0.02,0.03 0.03,0.05 0.16,0.28 0.32,0.56 0.48,0.84 0.04,-0.06 0.08,-0.12 0.11,-0.19 32.09,-55.54 50.45,-120 50.45,-188.76 0,-68.83 -18.4,-133.36 -50.56,-188.94 -0.03,0.06 -0.07,0.13 -0.11,0.19zm0.11 -0.19c-0.03,0.06 -0.07,0.13 -0.11,0.19 0.04,-0.06 0.08,-0.13 0.11,-0.19z"/>
      <path fill="red" d="M1738.83 1512.61c0,-68.49 -18.22,-132.72 -50.07,-188.11 -0.16,-0.28 -0.33,-0.56 -0.49,-0.84 -0.03,0.06 -0.07,0.13 -0.11,0.19 -32.08,55.54 -50.44,120 -50.44,188.76 0,68.48 18.21,132.71 50.07,188.1 0.16,0.28 0.32,0.56 0.48,0.84 0.04,-0.06 0.08,-0.12 0.11,-0.19 32.09,-55.54 50.45,-120 50.45,-188.75z"/>
      <path fill="red" d="M1688.16 1323.85c0.04,-0.06 0.08,-0.13 0.11,-0.19 -0.03,0.06 -0.07,0.13 -0.11,0.19zm-327.22 188.76c139.7,0 261.7,-75.82 327.1,-188.54 0.04,-0.08 0.08,-0.15 0.12,-0.22 0.04,-0.06 0.08,-0.13 0.11,-0.19 -0.22,0 -0.45,0 -0.67,0 -139.43,0.25 -261.14,75.99 -326.43,188.54 -0.04,0.07 -0.08,0.14 -0.12,0.22 -0.04,0.06 -0.08,0.12 -0.11,0.19z"/>
      <path fill="red" d="M1033.6 1323.66c0.16,0.28 0.33,0.56 0.49,0.84 -0.16,-0.28 -0.33,-0.56 -0.49,-0.84zm326.85 188.11c-65.46,-112.49 -187.32,-188.11 -326.85,-188.11 0.17,0.28 0.33,0.56 0.49,0.84 65.46,112.49 187.32,188.11 326.85,188.11 -0.16,-0.29 -0.33,-0.57 -0.49,-0.84z"/>
      <path fill="red" d="M1360.94 1512.6c0.16,0.29 0.32,0.57 0.48,0.84 -0.16,-0.27 -0.32,-0.55 -0.48,-0.84zm326.85 188.11c-65.46,-112.49 -187.33,-188.1 -326.85,-188.11 0.16,0.28 0.32,0.56 0.48,0.84 65.46,112.49 187.33,188.11 326.85,188.11 -0.16,-0.28 -0.32,-0.56 -0.48,-0.84z"/>
      <path fill="red" d="M1361.05 1890.31c-0.04,0.06 -0.08,0.12 -0.11,0.18 0.03,-0.06 0.07,-0.12 0.11,-0.18zm326.55 -188.76c-139.43,0.25 -261.14,75.99 -326.43,188.54 -0.04,0.07 -0.08,0.15 -0.12,0.22 -0.04,0.06 -0.08,0.12 -0.11,0.19 139.79,0 261.86,-75.91 327.22,-188.76 0.04,-0.06 0.08,-0.12 0.11,-0.19 -0.22,0 -0.45,0 -0.67,0z"/>
      <path fill="red" d="M1687.79 2078.6c0.16,0.28 0.32,0.56 0.48,0.84 -0.16,-0.28 -0.32,-0.56 -0.48,-0.84zm0.37 -376.86c-32.08,55.54 -50.44,120.01 -50.44,188.76 0,68.46 18.2,132.67 50.04,188.05 0.01,0.02 0.02,0.04 0.03,0.05 0.16,0.28 0.32,0.56 0.48,0.84 32.16,-55.58 50.56,-120.11 50.56,-188.94 0,-68.49 -18.22,-132.72 -50.07,-188.11 -0.16,-0.28 -0.33,-0.56 -0.49,-0.84 -0.03,0.06 -0.07,0.13 -0.11,0.19z"/>
      <path fill="red" d="M1688.76 1702.39c65.46,112.49 187.32,188.11 326.85,188.11 -65.34,-112.95 -187.46,-188.95 -327.34,-188.95 0.16,0.28 0.33,0.56 0.49,0.84z"/>
      <path fill="red" d="M1688.76 1324.5c65.46,112.49 187.32,188.11 326.85,188.11 -65.34,-112.96 -187.46,-188.95 -327.34,-188.95 0.16,0.28 0.33,0.56 0.49,0.84z"/>
      <path fill="red" d="M1688.38 1323.47c-0.03,0.07 -0.07,0.13 -0.11,0.19 0.04,-0.06 0.08,-0.13 0.11,-0.19zm0.57 0.19c139.59,-0.24 261.42,-76.17 326.66,-188.94 -139.71,0 -261.71,75.81 -327.1,188.54 -0.05,0.07 -0.09,0.14 -0.13,0.21 -0.03,0.07 -0.07,0.13 -0.11,0.19 0.23,0 0.45,0 0.68,0z"/>
     </g>
     <g id="s24g1t1">
      <path fill="red" d="M1688.27 2457.33c-65.34,-112.95 -187.46,-188.94 -327.33,-188.94 65.34,112.95 187.46,188.94 327.33,188.94z"/>
      <path fill="red" d="M1033.6 2457.33c139.88,0 262,-75.99 327.34,-188.94 -139.88,0 -262,75.99 -327.34,188.94z"/>
      <path fill="red" d="M1965.05 945.77c0,68.49 18.22,132.72 50.07,188.11 0.16,0.28 0.33,0.56 0.49,0.84 32.15,-55.59 50.55,-120.12 50.55,-188.95 0,-68.83 -18.4,-133.36 -50.55,-188.94 -32.16,55.58 -50.56,120.11 -50.56,188.94z"/>
      <path fill="red" d="M2342.94 1323.66c-65.34,-112.95 -187.46,-188.94 -327.33,-188.94 0.16,0.28 0.32,0.56 0.48,0.84 65.46,112.48 187.33,188.1 326.85,188.1z"/>
      <path fill="red" d="M378.93 1323.66c139.8,0 261.86,-75.91 327.23,-188.76 0.03,-0.06 0.07,-0.12 0.11,-0.19 -139.88,0 -262,76 -327.34,188.95z"/>
      <path fill="red" d="M655.71 945.77c0,68.83 18.4,133.36 50.56,188.94 0.03,-0.06 0.07,-0.12 0.11,-0.19 32.08,-55.54 50.44,-120 50.44,-188.75 0,-68.84 -18.4,-133.37 -50.55,-188.95 -32.16,55.58 -50.56,120.12 -50.56,188.95z"/>
      <path fill="red" d="M706.27 2268.38c32.15,-55.58 50.55,-120.11 50.55,-188.94 0,-68.49 -18.21,-132.72 -50.07,-188.11 -0.16,-0.28 -0.32,-0.56 -0.48,-0.84 -32.16,55.59 -50.56,120.12 -50.56,188.95 0,68.83 18.4,133.36 50.56,188.94z"/>
      <path fill="red" d="M378.93 1701.55c65.34,112.95 187.46,188.94 327.34,188.94 -0.17,-0.28 -0.33,-0.55 -0.49,-0.84 -65.46,-112.48 -187.32,-188.1 -326.85,-188.1z"/>
     </g>
    </g>
    <g id="s24g2_6">
     <path fill="green" d="M1360.94 756.82c65.34,-112.95 187.46,-188.94 327.33,-188.94 -65.34,-112.95 -187.46,-188.95 -327.33,-188.95 -139.88,0 -262,76 -327.34,188.95 139.88,0 262,75.99 327.34,188.94z"/>
     <path fill="green" d="M706.27 1134.71c-32.16,-55.58 -50.56,-120.11 -50.56,-188.94 0,-68.83 18.4,-133.37 50.56,-188.95 -208.71,0 -377.89,169.19 -377.89,377.89 0,68.83 18.4,133.36 50.55,188.95 65.34,-112.95 187.46,-188.95 327.34,-188.95z"/>
     <path fill="green" d="M2015.61 1890.5c32.15,55.58 50.55,120.11 50.55,188.94 0,68.83 -18.4,133.37 -50.55,188.95 208.7,0 377.89,-169.19 377.89,-377.89 0,-68.83 -18.4,-133.36 -50.56,-188.95 -65.34,112.95 -187.46,188.95 -327.33,188.95z"/>
     <path fill="green" d="M2015.61 1134.72c139.87,0 261.99,75.99 327.33,188.94 32.16,-55.58 50.56,-120.11 50.56,-188.94 0,-208.71 -169.19,-377.89 -377.89,-377.9 32.15,55.59 50.55,120.12 50.55,188.95 0,68.83 -18.4,133.36 -50.55,188.95z"/>
     <path fill="green" d="M1688.27 2457.33c-139.87,0 -261.99,-75.99 -327.33,-188.94 -65.34,112.95 -187.46,188.94 -327.34,188.94 65.34,112.95 187.46,188.95 327.34,188.95 139.87,0 261.99,-76 327.33,-188.95z"/>
     <path fill="green" d="M655.71 2079.44c0,-68.83 18.4,-133.36 50.56,-188.95 -139.88,0 -262,-75.99 -327.34,-188.94 -32.15,55.58 -50.55,120.11 -50.55,188.94 0,208.71 169.18,377.89 377.89,377.9 -32.16,-55.59 -50.56,-120.12 -50.56,-188.95z"/>
    </g>
    <g id="s24g3_5">
     <path fill="blue" d="M2342.94 567.88c-139.87,0 -261.99,75.99 -327.33,188.95 208.7,0 377.89,169.18 377.89,377.89 0,68.83 -18.4,133.36 -50.56,188.94 208.71,0 377.89,-169.18 377.89,-377.89 0,-208.7 -169.18,-377.89 -377.89,-377.89z"/>
     <path fill="blue" d="M1688.27 567.88c32.16,-55.59 50.56,-120.12 50.56,-188.95 0,-208.7 -169.19,-377.89 -377.89,-377.89 -208.71,0 -377.89,169.19 -377.89,377.89 0,68.83 18.4,133.36 50.55,188.95 65.34,-112.95 187.46,-188.95 327.34,-188.95 139.87,0 261.99,76 327.33,188.95z"/>
     <path fill="blue" d="M706.27 756.82c-65.34,-112.95 -187.46,-188.95 -327.34,-188.95 -208.7,0 -377.89,169.19 -377.89,377.9 0,208.7 169.19,377.89 377.89,377.89 -32.15,-55.59 -50.55,-120.12 -50.55,-188.95 0,-208.7 169.18,-377.89 377.89,-377.89z"/>
     <path fill="blue" d="M378.93 1701.55c-208.7,0 -377.89,169.18 -377.89,377.89 0,208.7 169.19,377.89 377.89,377.89 139.88,0 262,-75.99 327.34,-188.95 -208.71,0 -377.89,-169.18 -377.89,-377.89 0,-68.83 18.4,-133.36 50.55,-188.94z"/>
     <path fill="blue" d="M1033.6 2457.33c-32.15,55.59 -50.55,120.12 -50.55,188.95 0,208.7 169.18,377.89 377.89,377.89 208.7,0 377.89,-169.19 377.89,-377.89 0,-68.83 -18.4,-133.36 -50.56,-188.95 -65.34,112.95 -187.46,188.95 -327.33,188.95 -139.88,0 -262,-76 -327.34,-188.95z"/>
    </g>
    <g id="s24g4_28">
     <g id="s24g4t1">
      <path fill="cyan" d="M2015.61 1512.61c-65.24,112.77 -187.07,188.7 -326.66,188.94 139.59,0.25 261.42,76.18 326.66,188.95 32.15,-55.59 50.55,-120.12 50.55,-188.95 0,-68.83 -18.4,-133.36 -50.55,-188.94z"/>
      <path fill="cyan" d="M2015.61 1890.5c-139.51,0 -261.36,-75.6 -326.82,-188.06 31.83,55.38 50.04,119.59 50.04,188.06 0,68.83 -18.4,133.36 -50.56,188.94 139.88,0 262,-75.99 327.34,-188.94z"/>
     </g>
     <g id="s24g4t2">
      <path fill="cyan" d="M1738.83 2268.39c0,-68.49 -18.22,-132.72 -50.07,-188.11 -0.16,-0.28 -0.33,-0.56 -0.49,-0.84 -65.34,112.95 -187.46,188.95 -327.33,188.95 139.87,0 261.99,75.99 327.33,188.94 32.16,-55.58 50.56,-120.11 50.56,-188.94z"/>
      <path fill="cyan" d="M2342.94 1323.66c-65.34,112.95 -187.46,188.95 -327.33,188.95 139.87,0 261.99,75.99 327.33,188.94 32.16,-55.58 50.56,-120.11 50.56,-188.94 0,-68.83 -18.4,-133.36 -50.56,-188.95z"/>
      <path fill="cyan" d="M2015.61 1134.72c-65.21,112.72 -186.99,188.64 -326.51,188.94 139.52,0.3 261.3,76.22 326.51,188.95 32.15,-55.59 50.55,-120.12 50.55,-188.95 0,-68.46 -18.2,-132.67 -50.04,-188.06 -0.01,-0.01 -0.02,-0.03 -0.03,-0.04 -0.16,-0.28 -0.32,-0.56 -0.48,-0.84z"/>
      <path fill="cyan" d="M1360.94 2268.39c139.87,0 261.99,-76 327.33,-188.95 -139.5,0 -261.35,-75.59 -326.82,-188.06 31.84,55.39 50.04,119.6 50.04,188.06 0,68.83 -18.4,133.36 -50.55,188.95z"/>
      <path fill="cyan" d="M2015.61 2268.39c-139.53,0 -261.39,-75.62 -326.85,-188.11 31.85,55.39 50.07,119.62 50.07,188.11 0,68.83 -18.4,133.36 -50.56,188.94 139.88,0 262,-75.99 327.34,-188.94z"/>
      <path fill="cyan" d="M2016.12 1135.6c31.84,55.39 50.04,119.6 50.04,188.06 0,68.83 -18.4,133.36 -50.55,188.95 139.87,0 261.99,-76 327.33,-188.95 -139.5,0 -261.35,-75.59 -326.82,-188.06z"/>
     </g>
     <g id="s24g4t3">
      <path fill="cyan" d="M706.27 1134.71c139.49,0 261.34,75.59 326.81,188.04 -31.83,-55.38 -50.03,-119.58 -50.03,-188.04 0,-68.83 18.4,-133.36 50.55,-188.94 -139.7,0 -261.7,75.81 -327.1,188.54 -0.04,0.07 -0.08,0.14 -0.12,0.21 -0.04,0.07 -0.08,0.13 -0.11,0.19zm0.23 -0.4c-0.04,0.07 -0.08,0.14 -0.12,0.21 0.04,-0.07 0.08,-0.14 0.12,-0.21z"/>
      <path fill="cyan" d="M705.75 1889.61c-31.83,-55.39 -50.04,-119.6 -50.04,-188.06 0,-68.83 18.4,-133.36 50.56,-188.95 -139.88,0 -262,76 -327.34,188.95 139.51,0 261.36,75.59 326.82,188.06z"/>
      <path fill="cyan" d="M378.93 1701.55c65.34,-112.95 187.46,-188.95 327.34,-188.95 -139.88,0 -262,-75.99 -327.34,-188.94 -32.15,55.58 -50.55,120.11 -50.55,188.94 0,68.83 18.4,133.37 50.55,188.95z"/>
      <path fill="cyan" d="M1033.6 945.77c-0.16,-0.28 -0.32,-0.56 -0.48,-0.84 0.16,0.28 0.32,0.56 0.48,0.84zm-0.51 -0.89c-65.47,-112.46 -187.32,-188.06 -326.82,-188.06 32.15,55.58 50.55,120.11 50.55,188.95 0,68.63 -18.3,133 -50.28,188.47 65.4,-112.69 187.38,-188.47 327.06,-188.47 -0.16,-0.28 -0.32,-0.56 -0.48,-0.84 -0.01,-0.02 -0.02,-0.03 -0.03,-0.05z"/>
      <path fill="cyan" d="M1688.27 945.77c32.16,55.58 50.56,120.11 50.56,188.94 0,68.76 -18.36,133.22 -50.45,188.76 65.37,-112.85 187.43,-188.75 327.23,-188.75 -0.17,-0.28 -0.33,-0.56 -0.49,-0.84 -0.01,-0.02 -0.02,-0.03 -0.03,-0.05 -65.46,-112.46 -187.31,-188.06 -326.82,-188.06z"/>
      <path fill="cyan" d="M1033.6 2457.33c-32.15,-55.58 -50.55,-120.11 -50.55,-188.94 0,-68.76 18.36,-133.22 50.44,-188.76 -65.36,112.85 -187.43,188.75 -327.22,188.76 65.34,112.95 187.46,188.94 327.33,188.94z"/>
      <path fill="cyan" d="M983.05 1890.5c0,-68.59 18.27,-132.91 50.21,-188.36 -65.42,112.62 -187.36,188.35 -326.99,188.35 0.16,0.28 0.32,0.56 0.48,0.84 0.01,0.02 0.02,0.04 0.03,0.05 65.47,112.46 187.32,188.06 326.82,188.06 -32.15,-55.58 -50.55,-120.11 -50.55,-188.94z"/>
      <path fill="cyan" d="M1360.6 1891.09c-65.43,112.62 -187.37,188.35 -327,188.35 65.34,112.95 187.46,188.95 327.34,188.95 -32.16,-55.58 -50.56,-120.12 -50.56,-188.95 0,-68.58 18.27,-132.91 50.22,-188.35z"/>
      <path fill="cyan" d="M706.27 756.82c139.52,0 261.39,75.62 326.85,188.11 -31.86,-55.39 -50.07,-119.62 -50.07,-188.11 0,-68.83 18.4,-133.36 50.55,-188.94 -139.87,0 -261.99,75.99 -327.33,188.94z"/>
      <path fill="cyan" d="M1688.27 567.88c32.16,55.58 50.56,120.11 50.56,188.94 0,68.76 -18.36,133.22 -50.45,188.76 65.37,-112.85 187.43,-188.75 327.23,-188.76 -65.34,-112.95 -187.46,-188.94 -327.34,-188.94z"/>
      <path fill="cyan" d="M1033.6 945.77c139.51,0 261.36,75.59 326.82,188.06 -31.83,-55.38 -50.04,-119.6 -50.04,-188.06 0,-68.83 18.4,-133.36 50.56,-188.95 -139.88,0 -262,76 -327.34,188.95z"/>
      <path fill="cyan" d="M706.27 1512.6c65.23,-112.77 187.07,-188.7 326.66,-188.94 -139.59,-0.25 -261.43,-76.18 -326.66,-188.95 -0.04,0.06 -0.08,0.13 -0.11,0.19 -32.09,55.54 -50.45,120.01 -50.45,188.76 0,68.83 18.4,133.36 50.56,188.94z"/>
      <path fill="cyan" d="M1360.94 756.82c139.87,0 261.99,76 327.33,188.95 0.04,-0.06 0.08,-0.13 0.11,-0.19 0.04,-0.07 0.08,-0.14 0.13,-0.22 32,-55.49 50.32,-119.87 50.32,-188.54 0,-68.83 -18.4,-133.36 -50.56,-188.94 -65.34,112.95 -187.46,188.94 -327.33,188.94z"/>
      <path fill="cyan" d="M983.05 756.82c0,68.49 18.21,132.72 50.07,188.11 0.16,0.28 0.32,0.56 0.48,0.84 65.34,-112.95 187.46,-188.95 327.34,-188.95 -139.88,0 -262,-75.99 -327.34,-188.94 -32.15,55.58 -50.55,120.11 -50.55,188.94z"/>
      <path fill="cyan" d="M1688.38 945.58c-0.03,0.06 -0.07,0.13 -0.11,0.19 0.04,-0.06 0.08,-0.13 0.11,-0.19zm327.23 -188.76c-139.71,0.01 -261.71,75.82 -327.1,188.54 -0.04,0.08 -0.09,0.15 -0.13,0.22 -0.03,0.06 -0.07,0.13 -0.11,0.19 139.53,0 261.39,75.62 326.85,188.11 -31.85,-55.39 -50.07,-119.62 -50.07,-188.11 0,-68.83 18.4,-133.36 50.56,-188.95zm-327.1 188.54c-0.05,0.08 -0.09,0.15 -0.13,0.22 0.04,-0.07 0.08,-0.14 0.13,-0.22z"/>
      <path fill="cyan" d="M1360.94 2268.39c-139.88,0 -262,-76 -327.34,-188.95 -0.03,0.06 -0.07,0.13 -0.11,0.19 -0.04,0.07 -0.08,0.14 -0.12,0.22 -32.01,55.49 -50.32,119.87 -50.32,188.54 0,68.83 18.4,133.36 50.55,188.94 65.34,-112.95 187.46,-188.94 327.34,-188.94z"/>
      <path fill="cyan" d="M1033.49 2079.63c0.04,-0.06 0.08,-0.13 0.11,-0.19 -0.03,0.06 -0.07,0.13 -0.11,0.19zm-327.22 188.76c139.7,-0.01 261.7,-75.82 327.1,-188.54 0.04,-0.08 0.08,-0.15 0.12,-0.22 0.04,-0.06 0.08,-0.13 0.11,-0.19 -139.52,0 -261.39,-75.62 -326.85,-188.11 31.86,55.39 50.07,119.62 50.07,188.11 0,68.83 -18.4,133.36 -50.55,188.95zm327.1 -188.54c0.04,-0.08 0.08,-0.15 0.12,-0.22 -0.04,0.07 -0.08,0.14 -0.12,0.22z"/>
      <path fill="cyan" d="M1361.28 1134.12c65.42,-112.62 187.36,-188.35 326.99,-188.35 -65.34,-112.95 -187.46,-188.95 -327.33,-188.95 32.15,55.59 50.55,120.12 50.55,188.95 0,68.58 -18.27,132.91 -50.21,188.35z"/>
      <path fill="cyan" d="M1033.6 1701.55c-139.87,0 -251.36,-95.72 -327.33,-188.95 -55.96,90.32 -82.76,231.39 0,377.89 65.34,-112.95 187.46,-188.94 327.33,-188.94z"/>
      <path fill="cyan" d="M378.93 1323.66c65.34,112.95 187.46,188.94 327.34,188.94 -65.62,-97.64 -67.29,-257.1 0,-377.89 -68.45,117.03 -191.41,188.95 -327.34,188.95z"/>
     </g>
    </g>
    <g id="s24g5_12">
     <g id="s24g5t2">
      <path fill="magenta" d="M1411.49 1701.55c0,68.59 -18.27,132.91 -50.21,188.36 65.29,-112.41 186.88,-188.06 326.17,-188.36 -139.16,-0.3 -260.66,-75.82 -326,-188.06 31.84,55.38 50.04,119.6 50.04,188.06z"/>
      <path fill="magenta" d="M1033.84 1701.14c65.29,-112.54 187,-188.29 326.42,-188.53 -139.22,-0.25 -260.79,-75.78 -326.14,-188.06 31.83,55.38 50.04,119.59 50.04,188.05 0,68.67 -18.32,133.05 -50.32,188.54z"/>
      <path fill="magenta" d="M1639.39 1516.46c0,-68.53 16.6,-136.76 48.54,-192.21 -65.29,112.41 -187.03,188.06 -326.32,188.35 139.16,0.3 261.56,76.31 326.9,188.55 -31.84,-55.38 -49.12,-116.17 -49.12,-184.69z"/>
      <path fill="magenta" d="M1411.49 1323.66c0,68.59 -18.27,132.91 -50.21,188.36 65.29,-112.41 186.88,-188.06 326.17,-188.36 -139.16,-0.3 -260.66,-75.82 -326,-188.06 31.84,55.38 50.04,119.6 50.04,188.06z"/>
      <path fill="magenta" d="M1310.38 1701.55c0,-68.59 18.27,-132.91 50.22,-188.36 -65.3,112.41 -186.89,188.06 -326.17,188.36 139.16,0.3 260.66,75.82 325.99,188.06 -31.83,-55.38 -50.04,-119.6 -50.04,-188.06z"/>
      <path fill="magenta" d="M1311.04 1327.13c0,-68.52 16.59,-136.75 48.53,-192.2 -65.29,112.4 -187.03,188.05 -326.32,188.35 139.16,0.3 261.56,76.3 326.9,188.54 -31.84,-55.38 -49.11,-116.16 -49.11,-184.69z"/>
     </g>
     <g id="s24g5t1">
      <path fill="magenta" d="M981.6 1507.96c0,-68.53 19.72,-128.26 51.66,-183.71 -65.29,112.4 -187.71,188.05 -326.99,188.35 139.16,0.3 262,76.71 327.33,188.95 -31.83,-55.38 -52,-125.07 -52,-193.59z"/>
      <path fill="magenta" d="M1688.04 1701.96c-65.29,112.54 -187,188.29 -326.43,188.54 139.22,0.24 260.77,75.76 326.14,188.03 -31.83,-55.37 -50.03,-119.58 -50.03,-188.03 0,-68.67 18.31,-133.05 50.32,-188.54z"/>
      <path fill="magenta" d="M1033.94 1323.07c65.3,-112.41 186.89,-188.06 326.17,-188.36 -139.16,-0.29 -260.66,-75.81 -325.99,-188.05 31.83,55.38 50.04,119.59 50.04,188.05 0,68.59 -18.27,132.91 -50.22,188.36z"/>
      <path fill="magenta" d="M1735.15 1503.83c0,68.53 -14.94,142.27 -46.88,197.72 65.3,-112.4 188.05,-188.64 327.34,-188.94 -139.16,-0.3 -262,-76.71 -327.34,-188.95 31.84,55.38 46.88,111.65 46.88,180.17z"/>
      <path fill="magenta" d="M1086.18 1886.61c0,68.53 -20.64,137.38 -52.58,192.83 65.3,-112.4 188.39,-189.23 327.68,-189.53 -139.16,-0.3 -262.34,-76.12 -327.68,-188.36 31.84,55.38 52.58,116.54 52.58,185.06z"/>
      <path fill="magenta" d="M1640.58 1139.95c0,-68.52 15.75,-138.73 47.69,-194.18 -65.29,112.4 -188.05,188.65 -327.33,188.94 139.16,0.3 261.89,76.9 327.22,189.14 -31.83,-55.38 -47.58,-115.37 -47.58,-183.9z"/>
     </g>
    </g>
    <g id="s24g6_2">
     <path fill="yellow" d="M2066.16 1701.55c0,68.83 -18.4,133.36 -50.55,188.95 139.87,0 261.99,-76 327.33,-188.95 -65.34,-112.95 -187.46,-188.94 -327.33,-188.94 32.15,55.58 50.55,120.11 50.55,188.94z"/>
     <path fill="yellow" d="M1688.27 2079.44c0.16,0.28 0.33,0.56 0.49,0.84 -0.16,-0.28 -0.33,-0.56 -0.49,-0.84zm377.89 0c0,-68.83 -18.4,-133.36 -50.55,-188.94 -65.34,112.95 -187.46,188.94 -327.34,188.94 0.17,0.28 0.33,0.56 0.49,0.84 65.46,112.49 187.32,188.11 326.85,188.11 32.15,-55.58 50.55,-120.12 50.55,-188.95z"/>
    </g>
   </g>
  </g>
 </g>
</svg>
