<?xml version="1.0" encoding="UTF-8"?>
<!DOCTYPE svg PUBLIC "-//W3C//DTD SVG 1.1//EN" "http://www.w3.org/Graphics/SVG/1.1/DTD/svg11.dtd">
<svg xmlns="http://www.w3.org/2000/svg" xml:space="preserve" width="1513px" height="1513px" version="1.1" shape-rendering="geometricPrecision" text-rendering="geometricPrecision" image-rendering="optimizeQuality" fill-rule="evenodd" clip-rule="evenodd"
viewBox="0 0 1512.87 1512.87"
 xmlns:xlink="http://www.w3.org/1999/xlink">
 <g id="astakona_supercontinent">
  <g id="zones">
   <path id="forest_of_astra" fill="lime" d="M731.23 1277.49l-325.41 -134.79 -4.32 10.44 -10.44 4.32 -10.44 4.32 -10.44 -4.32 -10.44 -4.32 -4.33 -10.44 -4.32 -10.44 4.32 -10.44 4.33 -10.44 10.44 -4.33 -134.79 -325.41 -10.44 4.32 -10.44 -4.32 -10.44 -4.32 -4.33 -10.44 -4.32 -10.44 4.32 -10.44 4.33 -10.44 10.44 -4.33 10.44 -4.32 10.44 4.32 134.79 -325.41 -10.44 -4.32 -4.33 -10.44 -4.32 -10.44 4.32 -10.44 4.33 -10.44 10.44 -4.33 10.44 -4.32 10.44 4.32 10.44 4.33 4.32 10.44 325.41 -134.79 -4.32 -10.44 4.32 -10.44 4.33 -10.44 10.44 -4.33 10.44 -4.32 10.44 4.32 10.44 4.33 4.32 10.44 4.32 10.44 -4.32 10.44 325.41 134.79 4.33 -10.44 10.44 -4.33 10.44 -4.32 10.44 4.32 10.44 4.33 4.32 10.44 4.32 10.44 -4.32 10.44 -4.32 10.44 -10.44 4.32 134.79 325.41 10.44 -4.32 10.44 4.32 10.44 4.33 4.32 10.44 4.32 10.44 -4.32 10.44 -4.32 10.44 -10.44 4.32 -10.44 4.32 -10.44 -4.32 -134.79 325.41 10.44 4.33 4.32 10.44 4.32 10.44 -4.32 10.44 -4.32 10.44 -10.44 4.32 -10.44 4.32 -10.44 -4.32 -10.44 -4.32 -4.33 -10.44 -325.41 134.79 4.32 10.44 -4.32 10.44 -4.32 10.44 -10.44 4.32 -10.44 4.32 -10.44 -4.32 -10.44 -4.32 -4.33 -10.44 -4.32 -10.44 4.32 -10.44zm-730.69 -521.05l110.7 267.25 110.7 267.25 267.25 110.7 267.25 110.69 267.25 -110.69 267.25 -110.7 110.7 -267.25 110.69 -267.25 -110.69 -267.25 -110.7 -267.25 -267.25 -110.7 -267.25 -110.7 -267.25 110.7 -267.25 110.7 -110.7 267.25 -110.7 267.25z"/>
   <path id="forest_of_rhea" fill="yellow" d="M1006.98 1006.98l-250.54 103.78 -250.55 -103.78 -103.78 -250.54 103.78 -250.55 250.55 -103.78 250.54 103.78 103.78 250.55 -103.78 250.54zm-250.54 -752.51l-10.44 -4.32 -10.44 -4.32 -4.33 -10.44 -325.41 134.79 4.32 10.44 -4.32 10.44 -4.32 10.44 -10.44 4.32 -10.44 4.32 -10.44 -4.32 -134.79 325.41 10.44 4.33 4.32 10.44 4.32 10.44 -4.32 10.44 -4.32 10.44 -10.44 4.32 134.79 325.41 10.44 -4.32 10.44 4.32 10.44 4.33 4.32 10.44 4.32 10.44 -4.32 10.44 325.41 134.79 4.33 -10.44 10.44 -4.33 10.44 -4.32 10.44 4.32 10.44 4.33 4.32 10.44 325.41 -134.79 -4.32 -10.44 4.32 -10.44 4.33 -10.44 10.44 -4.33 10.44 -4.32 10.44 4.32 134.79 -325.41 -10.44 -4.32 -4.33 -10.44 -4.32 -10.44 4.32 -10.44 4.33 -10.44 10.44 -4.33 -134.79 -325.41 -10.44 4.32 -10.44 -4.32 -10.44 -4.32 -4.33 -10.44 -4.32 -10.44 4.32 -10.44 -325.41 -134.79 -4.32 10.44 -10.44 4.32 -10.44 4.32z"/>
   <path id="mountain_theia" fill="fuchsia" d="M956.88 556l41.51 100.22 41.51 100.22 -41.51 100.22 -41.51 100.22 -100.22 41.51 -100.22 41.51 -100.22 -41.51 -100.22 -41.51 -41.51 -100.22 -41.51 -100.22 41.51 -100.22 41.51 -100.22 100.22 -41.51 100.22 -41.51 100.22 41.51 100.22 41.51zm-225.65 -108.02l-4.32 -10.44 4.32 -10.44 4.33 -10.44 10.44 -4.32 10.44 -4.32 10.44 4.32 10.44 4.32 4.32 10.44 4.32 10.44 -4.32 10.44 -4.32 10.44 -10.44 4.33 -10.44 4.32 -10.44 -4.32 -10.44 -4.33 -4.33 -10.44zm225.5 72.53l4.32 -10.44 10.44 -4.33 10.44 -4.32 10.44 4.32 10.44 4.33 4.32 10.44 4.33 10.44 -4.33 10.43 -4.32 10.44 -10.44 4.33 -10.44 4.32 -10.44 -4.32 -10.44 -4.33 -4.32 -10.44 -4.33 -10.43 4.33 -10.44zm108.16 210.72l10.44 -4.32 10.44 4.32 10.44 4.33 4.32 10.44 4.33 10.44 -4.33 10.44 -4.32 10.44 -10.44 4.32 -10.44 4.32 -10.44 -4.32 -10.44 -4.32 -4.32 -10.44 -4.33 -10.44 4.33 -10.44 4.32 -10.44 10.44 -4.33zm-72.52 225.5l10.44 4.32 4.32 10.44 4.33 10.44 -4.33 10.44 -4.32 10.44 -10.44 4.32 -10.44 4.33 -10.44 -4.33 -10.44 -4.32 -4.32 -10.44 -4.33 -10.44 4.33 -10.44 4.32 -10.44 10.44 -4.32 10.44 -4.33 10.44 4.33zm-210.73 108.16l4.32 10.44 -4.32 10.44 -4.32 10.44 -10.44 4.32 -10.44 4.33 -10.44 -4.33 -10.44 -4.32 -4.33 -10.44 -4.32 -10.44 4.32 -10.44 4.33 -10.44 10.44 -4.32 10.44 -4.33 10.44 4.33 10.44 4.32 4.32 10.44zm-225.49 -72.52l-4.33 10.44 -10.44 4.32 -10.43 4.33 -10.44 -4.33 -10.44 -4.32 -4.33 -10.44 -4.32 -10.44 4.32 -10.44 4.33 -10.44 10.44 -4.32 10.44 -4.33 10.43 4.33 10.44 4.32 4.33 10.44 4.32 10.44 -4.32 10.44zm-108.17 -210.73l-10.44 4.32 -10.44 -4.32 -10.44 -4.32 -4.32 -10.44 -4.32 -10.44 4.32 -10.44 4.32 -10.44 10.44 -4.33 10.44 -4.32 10.44 4.32 10.44 4.33 4.33 10.44 4.32 10.44 -4.32 10.44 -4.33 10.44 -10.44 4.32zm72.53 -225.49l-10.44 -4.33 -4.33 -10.44 -4.32 -10.43 4.32 -10.44 4.33 -10.44 10.44 -4.33 10.44 -4.32 10.43 4.32 10.44 4.33 4.33 10.44 4.32 10.44 -4.32 10.43 -4.33 10.44 -10.44 4.33 -10.43 4.32 -10.44 -4.32zm-118.4 200.29l103.78 250.54 250.55 103.78 250.54 -103.78 103.78 -250.54 -103.78 -250.55 -250.54 -103.78 -250.55 103.78 -103.78 250.55z"/>
   <path id="valley_of_kayan" fill="lime" d="M998.39 656.22l-41.51 -100.22 -100.22 -41.51 -100.22 -41.51 -100.22 41.51 -100.22 41.51 -41.51 100.22 -41.51 100.22 41.51 100.22 41.51 100.22 100.22 41.51 100.22 41.51 100.22 -41.51 100.22 -41.51 41.51 -100.22 41.51 -100.22 -41.51 -100.22zm-241.95 52.97l16.7 6.92 16.7 6.92 6.92 16.7 6.92 16.71 -6.92 16.7 -6.92 16.7 -16.7 6.92 -16.7 6.92 -16.71 -6.92 -16.7 -6.92 -6.92 -16.7 -6.92 -16.7 6.92 -16.71 6.92 -16.7 16.7 -6.92 16.71 -6.92z"/>
   <polygon id="lake_memoir" fill="black" points="803.68,756.44 796.76,739.73 789.84,723.03 773.14,716.11 756.44,709.19 739.73,716.11 723.03,723.03 716.11,739.73 709.19,756.44 716.11,773.14 723.03,789.84 739.73,796.76 756.44,803.68 773.14,796.76 789.84,789.84 796.76,773.14 "/>
  </g>
  <g id="cardinal_rivers">
   <line id="n_cardinal_river" fill="none" stroke="blue" stroke-miterlimit="2.61313" x1="756.44" y1="402.11" x2="756.44" y2= "0.54" />
   <line id="e_cardinal_river" fill="none" stroke="blue" stroke-miterlimit="2.61313" x1="1110.76" y1="756.44" x2="1512.33" y2= "756.44" />
   <line id="s_cardinal_river" fill="none" stroke="blue" stroke-miterlimit="2.61313" x1="756.44" y1="1110.76" x2="756.44" y2= "1512.33" />
   <line id="w_cardinal_river" fill="none" stroke="blue" stroke-miterlimit="2.61313" x1="402.11" y1="756.44" x2="0.54" y2= "756.44" />
  </g>
  <g id="ordinal_mountains">
   <line id="ne_ordinal_mountain" fill="none" stroke="yellow" stroke-miterlimit="2.61313" x1="1057.09" y1="455.78" x2="1290.94" y2= "221.94" />
   <line id="nw_ordinal_mountain" fill="none" stroke="yellow" stroke-miterlimit="2.61313" x1="455.78" y1="455.78" x2="221.94" y2= "221.94" />
   <line id="sw_ordinal_mountain" fill="none" stroke="yellow" stroke-miterlimit="2.61313" x1="455.78" y1="1057.09" x2="221.94" y2= "1290.94" />
   <line id="se_ordinal_mountain" fill="none" stroke="yellow" stroke-miterlimit="2.61313" x1="1057.09" y1="1057.09" x2="1290.94" y2= "1290.94" />
  </g>
  <g id="quartal_buffer">
   <polygon id="river_infinity" fill="none" stroke="blue" stroke-width="2.08" stroke-miterlimit="2.61313" points="756.44,224.95 1132.26,380.62 1287.93,756.44 1132.26,1132.26 756.44,1287.93 380.62,1132.26 224.95,756.44 380.62,380.62 "/>
   <polygon id="river_eternity" fill="none" stroke="blue" stroke-width="2.08" stroke-miterlimit="2.61313" points="756.44,402.11 1006.98,505.89 1110.76,756.44 1006.98,1006.98 756.44,1110.76 505.89,1006.98 402.11,756.44 505.89,505.89 "/>
   <polygon id="river_boundary" fill="none" stroke="blue" stroke-width="2.08" stroke-miterlimit="2.61313" points="756.44,472.98 956.88,556 1039.9,756.44 956.88,956.88 756.44,1039.9 556,956.88 472.98,756.44 556,556 "/>
   <polygon id="tebing_larangan" fill="none" stroke="yellow" stroke-miterlimit="2.61313" points="756.44,331.25 1057.09,455.78 1181.63,756.44 1057.09,1057.09 756.44,1181.63 455.78,1057.09 331.25,756.44 455.78,455.78 "/>
  </g>
  <g id="frontline_fortress">
   <polygon id="ff_red_route" fill="none" stroke="red" stroke-miterlimit="2.61313" points="756.44,472.98 856.66,514.49 956.88,556 998.39,656.22 1039.9,756.44 998.39,856.66 956.88,956.88 856.66,998.39 756.44,1039.9 656.22,998.39 556,956.88 514.49,856.66 472.98,756.44 514.49,656.22 556,556 656.22,514.49 "/>
   <polygon id="ff_n_holy_fortress" fill="none" stroke="black" stroke-miterlimit="2.61313" points="756.44,408.02 766.88,412.34 777.32,416.66 781.64,427.1 785.96,437.54 781.64,447.98 777.32,458.42 766.88,462.75 756.44,467.07 746,462.75 735.56,458.42 731.23,447.98 726.91,437.54 731.23,427.1 735.56,416.66 746,412.34 "/>
   <polygon id="ff_ne_tyrant_fortress" fill="none" stroke="black" stroke-miterlimit="2.61313" points="981.93,501.42 992.37,505.74 1002.81,510.07 1007.13,520.51 1011.46,530.95 1007.13,541.38 1002.81,551.82 992.37,556.15 981.93,560.47 971.49,556.15 961.05,551.82 956.73,541.38 952.4,530.95 956.73,520.51 961.05,510.07 971.49,505.74 "/>
   <polygon id="ff_nw_guardian_fortress" fill="none" stroke="black" stroke-miterlimit="2.61313" points="530.95,501.42 541.38,505.74 551.82,510.07 556.15,520.51 560.47,530.95 556.15,541.38 551.82,551.82 541.38,556.15 530.95,560.47 520.51,556.15 510.07,551.82 505.74,541.38 501.42,530.95 505.74,520.51 510.07,510.07 520.51,505.74 "/>
   <polygon id="ff_e_sun_fortress" fill="none" stroke="black" stroke-miterlimit="2.61313" points="1075.33,726.91 1085.77,731.23 1096.21,735.56 1100.53,746 1104.86,756.44 1100.53,766.88 1096.21,777.32 1085.77,781.64 1075.33,785.96 1064.89,781.64 1054.45,777.32 1050.13,766.88 1045.8,756.44 1050.13,746 1054.45,735.56 1064.89,731.23 "/>
   <polygon id="ff_w_moon_fortress" fill="none" stroke="black" stroke-miterlimit="2.61313" points="437.54,726.91 447.98,731.23 458.42,735.56 462.75,746 467.07,756.44 462.75,766.88 458.42,777.32 447.98,781.64 437.54,785.96 427.1,781.64 416.66,777.32 412.34,766.88 408.02,756.44 412.34,746 416.66,735.56 427.1,731.23 "/>
   <polygon id="ff_s_rhean_fortress" fill="none" stroke="black" stroke-miterlimit="2.61313" points="756.44,1045.8 766.88,1050.13 777.32,1054.45 781.64,1064.89 785.96,1075.33 781.64,1085.77 777.32,1096.21 766.88,1100.53 756.44,1104.86 746,1100.53 735.56,1096.21 731.23,1085.77 726.91,1075.33 731.23,1064.89 735.56,1054.45 746,1050.13 "/>
   <polygon id="ff_se_phoenix_fortress" fill="none" stroke="black" stroke-miterlimit="2.61313" points="981.93,952.4 992.37,956.73 1002.81,961.05 1007.13,971.49 1011.46,981.93 1007.13,992.37 1002.81,1002.81 992.37,1007.13 981.93,1011.46 971.49,1007.13 961.05,1002.81 956.73,992.37 952.4,981.93 956.73,971.49 961.05,961.05 971.49,956.73 "/>
   <polygon id="ff_sw_dragon_fortress" fill="none" stroke="black" stroke-miterlimit="2.61313" points="530.95,952.4 541.38,956.73 551.82,961.05 556.15,971.49 560.47,981.93 556.15,992.37 551.82,1002.81 541.38,1007.13 530.95,1011.46 520.51,1007.13 510.07,1002.81 505.74,992.37 501.42,981.93 505.74,971.49 510.07,961.05 520.51,956.73 "/>
  </g>
  <g id="langragian_lock">
   <polygon id="hq_holy_temple" fill="none" stroke="black" stroke-miterlimit="2.61313" points="756.44,195.42 766.88,199.74 777.32,204.07 781.64,214.51 785.96,224.95 781.64,235.39 777.32,245.83 766.88,250.15 756.44,254.47 746,250.15 735.56,245.83 731.23,235.39 726.91,224.95 731.23,214.51 735.56,204.07 746,199.74 "/>
   <polygon id="hq_adventurer_guild" fill="none" stroke="black" stroke-miterlimit="2.61313" points="1287.93,726.91 1298.37,731.23 1308.81,735.56 1313.13,746 1317.45,756.44 1313.13,766.88 1308.81,777.32 1298.37,781.64 1287.93,785.96 1277.49,781.64 1267.05,777.32 1262.72,766.88 1258.4,756.44 1262.72,746 1267.05,735.56 1277.49,731.23 "/>
   <polygon id="hq_astra_tree_of_life" fill="none" stroke="black" stroke-miterlimit="2.61313" points="756.44,1258.4 766.88,1262.72 777.32,1267.05 781.64,1277.49 785.96,1287.93 781.64,1298.37 777.32,1308.81 766.88,1313.13 756.44,1317.45 746,1313.13 735.56,1308.81 731.23,1298.37 726.91,1287.93 731.23,1277.49 735.56,1267.05 746,1262.72 "/>
   <polygon id="hq_magician_guild" fill="none" stroke="black" stroke-miterlimit="2.61313" points="224.95,726.91 235.39,731.23 245.83,735.56 250.15,746 254.47,756.44 250.15,766.88 245.83,777.32 235.39,781.64 224.95,785.96 214.51,781.64 204.07,777.32 199.74,766.88 195.42,756.44 199.74,746 204.07,735.56 214.51,731.23 "/>
  </g>
  <g id="ordinal_pass">
   <polygon id="nw_ordinal_pass" fill="none" stroke="black" stroke-miterlimit="2.61313" points="380.62,351.09 391.06,355.41 401.5,359.74 405.82,370.18 410.14,380.62 405.82,391.06 401.5,401.5 391.06,405.82 380.62,410.14 370.18,405.82 359.74,401.5 355.41,391.06 351.09,380.62 355.41,370.18 359.74,359.74 370.18,355.41 "/>
   <polygon id="ne_ordinal_pass" fill="none" stroke="black" stroke-miterlimit="2.61313" points="1132.26,351.09 1142.7,355.41 1153.14,359.74 1157.46,370.18 1161.78,380.62 1157.46,391.06 1153.14,401.5 1142.7,405.82 1132.26,410.14 1121.82,405.82 1111.38,401.5 1107.05,391.06 1102.73,380.62 1107.05,370.18 1111.38,359.74 1121.82,355.41 "/>
   <polygon id="se_ordinal_pass" fill="none" stroke="black" stroke-miterlimit="2.61313" points="1132.26,1102.73 1142.7,1107.05 1153.14,1111.38 1157.46,1121.82 1161.78,1132.26 1157.46,1142.7 1153.14,1153.14 1142.7,1157.46 1132.26,1161.78 1121.82,1157.46 1111.38,1153.14 1107.05,1142.7 1102.73,1132.26 1107.05,1121.82 1111.38,1111.38 1121.82,1107.05 "/>
   <polygon id="sw_ordinal_pass" fill="none" stroke="black" stroke-miterlimit="2.61313" points="380.62,1102.73 391.06,1107.05 401.5,1111.38 405.82,1121.82 410.14,1132.26 405.82,1142.7 401.5,1153.14 391.06,1157.46 380.62,1161.78 370.18,1157.46 359.74,1153.14 355.41,1142.7 351.09,1132.26 355.41,1121.82 359.74,1111.38 370.18,1107.05 "/>
  </g>
  <polygon id="coastal_line" fill="none" stroke="black" stroke-miterlimit="2.61313" points="756.44,0.54 1290.94,221.94 1512.33,756.44 1290.94,1290.94 756.44,1512.33 221.94,1290.94 0.54,756.44 221.94,221.94 "/>
 </g>
</svg>
